<svg xmlns="http://www.w3.org/2000/svg" id="Layer_1" data-name="Layer 1" viewBox="281.58 460.69 515.9 145.65">
  <g>
    <path d="m483.66,527.93l-16.84-19.47v19.47h-7.14v-43.52h7.14v19.85l16.91-19.85h8.95l-18.91,21.79,19.22,21.73h-9.33Z" style="fill: #390d1c; stroke-width: 0px;"/>
    <path d="m495.34,501.32c1.44-2.67,3.4-4.75,5.89-6.23,2.48-1.48,5.23-2.22,8.23-2.22,2.71,0,5.08.53,7.11,1.6,2.02,1.06,3.64,2.39,4.85,3.98v-5.01h7.2v34.5h-7.2v-5.13c-1.21,1.63-2.86,2.98-4.95,4.07-2.09,1.08-4.47,1.63-7.14,1.63-2.96,0-5.68-.76-8.14-2.29-2.46-1.52-4.41-3.65-5.86-6.39-1.44-2.73-2.16-5.83-2.16-9.3s.72-6.53,2.16-9.2Zm24.61,3.13c-.98-1.75-2.26-3.09-3.85-4.01-1.59-.92-3.3-1.38-5.13-1.38s-3.55.45-5.13,1.35c-1.59.9-2.87,2.21-3.85,3.94-.98,1.73-1.47,3.79-1.47,6.17s.49,4.47,1.47,6.26c.98,1.8,2.27,3.16,3.88,4.1,1.61.94,3.31,1.41,5.1,1.41s3.55-.46,5.13-1.38c1.59-.92,2.87-2.26,3.85-4.04.98-1.77,1.47-3.85,1.47-6.23s-.49-4.45-1.47-6.2Z" style="fill: #390d1c; stroke-width: 0px;"/>
    <path d="m542.58,499.25v19.1c0,1.29.3,2.22.91,2.79.6.56,1.64.85,3.1.85h4.38v5.95h-5.64c-3.21,0-5.68-.75-7.39-2.25-1.71-1.5-2.57-3.94-2.57-7.33v-19.1h-4.07v-5.82h4.07v-8.58h7.2v8.58h8.39v5.82h-8.39Z" style="fill: #390d1c; stroke-width: 0px;"/>
    <path d="m578.67,494.55c2.07,1.13,3.69,2.8,4.88,5.01,1.19,2.21,1.79,4.88,1.79,8.01v20.35h-7.08v-19.28c0-3.09-.77-5.46-2.32-7.11-1.54-1.65-3.65-2.47-6.32-2.47s-4.79.82-6.35,2.47c-1.57,1.65-2.35,4.02-2.35,7.11v19.28h-7.14v-46.33h7.14v15.84c1.21-1.46,2.75-2.59,4.6-3.38,1.86-.79,3.89-1.19,6.1-1.19,2.63,0,4.98.56,7.04,1.69Z" style="fill: #390d1c; stroke-width: 0px;"/>
    <path d="m639.72,494.55c2.15,1.13,3.84,2.8,5.07,5.01,1.23,2.21,1.85,4.88,1.85,8.01v20.35h-7.08v-19.28c0-3.09-.77-5.46-2.32-7.11-1.54-1.65-3.65-2.47-6.32-2.47s-4.79.82-6.36,2.47c-1.56,1.65-2.35,4.02-2.35,7.11v19.28h-7.08v-19.28c0-3.09-.77-5.46-2.32-7.11-1.54-1.65-3.65-2.47-6.32-2.47s-4.79.82-6.35,2.47c-1.57,1.65-2.35,4.02-2.35,7.11v19.28h-7.14v-34.5h7.14v3.94c1.17-1.42,2.65-2.53,4.45-3.32,1.79-.79,3.71-1.19,5.76-1.19,2.75,0,5.22.58,7.39,1.75,2.17,1.17,3.84,2.86,5.01,5.07,1.04-2.09,2.67-3.75,4.88-4.98,2.21-1.23,4.59-1.85,7.14-1.85,2.71,0,5.14.56,7.29,1.69Z" style="fill: #390d1c; stroke-width: 0px;"/>
    <path d="m651.74,501.32c1.44-2.67,3.4-4.75,5.88-6.23,2.48-1.48,5.23-2.22,8.23-2.22,2.71,0,5.08.53,7.11,1.6,2.03,1.06,3.64,2.39,4.85,3.98v-5.01h7.2v34.5h-7.2v-5.13c-1.21,1.63-2.86,2.98-4.95,4.07s-4.47,1.63-7.14,1.63c-2.96,0-5.68-.76-8.14-2.29-2.46-1.52-4.41-3.65-5.85-6.39-1.44-2.73-2.16-5.83-2.16-9.3s.72-6.53,2.16-9.2Zm24.61,3.13c-.98-1.75-2.26-3.09-3.85-4.01-1.59-.92-3.3-1.38-5.13-1.38s-3.55.45-5.13,1.35c-1.59.9-2.87,2.21-3.85,3.94-.98,1.73-1.47,3.79-1.47,6.17s.49,4.47,1.47,6.26c.98,1.8,2.27,3.16,3.88,4.1,1.61.94,3.31,1.41,5.1,1.41s3.55-.46,5.13-1.38c1.59-.92,2.87-2.26,3.85-4.04.98-1.77,1.47-3.85,1.47-6.23s-.49-4.45-1.47-6.2Z" style="fill: #390d1c; stroke-width: 0px;"/>
    <path d="m715.35,494.55c2.15,1.13,3.83,2.8,5.04,5.01,1.21,2.21,1.81,4.88,1.81,8.01v20.35h-7.07v-19.28c0-3.09-.77-5.46-2.32-7.11-1.54-1.65-3.65-2.47-6.32-2.47s-4.79.82-6.36,2.47c-1.57,1.65-2.35,4.02-2.35,7.11v19.28h-7.14v-34.5h7.14v3.94c1.17-1.42,2.66-2.53,4.48-3.32,1.82-.79,3.75-1.19,5.79-1.19,2.71,0,5.14.56,7.29,1.69Z" style="fill: #390d1c; stroke-width: 0px;"/>
    <path d="m727.31,501.32c1.44-2.67,3.4-4.75,5.89-6.23,2.48-1.48,5.25-2.22,8.3-2.22,2.25,0,4.48.49,6.67,1.47,2.19.98,3.93,2.29,5.23,3.91v-16.65h7.2v46.33h-7.2v-5.2c-1.17,1.67-2.79,3.05-4.85,4.13s-4.44,1.63-7.11,1.63c-3,0-5.75-.76-8.23-2.29-2.48-1.52-4.45-3.65-5.89-6.39-1.44-2.73-2.16-5.83-2.16-9.3s.72-6.53,2.16-9.2Zm24.61,3.13c-.98-1.75-2.26-3.09-3.85-4.01-1.59-.92-3.3-1.38-5.13-1.38s-3.55.45-5.13,1.35c-1.59.9-2.87,2.21-3.85,3.94-.98,1.73-1.47,3.79-1.47,6.17s.49,4.47,1.47,6.26c.98,1.8,2.27,3.16,3.88,4.1,1.61.94,3.31,1.41,5.1,1.41s3.55-.46,5.13-1.38c1.59-.92,2.87-2.26,3.85-4.04.98-1.77,1.47-3.85,1.47-6.23s-.49-4.45-1.47-6.2Z" style="fill: #390d1c; stroke-width: 0px;"/>
    <path d="m797.47,493.43v34.5h-7.14v-4.07c-1.13,1.42-2.6,2.54-4.41,3.35s-3.75,1.22-5.79,1.22c-2.71,0-5.14-.56-7.29-1.69-2.15-1.13-3.84-2.8-5.07-5.01-1.23-2.21-1.85-4.88-1.85-8.01v-20.29h7.08v19.22c0,3.09.77,5.46,2.32,7.11,1.54,1.65,3.65,2.47,6.32,2.47s4.79-.82,6.35-2.47c1.57-1.65,2.35-4.02,2.35-7.11v-19.22h7.14Z" style="fill: #390d1c; stroke-width: 0px;"/>
    <path d="m505.51,539.34v43.52h-7.14v-29.8l-13.27,29.8h-4.95l-13.34-29.8v29.8h-7.14v-43.52h7.7l15.28,34.12,15.21-34.12h7.64Z" style="fill: #390d1c; stroke-width: 0px;"/>
    <path d="m510.93,556.24c1.44-2.67,3.4-4.75,5.89-6.23,2.48-1.48,5.23-2.22,8.23-2.22,2.71,0,5.08.53,7.11,1.6,2.02,1.06,3.64,2.39,4.85,3.98v-5.01h7.2v34.5h-7.2v-5.13c-1.21,1.63-2.86,2.98-4.95,4.07-2.09,1.08-4.47,1.63-7.14,1.63-2.96,0-5.68-.76-8.14-2.29-2.46-1.52-4.41-3.65-5.85-6.39-1.44-2.73-2.16-5.83-2.16-9.3s.72-6.53,2.16-9.2Zm24.61,3.13c-.98-1.75-2.26-3.09-3.85-4.01-1.59-.92-3.3-1.38-5.13-1.38s-3.55.45-5.13,1.35c-1.59.9-2.87,2.21-3.85,3.94-.98,1.73-1.47,3.79-1.47,6.17s.49,4.47,1.47,6.26c.98,1.8,2.27,3.16,3.88,4.1,1.61.94,3.31,1.41,5.1,1.41s3.55-.46,5.13-1.38c1.59-.92,2.87-2.26,3.85-4.04.98-1.77,1.47-3.85,1.47-6.23s-.49-4.45-1.47-6.2Z" style="fill: #390d1c; stroke-width: 0px;"/>
    <path d="m574.54,549.48c2.15,1.13,3.83,2.8,5.04,5.01,1.21,2.21,1.82,4.88,1.82,8.01v20.35h-7.08v-19.28c0-3.09-.77-5.46-2.32-7.11-1.54-1.65-3.65-2.47-6.32-2.47s-4.79.82-6.35,2.47c-1.57,1.65-2.35,4.02-2.35,7.11v19.28h-7.14v-34.5h7.14v3.94c1.17-1.42,2.66-2.53,4.48-3.32,1.82-.79,3.75-1.19,5.79-1.19,2.71,0,5.14.56,7.29,1.69Z" style="fill: #390d1c; stroke-width: 0px;"/>
    <path d="m586.5,556.24c1.44-2.67,3.4-4.75,5.89-6.23,2.48-1.48,5.25-2.22,8.3-2.22,2.25,0,4.48.49,6.67,1.47,2.19.98,3.93,2.29,5.23,3.91v-16.65h7.2v46.33h-7.2v-5.2c-1.17,1.67-2.79,3.05-4.85,4.13s-4.44,1.63-7.11,1.63c-3,0-5.75-.76-8.23-2.29-2.48-1.52-4.45-3.65-5.89-6.39-1.44-2.73-2.16-5.83-2.16-9.3s.72-6.53,2.16-9.2Zm24.61,3.13c-.98-1.75-2.26-3.09-3.85-4.01-1.59-.92-3.3-1.38-5.13-1.38s-3.55.45-5.13,1.35c-1.59.9-2.87,2.21-3.85,3.94-.98,1.73-1.47,3.79-1.47,6.17s.49,4.47,1.47,6.26c.98,1.8,2.27,3.16,3.88,4.1,1.61.94,3.31,1.41,5.1,1.41s3.55-.46,5.13-1.38c1.59-.92,2.87-2.26,3.85-4.04.98-1.77,1.47-3.85,1.47-6.23s-.49-4.45-1.47-6.2Z" style="fill: #390d1c; stroke-width: 0px;"/>
    <path d="m625.19,556.24c1.44-2.67,3.4-4.75,5.89-6.23,2.48-1.48,5.23-2.22,8.23-2.22,2.71,0,5.08.53,7.11,1.6,2.02,1.06,3.64,2.39,4.85,3.98v-5.01h7.2v34.5h-7.2v-5.13c-1.21,1.63-2.86,2.98-4.95,4.07-2.09,1.08-4.47,1.63-7.14,1.63-2.96,0-5.68-.76-8.14-2.29-2.46-1.52-4.41-3.65-5.85-6.39-1.44-2.73-2.16-5.83-2.16-9.3s.72-6.53,2.16-9.2Zm24.61,3.13c-.98-1.75-2.26-3.09-3.85-4.01-1.59-.92-3.3-1.38-5.13-1.38s-3.55.45-5.13,1.35c-1.59.9-2.87,2.21-3.85,3.94-.98,1.73-1.47,3.79-1.47,6.17s.49,4.47,1.47,6.26c.98,1.8,2.27,3.16,3.88,4.1,1.61.94,3.31,1.41,5.1,1.41s3.55-.46,5.13-1.38c1.59-.92,2.87-2.26,3.85-4.04.98-1.77,1.47-3.85,1.47-6.23s-.49-4.45-1.47-6.2Z" style="fill: #390d1c; stroke-width: 0px;"/>
    <path d="m671.24,536.52v46.33h-7.14v-46.33h7.14Z" style="fill: #390d1c; stroke-width: 0px;"/>
    <path d="m676.66,556.24c1.44-2.67,3.4-4.75,5.89-6.23,2.48-1.48,5.23-2.22,8.23-2.22,2.71,0,5.08.53,7.11,1.6,2.02,1.06,3.64,2.39,4.85,3.98v-5.01h7.2v34.5h-7.2v-5.13c-1.21,1.63-2.86,2.98-4.95,4.07-2.09,1.08-4.47,1.63-7.14,1.63-2.96,0-5.68-.76-8.14-2.29-2.46-1.52-4.41-3.65-5.85-6.39-1.44-2.73-2.16-5.83-2.16-9.3s.72-6.53,2.16-9.2Zm24.61,3.13c-.98-1.75-2.26-3.09-3.85-4.01-1.59-.92-3.3-1.38-5.13-1.38s-3.55.45-5.13,1.35c-1.59.9-2.87,2.21-3.85,3.94-.98,1.73-1.47,3.79-1.47,6.17s.49,4.47,1.47,6.26c.98,1.8,2.27,3.16,3.88,4.1,1.61.94,3.31,1.41,5.1,1.41s3.55-.46,5.13-1.38c1.59-.92,2.87-2.26,3.85-4.04.98-1.77,1.47-3.85,1.47-6.23s-.49-4.45-1.47-6.2Z" style="fill: #390d1c; stroke-width: 0px;"/>
  </g>
  <g>
    <path d="m426.5,566.4c.06,5.75.01,11.51.01,17.68-3.59,0-7,.07-10.4-.1-.39-.02-.99-1.4-1.01-2.16-.1-5.07-.03-10.15-.07-15.22-.12-14.89-12.42-27.22-27.32-27.32-8.6-.05-17.2-.01-25.8,0-.75,0-1.5.08-2.41.14-.05.97-.13,1.81-.13,2.65-.01,8.34-.03,16.68,0,25.03.03,15.52,12.3,27.78,27.83,27.86,1.71,0,3.43,0,5.54,0,0-1.08,0-1.99,0-2.9,0-7.91-.02-15.82-.03-23.73,0-4.47-2.16-6.67-6.59-6.73-.43,0-.87.05-1.29,0-2.4-.36-3.28.47-3.2,3.06.21,6,.07,12.01.07,18.05-5.18-.96-10.38-6.44-10.98-12.52-.61-6.14-.33-12.36-.36-18.55,0-.46.73-1.35,1.11-1.34,6.77.15,13.65-.28,20.26.82,7.19,1.2,12.17,7.62,12.32,14.96.27,13.06.09,26.14.08,39.21,0,.24-.14.48-.2.69-.18.12-.32.3-.45.29-7.46-.1-15,.38-22.38-.47-11.17-1.28-19.79-7.35-26.3-16.45-.33-.46-.67-.93-.76-1.05h0v-109.61h0c.28-.35.54-.66.77-.98,7.68-10.48,17.75-16.32,30.5-16.96.81-.04,1.63-.06,2.47-.06,5.32,0,10.64,0,16.23,0,.06,1.12.16,2.03.16,2.94.01,11.87.03,23.74.01,35.61-.02,10.11-7.21,17.49-17.27,17.64-4.81.08-9.63-.05-14.45.03-.34,0-.64-.02-.89-.07-1.02-.2-1.36-.88-1.34-2.2.08-5.07-.07-10.15.1-15.22.23-7.08,4.71-13.14,11.14-15.15.07.76.19,1.48.19,2.19.02,4.28.1,8.56.04,12.84-.02,1.14-.04,2.27-.08,3.41-.08,2.38.74,3.08,2.93,2.79.93-.13,1.9.03,2.83-.07,2.87-.3,5.21-2.37,5.24-5.14.07-6.64.03-13.27,0-19.91-.01-2.56-.03-5.13-.03-7.69,0-.06-.1-.13-.15-.2-15.5-2.67-29.25,7.05-32.42,21.41-.46,2.07-.63,4.25-.64,6.38-.07,9.02-.03,18.05-.03,27.38,1.03.05,1.93.13,2.84.13,1.02,0,2.04,0,3.05,0,7.33,0,14.65.03,21.97-.01,15.55-.08,27.72-12.28,27.8-27.87.03-4.9.05-9.8-.03-14.7-.03-1.64.44-2.33,2.18-2.27,2.98.11,5.98.03,9.3.03,0,6.13.07,11.95-.01,17.77-.15,10.26-3.9,19.1-11,26.45-2.24,2.32-4.87,4.25-7.03,6.12,3.3,3.28,6.95,6.32,9.89,9.93,5.42,6.66,8.07,14.5,8.16,23.12Z" style="fill: #390d1c; stroke-width: 0px;"/>
    <path d="m354.06,478.7v109.61h0c-.09.13-.43.59-.76,1.06-6.5,9.1-15.13,15.17-26.3,16.45-7.38.85-14.92.37-22.38.47-.13,0-.27-.17-.45-.29-.06-.21-.2-.45-.2-.69,0-13.07-.19-26.15.08-39.21.15-7.34,5.13-13.77,12.32-14.96,6.62-1.1,13.5-.67,20.26-.82.38,0,1.11.87,1.11,1.34-.02,6.19.25,12.41-.36,18.55-.6,6.08-5.8,11.56-10.98,12.52,0-6.05-.14-12.06.07-18.05.09-2.59-.8-3.41-3.19-3.06-.42.06-.86,0-1.29,0-4.43.07-6.58,2.27-6.59,6.73-.01,7.91-.02,15.82-.03,23.73,0,.91,0,1.82,0,2.9,2.12,0,3.83,0,5.54,0,15.54-.08,27.8-12.35,27.83-27.86.02-8.34,0-16.68,0-25.03,0-.84-.08-1.67-.13-2.65-.91-.06-1.66-.14-2.41-.14-8.6-.01-17.2-.05-25.8,0-14.89.09-27.2,12.42-27.32,27.32-.04,5.07.03,10.15-.07,15.22-.01.76-.62,2.14-1.01,2.16-3.4.17-6.8.1-10.4.1,0-6.17-.05-11.92.01-17.68.09-8.62,2.73-16.46,8.16-23.12,2.94-3.61,6.59-6.66,9.89-9.93-2.16-1.87-4.8-3.81-7.03-6.12-7.1-7.35-10.85-16.19-11-26.45-.08-5.81-.01-11.63-.01-17.77,3.32,0,6.31.08,9.3-.03,1.73-.07,2.2.62,2.18,2.27-.08,4.9-.05,9.8-.02,14.7.08,15.59,12.25,27.8,27.8,27.87,8.25.04,16.49.02,24.74,0h.29c.9,0,1.81-.08,2.84-.13,0-9.33.04-18.36-.03-27.38-.01-2.13-.18-4.3-.64-6.38-3.18-14.37-16.93-24.09-32.42-21.41-.05.06-.15.13-.15.2,0,.98,0,1.96-.01,2.94-.03,8.22-.1,16.44-.02,24.66.03,2.76,2.37,4.84,5.24,5.14.94.1,1.9-.05,2.83.07,2.19.3,3.02-.41,2.93-2.79-.09-2.74-.11-5.48-.1-8.22.01-2.68.05-5.35.06-8.03,0-.71.12-1.42.19-2.19,6.42,2.01,10.9,8.08,11.14,15.15.16,4.98.02,9.96.09,14.94,0,.09,0,.18,0,.28.03,1.64-.51,2.29-2.23,2.27-4.81-.08-9.63.04-14.45-.03-10.06-.16-17.26-7.53-17.27-17.64-.02-11.87,0-23.74,0-35.61,0-.91.1-1.83.16-2.94,5.59,0,10.91,0,16.23,0,.83,0,1.65.02,2.47.06,12.75.64,22.83,6.48,30.5,16.96.23.32.49.63.78.97Z" style="fill: #390d1c; stroke-width: 0px;"/>
  </g>
</svg>