<?xml version="1.0" encoding="UTF-8"?>
<svg id="Layer_1" data-name="Layer 1" xmlns="http://www.w3.org/2000/svg" viewBox="0 0 1080 1080">
  <g>
    <path d="m280.46,652.18l-30.56-35.33v35.33h-12.95v-78.96h12.95v36.01l30.67-36.01h16.25l-34.31,39.54,34.88,39.42h-16.93Z" style="fill: #390d1c; stroke-width: 0px;"/>
    <path d="m301.65,603.89c2.61-4.85,6.17-8.61,10.68-11.3,4.51-2.69,9.49-4.03,14.94-4.03,4.92,0,9.22.96,12.9,2.9,3.67,1.93,6.61,4.34,8.8,7.21v-9.09h13.07v62.6h-13.07v-9.32c-2.2,2.96-5.19,5.42-8.98,7.38-3.79,1.97-8.11,2.96-12.95,2.96-5.38,0-10.3-1.38-14.77-4.15-4.47-2.77-8.01-6.63-10.62-11.59-2.61-4.96-3.92-10.58-3.92-16.87s1.31-11.85,3.92-16.7Zm44.65,5.68c-1.78-3.18-4.11-5.61-6.99-7.27-2.88-1.67-5.98-2.5-9.32-2.5s-6.44.82-9.32,2.44c-2.88,1.63-5.21,4.02-6.99,7.16-1.78,3.14-2.67,6.87-2.67,11.19s.89,8.11,2.67,11.36c1.78,3.26,4.13,5.74,7.04,7.44,2.92,1.71,6,2.56,9.26,2.56s6.44-.83,9.32-2.5c2.88-1.66,5.21-4.11,6.99-7.33,1.78-3.22,2.67-6.99,2.67-11.3s-.89-8.07-2.67-11.25Z" style="fill: #390d1c; stroke-width: 0px;"/>
    <path d="m387.37,600.15v34.65c0,2.35.55,4.03,1.65,5.06,1.1,1.02,2.97,1.53,5.62,1.53h7.95v10.79h-10.23c-5.83,0-10.3-1.36-13.41-4.09-3.11-2.73-4.66-7.16-4.66-13.29v-34.65h-7.38v-10.57h7.38v-15.56h13.07v15.56h15.22v10.57h-15.22Z" style="fill: #390d1c; stroke-width: 0px;"/>
    <path d="m452.86,591.62c3.75,2.04,6.7,5.08,8.86,9.09,2.16,4.02,3.24,8.86,3.24,14.54v36.92h-12.84v-34.99c0-5.6-1.4-9.9-4.2-12.89-2.8-2.99-6.63-4.49-11.47-4.49s-8.69,1.5-11.53,4.49c-2.84,2.99-4.26,7.29-4.26,12.89v34.99h-12.95v-84.07h12.95v28.74c2.2-2.65,4.98-4.7,8.35-6.13,3.37-1.44,7.06-2.16,11.08-2.16,4.77,0,9.03,1.02,12.78,3.07Z" style="fill: #390d1c; stroke-width: 0px;"/>
    <path d="m563.63,591.62c3.9,2.04,6.97,5.08,9.2,9.09,2.23,4.02,3.35,8.86,3.35,14.54v36.92h-12.84v-34.99c0-5.6-1.4-9.9-4.2-12.89-2.8-2.99-6.63-4.49-11.47-4.49s-8.69,1.5-11.53,4.49c-2.84,2.99-4.26,7.29-4.26,12.89v34.99h-12.84v-34.99c0-5.6-1.4-9.9-4.2-12.89-2.8-2.99-6.63-4.49-11.47-4.49s-8.69,1.5-11.53,4.49c-2.84,2.99-4.26,7.29-4.26,12.89v34.99h-12.95v-62.6h12.95v7.16c2.12-2.57,4.81-4.58,8.07-6.02,3.26-1.44,6.74-2.16,10.45-2.16,5,0,9.47,1.06,13.41,3.18,3.94,2.12,6.97,5.19,9.09,9.2,1.89-3.79,4.85-6.8,8.86-9.03,4.01-2.23,8.33-3.35,12.95-3.35,4.92,0,9.33,1.02,13.24,3.07Z" style="fill: #390d1c; stroke-width: 0px;"/>
    <path d="m585.44,603.89c2.61-4.85,6.17-8.61,10.68-11.3,4.51-2.69,9.49-4.03,14.94-4.03,4.92,0,9.22.96,12.9,2.9,3.67,1.93,6.61,4.34,8.8,7.21v-9.09h13.07v62.6h-13.07v-9.32c-2.2,2.96-5.19,5.42-8.98,7.38-3.79,1.97-8.11,2.96-12.95,2.96-5.38,0-10.3-1.38-14.77-4.15-4.47-2.77-8.01-6.63-10.62-11.59-2.61-4.96-3.92-10.58-3.92-16.87s1.31-11.85,3.92-16.7Zm44.65,5.68c-1.78-3.18-4.11-5.61-6.99-7.27-2.88-1.67-5.98-2.5-9.32-2.5s-6.44.82-9.32,2.44c-2.88,1.63-5.21,4.02-6.99,7.16-1.78,3.14-2.67,6.87-2.67,11.19s.89,8.11,2.67,11.36c1.78,3.26,4.13,5.74,7.04,7.44,2.92,1.71,6,2.56,9.26,2.56s6.44-.83,9.32-2.5c2.88-1.66,5.21-4.11,6.99-7.33,1.78-3.22,2.67-6.99,2.67-11.3s-.89-8.07-2.67-11.25Z" style="fill: #390d1c; stroke-width: 0px;"/>
    <path d="m700.87,591.62c3.9,2.04,6.95,5.08,9.15,9.09,2.2,4.02,3.29,8.86,3.29,14.54v36.92h-12.84v-34.99c0-5.6-1.4-9.9-4.2-12.89-2.8-2.99-6.63-4.49-11.47-4.49s-8.69,1.5-11.53,4.49c-2.84,2.99-4.26,7.29-4.26,12.89v34.99h-12.95v-62.6h12.95v7.16c2.12-2.57,4.83-4.58,8.12-6.02,3.29-1.44,6.8-2.16,10.51-2.16,4.92,0,9.33,1.02,13.24,3.07Z" style="fill: #390d1c; stroke-width: 0px;"/>
    <path d="m722.57,603.89c2.61-4.85,6.17-8.61,10.68-11.3,4.51-2.69,9.52-4.03,15.05-4.03,4.09,0,8.12.89,12.1,2.67,3.98,1.78,7.14,4.15,9.49,7.1v-30.22h13.07v84.07h-13.07v-9.43c-2.12,3.03-5.06,5.53-8.8,7.5-3.75,1.97-8.05,2.96-12.9,2.96-5.45,0-10.43-1.38-14.94-4.15-4.51-2.77-8.07-6.63-10.68-11.59-2.61-4.96-3.92-10.58-3.92-16.87s1.31-11.85,3.92-16.7Zm44.65,5.68c-1.78-3.18-4.11-5.61-6.99-7.27-2.88-1.67-5.98-2.5-9.32-2.5s-6.44.82-9.32,2.44c-2.88,1.63-5.21,4.02-6.99,7.16-1.78,3.14-2.67,6.87-2.67,11.19s.89,8.11,2.67,11.36c1.78,3.26,4.13,5.74,7.04,7.44,2.92,1.71,6,2.56,9.26,2.56s6.44-.83,9.32-2.5c2.88-1.66,5.21-4.11,6.99-7.33,1.78-3.22,2.67-6.99,2.67-11.3s-.89-8.07-2.67-11.25Z" style="fill: #390d1c; stroke-width: 0px;"/>
    <path d="m849.87,589.58v62.6h-12.95v-7.38c-2.04,2.58-4.71,4.6-8.01,6.08-3.29,1.48-6.8,2.22-10.51,2.22-4.92,0-9.34-1.02-13.24-3.07-3.9-2.04-6.97-5.07-9.2-9.09-2.23-4.01-3.35-8.86-3.35-14.54v-36.81h12.84v34.88c0,5.61,1.4,9.9,4.2,12.89,2.8,2.99,6.63,4.49,11.47,4.49s8.69-1.49,11.53-4.49c2.84-2.99,4.26-7.29,4.26-12.89v-34.88h12.95Z" style="fill: #390d1c; stroke-width: 0px;"/>
    <path d="m399.52,672.89v78.96h-12.95v-54.08l-24.09,54.08h-8.98l-24.2-54.08v54.08h-12.95v-78.96h13.97l27.72,61.92,27.61-61.92h13.86Z" style="fill: #390d1c; stroke-width: 0px;"/>
    <path d="m409.35,703.56c2.61-4.85,6.17-8.62,10.68-11.3,4.51-2.69,9.49-4.03,14.94-4.03,4.92,0,9.22.97,12.9,2.9,3.67,1.93,6.61,4.34,8.8,7.21v-9.09h13.07v62.6h-13.07v-9.32c-2.2,2.95-5.19,5.42-8.98,7.38-3.79,1.97-8.11,2.95-12.95,2.95-5.38,0-10.3-1.38-14.77-4.15-4.47-2.76-8.01-6.63-10.62-11.59-2.61-4.96-3.92-10.58-3.92-16.87s1.31-11.85,3.92-16.7Zm44.65,5.68c-1.78-3.18-4.11-5.6-6.99-7.27-2.88-1.67-5.98-2.5-9.32-2.5s-6.44.81-9.32,2.44c-2.88,1.63-5.21,4.02-6.99,7.16-1.78,3.14-2.67,6.87-2.67,11.19s.89,8.11,2.67,11.36c1.78,3.26,4.13,5.74,7.04,7.44,2.92,1.7,6,2.56,9.26,2.56s6.44-.83,9.32-2.5c2.88-1.67,5.21-4.11,6.99-7.33,1.78-3.22,2.67-6.99,2.67-11.3s-.89-8.07-2.67-11.25Z" style="fill: #390d1c; stroke-width: 0px;"/>
    <path d="m524.78,691.29c3.9,2.04,6.95,5.07,9.15,9.09,2.2,4.02,3.29,8.86,3.29,14.54v36.92h-12.84v-34.99c0-5.61-1.4-9.9-4.2-12.9-2.8-2.99-6.63-4.49-11.47-4.49s-8.69,1.5-11.53,4.49c-2.84,2.99-4.26,7.29-4.26,12.9v34.99h-12.95v-62.6h12.95v7.16c2.12-2.57,4.83-4.58,8.12-6.02,3.29-1.44,6.8-2.16,10.51-2.16,4.92,0,9.33,1.02,13.24,3.07Z" style="fill: #390d1c; stroke-width: 0px;"/>
    <path d="m546.48,703.56c2.61-4.85,6.17-8.62,10.68-11.3,4.51-2.69,9.52-4.03,15.05-4.03,4.09,0,8.12.89,12.1,2.67,3.98,1.78,7.14,4.15,9.49,7.1v-30.22h13.07v84.07h-13.07v-9.43c-2.12,3.03-5.06,5.53-8.8,7.5-3.75,1.97-8.05,2.95-12.9,2.95-5.45,0-10.43-1.38-14.94-4.15-4.51-2.76-8.07-6.63-10.68-11.59-2.61-4.96-3.92-10.58-3.92-16.87s1.31-11.85,3.92-16.7Zm44.65,5.68c-1.78-3.18-4.11-5.6-6.99-7.27-2.88-1.67-5.98-2.5-9.32-2.5s-6.44.81-9.32,2.44c-2.88,1.63-5.21,4.02-6.99,7.16-1.78,3.14-2.67,6.87-2.67,11.19s.89,8.11,2.67,11.36c1.78,3.26,4.13,5.74,7.04,7.44,2.92,1.7,6,2.56,9.26,2.56s6.44-.83,9.32-2.5c2.88-1.67,5.21-4.11,6.99-7.33,1.78-3.22,2.67-6.99,2.67-11.3s-.89-8.07-2.67-11.25Z" style="fill: #390d1c; stroke-width: 0px;"/>
    <path d="m616.69,703.56c2.61-4.85,6.17-8.62,10.68-11.3,4.51-2.69,9.49-4.03,14.94-4.03,4.92,0,9.22.97,12.9,2.9,3.67,1.93,6.61,4.34,8.8,7.21v-9.09h13.07v62.6h-13.07v-9.32c-2.2,2.95-5.19,5.42-8.98,7.38-3.79,1.97-8.11,2.95-12.95,2.95-5.38,0-10.3-1.38-14.77-4.15-4.47-2.76-8.01-6.63-10.62-11.59-2.61-4.96-3.92-10.58-3.92-16.87s1.31-11.85,3.92-16.7Zm44.65,5.68c-1.78-3.18-4.11-5.6-6.99-7.27-2.88-1.67-5.98-2.5-9.32-2.5s-6.44.81-9.32,2.44c-2.88,1.63-5.21,4.02-6.99,7.16-1.78,3.14-2.67,6.87-2.67,11.19s.89,8.11,2.67,11.36c1.78,3.26,4.13,5.74,7.04,7.44,2.92,1.7,6,2.56,9.26,2.56s6.44-.83,9.32-2.5c2.88-1.67,5.21-4.11,6.99-7.33,1.78-3.22,2.67-6.99,2.67-11.3s-.89-8.07-2.67-11.25Z" style="fill: #390d1c; stroke-width: 0px;"/>
    <path d="m700.25,667.78v84.07h-12.95v-84.07h12.95Z" style="fill: #390d1c; stroke-width: 0px;"/>
    <path d="m710.07,703.56c2.61-4.85,6.17-8.62,10.68-11.3,4.51-2.69,9.49-4.03,14.94-4.03,4.92,0,9.22.97,12.9,2.9,3.67,1.93,6.61,4.34,8.8,7.21v-9.09h13.07v62.6h-13.07v-9.32c-2.2,2.95-5.19,5.42-8.98,7.38-3.79,1.97-8.11,2.95-12.95,2.95-5.38,0-10.3-1.38-14.77-4.15-4.47-2.76-8.01-6.63-10.62-11.59-2.61-4.96-3.92-10.58-3.92-16.87s1.31-11.85,3.92-16.7Zm44.65,5.68c-1.78-3.18-4.11-5.6-6.99-7.27-2.88-1.67-5.98-2.5-9.32-2.5s-6.44.81-9.32,2.44c-2.88,1.63-5.21,4.02-6.99,7.16-1.78,3.14-2.67,6.87-2.67,11.19s.89,8.11,2.67,11.36c1.78,3.26,4.13,5.74,7.04,7.44,2.92,1.7,6,2.56,9.26,2.56s6.44-.83,9.32-2.5c2.88-1.67,5.21-4.11,6.99-7.33,1.78-3.22,2.67-6.99,2.67-11.3s-.89-8.07-2.67-11.25Z" style="fill: #390d1c; stroke-width: 0px;"/>
  </g>
  <g>
    <path d="m671.44,453.82c.11,10.44.02,20.88.02,32.08-6.52,0-12.7.13-18.87-.17-.71-.04-1.8-2.54-1.83-3.91-.17-9.21-.05-18.41-.13-27.62-.21-27.03-22.54-49.4-49.56-49.56-15.6-.1-31.21-.02-46.81,0-1.36,0-2.73.15-4.38.26-.1,1.77-.24,3.28-.24,4.8-.02,15.14-.05,30.27-.02,45.41.06,28.16,22.31,50.41,50.5,50.56,3.11.02,6.22,0,10.06,0,0-1.96,0-3.6,0-5.26-.02-14.36-.03-28.71-.06-43.07-.02-8.11-3.93-12.1-11.96-12.22-.78,0-1.58.1-2.34-.02-4.35-.64-5.96.85-5.8,5.55.38,10.88.12,21.79.12,32.76-9.4-1.74-18.84-11.69-19.92-22.71-1.1-11.13-.61-22.43-.64-33.65,0-.84,1.33-2.44,2.01-2.43,12.28.27,24.76-.51,36.77,1.49,13.05,2.17,22.08,13.83,22.36,27.15.49,23.71.16,47.43.15,71.15,0,.44-.25.88-.36,1.26-.33.22-.58.54-.82.53-13.54-.18-27.22.69-40.61-.85-20.26-2.33-35.91-13.34-47.71-29.85-.61-.84-1.21-1.68-1.37-1.91h0v-198.89h0c.52-.64.98-1.19,1.4-1.77,13.93-19.02,32.21-29.6,55.35-30.77,1.47-.08,2.97-.11,4.47-.11,9.65.02,19.31,0,29.45,0,.11,2.02.29,3.69.3,5.34.02,21.54.05,43.07.02,64.61-.03,18.35-13.09,31.73-31.34,32.02-8.74.14-17.48-.09-26.22.06-.62,0-1.16-.03-1.62-.12-1.84-.37-2.46-1.6-2.43-3.99.14-9.21-.13-18.42.17-27.62.42-12.84,8.55-23.85,20.22-27.5.12,1.39.34,2.68.34,3.97.03,7.77.18,15.54.08,23.3-.03,2.06-.08,4.13-.14,6.19-.15,4.32,1.34,5.6,5.32,5.06,1.69-.23,3.44.05,5.14-.13,5.2-.54,9.46-4.31,9.5-9.32.12-12.04.06-24.08,0-36.13-.02-4.65-.05-9.3-.06-13.95,0-.11-.18-.24-.27-.36-28.12-4.85-53.07,12.79-58.83,38.86-.83,3.76-1.14,7.71-1.16,11.57-.13,16.37-.05,32.75-.05,49.69,1.87.09,3.51.24,5.15.24,1.85,0,3.69,0,5.54,0,13.29.02,26.59.05,39.87-.02,28.21-.14,50.29-22.29,50.45-50.57.05-8.89.1-17.79-.05-26.68-.05-2.98.8-4.23,3.95-4.11,5.41.2,10.84.05,16.87.05,0,11.12.13,21.69-.02,32.24-.28,18.62-7.08,34.66-19.97,47.99-4.06,4.2-8.83,7.72-12.76,11.11,5.99,5.95,12.6,11.47,17.94,18.03,9.84,12.09,14.64,26.31,14.8,41.95Z" style="fill: #eabf43; stroke-width: 0px;"/>
    <path d="m540.01,294.68v198.89h0c-.17.24-.77,1.08-1.38,1.92-11.8,16.51-27.45,27.52-47.71,29.85-13.39,1.54-27.06.67-40.61.85-.24,0-.49-.31-.82-.53-.11-.38-.36-.82-.36-1.26,0-23.71-.34-47.44.15-71.15.28-13.32,9.31-24.98,22.36-27.15,12.01-1.99,24.49-1.22,36.77-1.49.68-.02,2.01,1.58,2.01,2.43-.04,11.22.45,22.52-.64,33.65-1.08,11.03-10.52,20.97-19.92,22.71,0-10.97-.26-21.88.12-32.76.16-4.7-1.45-6.2-5.79-5.55-.77.11-1.56,0-2.34.02-8.03.12-11.94,4.11-11.96,12.22-.02,14.36-.04,28.71-.06,43.07,0,1.65,0,3.3,0,5.26,3.84,0,6.95.02,10.06,0,28.19-.14,50.44-22.4,50.5-50.56.03-15.14,0-30.27-.02-45.41,0-1.52-.14-3.03-.24-4.8-1.65-.11-3.01-.26-4.38-.26-15.61-.02-31.21-.1-46.81,0-27.03.17-49.35,22.54-49.56,49.56-.08,9.21.05,18.41-.13,27.62-.02,1.37-1.12,3.88-1.83,3.91-6.17.3-12.35.17-18.87.17,0-11.19-.08-21.64.02-32.08.16-15.64,4.96-29.86,14.8-41.95,5.34-6.56,11.95-12.08,17.94-18.03-3.93-3.39-8.71-6.91-12.76-11.11-12.89-13.34-19.69-29.38-19.97-47.99-.15-10.55-.02-21.11-.02-32.24,6.03,0,11.46.14,16.87-.05,3.15-.12,4,1.13,3.95,4.11-.14,8.89-.09,17.79-.04,26.68.15,28.29,22.23,50.44,50.44,50.57,14.96.08,29.92.03,44.89.02h.53c1.64,0,3.28-.15,5.16-.24,0-16.93.07-33.31-.06-49.69-.02-3.86-.33-7.81-1.16-11.57-5.76-26.07-30.71-43.71-58.83-38.86-.09.11-.27.24-.27.36,0,1.77-.02,3.56-.02,5.33-.06,14.92-.19,29.83-.04,44.75.05,5.01,4.3,8.78,9.5,9.32,1.7.18,3.45-.1,5.14.13,3.98.54,5.48-.74,5.32-5.06-.17-4.97-.2-9.95-.17-14.92.02-4.86.08-9.71.11-14.57,0-1.29.22-2.58.35-3.97,11.66,3.65,19.78,14.66,20.21,27.5.3,9.03.04,18.08.17,27.12,0,.17,0,.33,0,.5.05,2.98-.93,4.16-4.04,4.11-8.74-.15-17.48.08-26.22-.06-18.25-.29-31.31-13.67-31.33-32.02-.03-21.54,0-43.07.02-64.61,0-1.65.18-3.31.3-5.34,10.14,0,19.79,0,29.45,0,1.51,0,3,.03,4.47.11,23.14,1.17,41.42,11.75,55.35,30.77.42.58.89,1.14,1.41,1.77Z" style="fill: #eabf43; stroke-width: 0px;"/>
  </g>
</svg>