<?xml version="1.0" encoding="UTF-8"?>
<svg id="Layer_2" data-name="Layer 2" xmlns="http://www.w3.org/2000/svg" viewBox="0 0 870.06 250.16">
  <g id="Layer_1-2" data-name="Layer 1">
    <g>
      <g>
        <path d="m330.56,116.04l-28.96-33.48v33.48h-12.27V41.23h12.27v34.12l29.06-34.12h15.39l-32.51,37.46,33.05,37.35h-16.04Z" style="fill: #390d1c; stroke-width: 0px;"/>
        <path d="m350.64,70.29c2.48-4.59,5.85-8.16,10.12-10.71,4.27-2.55,8.99-3.82,14.15-3.82,4.66,0,8.74.91,12.22,2.74s6.26,4.11,8.34,6.84v-8.61h12.38v59.31h-12.38v-8.83c-2.08,2.8-4.92,5.13-8.5,7-3.59,1.87-7.68,2.8-12.27,2.8-5.1,0-9.76-1.31-13.99-3.93-4.23-2.62-7.59-6.28-10.06-10.98-2.47-4.7-3.71-10.03-3.71-15.98s1.24-11.23,3.71-15.82Zm42.3,5.38c-1.69-3.01-3.89-5.31-6.62-6.89-2.73-1.58-5.67-2.37-8.83-2.37s-6.1.77-8.83,2.31c-2.73,1.54-4.94,3.8-6.62,6.78-1.69,2.98-2.53,6.51-2.53,10.6s.84,7.68,2.53,10.76c1.68,3.09,3.91,5.44,6.67,7.05,2.76,1.62,5.69,2.42,8.77,2.42s6.1-.79,8.83-2.37c2.73-1.58,4.93-3.89,6.62-6.94,1.68-3.05,2.53-6.62,2.53-10.71s-.84-7.64-2.53-10.66Z" style="fill: #390d1c; stroke-width: 0px;"/>
        <path d="m431.85,66.74v32.83c0,2.23.52,3.82,1.56,4.79,1.04.97,2.82,1.45,5.33,1.45h7.53v10.23h-9.69c-5.53,0-9.76-1.29-12.7-3.87-2.94-2.58-4.41-6.78-4.41-12.59v-32.83h-7v-10.01h7v-14.75h12.38v14.75h14.42v10.01h-14.42Z" style="fill: #390d1c; stroke-width: 0px;"/>
        <path d="m493.91,58.67c3.55,1.94,6.35,4.81,8.4,8.61,2.04,3.8,3.07,8.4,3.07,13.78v34.98h-12.16v-33.15c0-5.31-1.33-9.38-3.98-12.22-2.66-2.83-6.28-4.25-10.87-4.25s-8.23,1.42-10.92,4.25c-2.69,2.84-4.04,6.91-4.04,12.22v33.15h-12.27V36.39h12.27v27.23c2.08-2.51,4.72-4.45,7.91-5.81,3.19-1.36,6.69-2.05,10.49-2.05,4.52,0,8.56.97,12.11,2.91Z" style="fill: #390d1c; stroke-width: 0px;"/>
        <path d="m598.86,58.67c3.7,1.94,6.6,4.81,8.72,8.61,2.12,3.8,3.18,8.4,3.18,13.78v34.98h-12.16v-33.15c0-5.31-1.33-9.38-3.98-12.22-2.65-2.83-6.28-4.25-10.87-4.25s-8.23,1.42-10.93,4.25c-2.69,2.84-4.04,6.91-4.04,12.22v33.15h-12.16v-33.15c0-5.31-1.33-9.38-3.98-12.22-2.66-2.83-6.28-4.25-10.87-4.25s-8.23,1.42-10.93,4.25c-2.69,2.84-4.04,6.91-4.04,12.22v33.15h-12.27v-59.31h12.27v6.78c2.01-2.44,4.56-4.34,7.64-5.7,3.08-1.36,6.39-2.05,9.9-2.05,4.74,0,8.97,1.01,12.7,3.01,3.73,2.01,6.6,4.92,8.61,8.72,1.79-3.59,4.59-6.44,8.39-8.56,3.8-2.12,7.89-3.18,12.27-3.18,4.66,0,8.84.97,12.54,2.91Z" style="fill: #390d1c; stroke-width: 0px;"/>
        <path d="m619.52,70.29c2.48-4.59,5.85-8.16,10.12-10.71,4.27-2.55,8.99-3.82,14.15-3.82,4.66,0,8.74.91,12.22,2.74s6.26,4.11,8.34,6.84v-8.61h12.38v59.31h-12.38v-8.83c-2.08,2.8-4.92,5.13-8.5,7-3.59,1.87-7.68,2.8-12.27,2.8-5.1,0-9.76-1.31-13.99-3.93-4.23-2.62-7.59-6.28-10.06-10.98-2.47-4.7-3.71-10.03-3.71-15.98s1.24-11.23,3.71-15.82Zm42.3,5.38c-1.69-3.01-3.89-5.31-6.62-6.89-2.73-1.58-5.67-2.37-8.83-2.37s-6.1.77-8.83,2.31c-2.73,1.54-4.94,3.8-6.62,6.78-1.69,2.98-2.53,6.51-2.53,10.6s.84,7.68,2.53,10.76c1.68,3.09,3.91,5.44,6.67,7.05,2.76,1.62,5.69,2.42,8.77,2.42s6.1-.79,8.83-2.37c2.73-1.58,4.93-3.89,6.62-6.94,1.68-3.05,2.53-6.62,2.53-10.71s-.84-7.64-2.53-10.66Z" style="fill: #390d1c; stroke-width: 0px;"/>
        <path d="m728.89,58.67c3.7,1.94,6.58,4.81,8.66,8.61,2.08,3.8,3.12,8.4,3.12,13.78v34.98h-12.16v-33.15c0-5.31-1.33-9.38-3.98-12.22-2.66-2.83-6.28-4.25-10.87-4.25s-8.23,1.42-10.92,4.25c-2.69,2.84-4.04,6.91-4.04,12.22v33.15h-12.27v-59.31h12.27v6.78c2.01-2.44,4.57-4.34,7.7-5.7,3.12-1.36,6.44-2.05,9.96-2.05,4.66,0,8.84.97,12.54,2.91Z" style="fill: #390d1c; stroke-width: 0px;"/>
        <path d="m749.44,70.29c2.48-4.59,5.85-8.16,10.12-10.71,4.27-2.55,9.02-3.82,14.26-3.82,3.87,0,7.7.84,11.46,2.53,3.77,1.69,6.76,3.93,8.99,6.73v-28.63h12.38v79.65h-12.38v-8.93c-2.01,2.87-4.79,5.24-8.34,7.1s-7.63,2.8-12.22,2.8c-5.17,0-9.89-1.31-14.15-3.93-4.27-2.62-7.64-6.28-10.12-10.98-2.48-4.7-3.71-10.03-3.71-15.98s1.24-11.23,3.71-15.82Zm42.3,5.38c-1.69-3.01-3.89-5.31-6.62-6.89-2.73-1.58-5.67-2.37-8.83-2.37s-6.1.77-8.83,2.31c-2.73,1.54-4.93,3.8-6.62,6.78-1.69,2.98-2.53,6.51-2.53,10.6s.84,7.68,2.53,10.76c1.69,3.09,3.91,5.44,6.67,7.05,2.76,1.62,5.69,2.42,8.77,2.42s6.1-.79,8.83-2.37c2.73-1.58,4.93-3.89,6.62-6.94,1.69-3.05,2.53-6.62,2.53-10.71s-.84-7.64-2.53-10.66Z" style="fill: #390d1c; stroke-width: 0px;"/>
        <path d="m870.06,56.73v59.31h-12.27v-7c-1.94,2.44-4.47,4.36-7.59,5.76-3.12,1.4-6.44,2.1-9.96,2.1-4.67,0-8.85-.97-12.54-2.91-3.7-1.94-6.6-4.81-8.72-8.61-2.12-3.8-3.17-8.4-3.17-13.78v-34.88h12.16v33.05c0,5.31,1.33,9.38,3.98,12.22,2.65,2.84,6.28,4.25,10.87,4.25s8.23-1.42,10.92-4.25c2.69-2.83,4.04-6.91,4.04-12.22v-33.05h12.27Z" style="fill: #390d1c; stroke-width: 0px;"/>
        <path d="m368.13,135.66v74.81h-12.27v-51.24l-22.82,51.24h-8.5l-22.93-51.24v51.24h-12.27v-74.81h13.24l26.26,58.66,26.16-58.66h13.13Z" style="fill: #390d1c; stroke-width: 0px;"/>
        <path d="m377.44,164.72c2.48-4.59,5.85-8.16,10.12-10.71,4.27-2.55,8.99-3.82,14.15-3.82,4.66,0,8.74.91,12.22,2.74,3.48,1.83,6.26,4.11,8.34,6.84v-8.61h12.38v59.31h-12.38v-8.83c-2.08,2.8-4.92,5.13-8.5,7-3.59,1.87-7.68,2.8-12.27,2.8-5.1,0-9.76-1.31-13.99-3.93-4.24-2.62-7.59-6.28-10.06-10.98-2.48-4.7-3.71-10.03-3.71-15.98s1.24-11.23,3.71-15.82Zm42.3,5.38c-1.69-3.01-3.89-5.31-6.62-6.89-2.73-1.58-5.67-2.37-8.83-2.37s-6.1.77-8.83,2.31c-2.73,1.54-4.93,3.8-6.62,6.78-1.69,2.98-2.53,6.51-2.53,10.6s.84,7.68,2.53,10.76c1.69,3.09,3.91,5.44,6.67,7.05,2.76,1.62,5.69,2.42,8.77,2.42s6.1-.79,8.83-2.37c2.73-1.58,4.93-3.89,6.62-6.94,1.69-3.05,2.53-6.62,2.53-10.71s-.84-7.64-2.53-10.66Z" style="fill: #390d1c; stroke-width: 0px;"/>
        <path d="m486.8,153.1c3.7,1.94,6.58,4.81,8.67,8.61,2.08,3.8,3.12,8.4,3.12,13.78v34.98h-12.16v-33.15c0-5.31-1.33-9.38-3.98-12.22-2.66-2.83-6.28-4.25-10.87-4.25s-8.23,1.42-10.93,4.25c-2.69,2.84-4.04,6.91-4.04,12.22v33.15h-12.27v-59.31h12.27v6.78c2.01-2.44,4.57-4.34,7.7-5.7,3.12-1.36,6.44-2.05,9.96-2.05,4.66,0,8.84.97,12.54,2.91Z" style="fill: #390d1c; stroke-width: 0px;"/>
        <path d="m507.36,164.72c2.48-4.59,5.85-8.16,10.12-10.71,4.27-2.55,9.02-3.82,14.26-3.82,3.87,0,7.7.84,11.46,2.53,3.77,1.69,6.76,3.93,8.99,6.73v-28.63h12.38v79.65h-12.38v-8.93c-2.01,2.87-4.79,5.24-8.34,7.1-3.55,1.87-7.63,2.8-12.22,2.8-5.17,0-9.89-1.31-14.15-3.93-4.27-2.62-7.64-6.28-10.12-10.98-2.47-4.7-3.71-10.03-3.71-15.98s1.24-11.23,3.71-15.82Zm42.3,5.38c-1.69-3.01-3.89-5.31-6.62-6.89-2.73-1.58-5.67-2.37-8.83-2.37s-6.1.77-8.83,2.31c-2.73,1.54-4.94,3.8-6.62,6.78-1.69,2.98-2.53,6.51-2.53,10.6s.84,7.68,2.53,10.76c1.68,3.09,3.91,5.44,6.67,7.05,2.76,1.62,5.69,2.42,8.77,2.42s6.1-.79,8.83-2.37c2.73-1.58,4.93-3.89,6.62-6.94,1.68-3.05,2.53-6.62,2.53-10.71s-.84-7.64-2.53-10.66Z" style="fill: #390d1c; stroke-width: 0px;"/>
        <path d="m573.88,164.72c2.48-4.59,5.85-8.16,10.12-10.71,4.27-2.55,8.99-3.82,14.15-3.82,4.66,0,8.74.91,12.22,2.74,3.48,1.83,6.26,4.11,8.34,6.84v-8.61h12.38v59.31h-12.38v-8.83c-2.08,2.8-4.92,5.13-8.5,7-3.59,1.87-7.68,2.8-12.27,2.8-5.1,0-9.76-1.31-13.99-3.93-4.24-2.62-7.59-6.28-10.06-10.98-2.48-4.7-3.71-10.03-3.71-15.98s1.24-11.23,3.71-15.82Zm42.3,5.38c-1.69-3.01-3.89-5.31-6.62-6.89-2.73-1.58-5.67-2.37-8.83-2.37s-6.1.77-8.83,2.31c-2.73,1.54-4.93,3.8-6.62,6.78-1.69,2.98-2.53,6.51-2.53,10.6s.84,7.68,2.53,10.76c1.69,3.09,3.91,5.44,6.67,7.05,2.76,1.62,5.69,2.42,8.77,2.42s6.1-.79,8.83-2.37c2.73-1.58,4.93-3.89,6.62-6.94,1.69-3.05,2.53-6.62,2.53-10.71s-.84-7.64-2.53-10.66Z" style="fill: #390d1c; stroke-width: 0px;"/>
        <path d="m653.05,130.82v79.65h-12.27v-79.65h12.27Z" style="fill: #390d1c; stroke-width: 0px;"/>
        <path d="m662.36,164.72c2.48-4.59,5.85-8.16,10.12-10.71,4.27-2.55,8.99-3.82,14.15-3.82,4.66,0,8.74.91,12.22,2.74,3.48,1.83,6.26,4.11,8.34,6.84v-8.61h12.38v59.31h-12.38v-8.83c-2.08,2.8-4.92,5.13-8.5,7-3.59,1.87-7.68,2.8-12.27,2.8-5.1,0-9.76-1.31-13.99-3.93-4.24-2.62-7.59-6.28-10.06-10.98-2.48-4.7-3.71-10.03-3.71-15.98s1.24-11.23,3.71-15.82Zm42.3,5.38c-1.69-3.01-3.89-5.31-6.62-6.89-2.73-1.58-5.67-2.37-8.83-2.37s-6.1.77-8.83,2.31c-2.73,1.54-4.93,3.8-6.62,6.78-1.69,2.98-2.53,6.51-2.53,10.6s.84,7.68,2.53,10.76c1.69,3.09,3.91,5.44,6.67,7.05,2.76,1.62,5.69,2.42,8.77,2.42s6.1-.79,8.83-2.37c2.73-1.58,4.93-3.89,6.62-6.94,1.69-3.05,2.53-6.62,2.53-10.71s-.84-7.64-2.53-10.66Z" style="fill: #390d1c; stroke-width: 0px;"/>
      </g>
      <g>
        <path d="m140.81,78.17c.43-2.63.18-5.28-1.1-7.68-2.31,1.44-3.87,3.62-4.8,6.12.3-5.21,2.27-10.31,6.66-13.05h0c2.43,4.56,1.59,9.96-.76,14.62Z" style="fill: #db9b09; stroke-width: 0px;"/>
        <path d="m170.12,170.12c-5.17-.18-9.43-3.61-12.29-7.98,2.06,1.7,4.5,2.81,7.22,2.9-.09-2.72-1.2-5.16-2.9-7.22,4.37,2.86,7.8,7.12,7.97,12.29Z" style="fill: #db9b09; stroke-width: 0px;"/>
        <path d="m125.08,211.78c4.26-3.12,7.03-8.12,6.75-13.51-.15-2.82-1.04-5.62-2.59-7.98-1.15-1.75-2.61-3-4.17-4.18h0c-1.56,1.18-3.02,2.42-4.17,4.18-1.55,2.36-2.44,5.16-2.59,7.98-.28,5.39,2.49,10.39,6.75,13.51Zm-2.78-14.65c.38-2.41,1.41-4.19,2.78-5.72,1.37,1.52,2.4,3.3,2.78,5.72.55,3.48-.58,6.88-2.78,9.45-2.2-2.58-3.34-5.97-2.78-9.45Z" style="fill: #db9b09; stroke-width: 0px;"/>
        <path d="m170.12,80.04c-.18,5.17-3.61,9.42-7.97,12.29,1.7-2.06,2.81-4.5,2.9-7.22-2.73.1-5.16,1.21-7.23,2.92,2.86-4.37,7.12-7.81,12.3-7.99Z" style="fill: #db9b09; stroke-width: 0px;"/>
        <path d="m168.43,200.17c2.13-4.83,2.03-10.55-.91-15.08-1.54-2.37-3.71-4.35-6.23-5.62-1.87-.94-3.76-1.29-5.7-1.53h0c-.76,1.8-1.4,3.61-1.52,5.7-.16,2.82.47,5.69,1.75,8.2,2.46,4.81,7.35,7.75,12.6,8.32Zm-10.18-17.63c1.95.63,3.73,1.66,5.27,3.56,2.22,2.74,2.94,6.25,2.32,9.58-3.2-1.13-5.88-3.5-7.14-6.8-.87-2.28-.87-4.34-.45-6.34Z" style="fill: #db9b09; stroke-width: 0px;"/>
        <path d="m65.07,167.53c2.37-1.53,4.35-3.71,5.62-6.23.94-1.87,1.29-3.76,1.53-5.7h0c-1.8-.76-3.61-1.4-5.7-1.52-2.82-.16-5.69.47-8.2,1.75-4.81,2.46-7.75,7.35-8.32,12.6,4.83,2.13,10.55,2.03,15.08-.91Zm-3.79-8.83c2.28-.87,4.34-.87,6.34-.45-.63,1.95-1.66,3.73-3.56,5.27-2.74,2.22-6.25,2.94-9.58,2.32,1.13-3.2,3.5-5.87,6.8-7.14Z" style="fill: #db9b09; stroke-width: 0px;"/>
        <path d="m186.61,108.6c-2.74,4.39-7.85,6.36-13.06,6.66,2.5-.94,4.69-2.49,6.13-4.8-2.41-1.28-5.07-1.54-7.7-1.1,4.67-2.35,10.07-3.19,14.64-.75Z" style="fill: #db9b09; stroke-width: 0px;"/>
        <path d="m141.57,186.6c-4.39-2.74-6.36-7.84-6.67-13.05.94,2.5,2.5,4.68,4.8,6.12,1.28-2.4,1.53-5.06,1.1-7.69,2.35,4.66,3.19,10.05.76,14.62Z" style="fill: #db9b09; stroke-width: 0px;"/>
        <path d="m76.61,115.26c-5.21-.29-10.32-2.27-13.06-6.66,4.56-2.43,9.96-1.59,14.62.75-2.63-.43-5.29-.18-7.69,1.1,1.44,2.31,3.62,3.87,6.12,4.8Z" style="fill: #db9b09; stroke-width: 0px;"/>
        <path d="m92.34,162.14c-2.86,4.37-7.12,7.81-12.3,7.98.18-5.18,3.62-9.44,7.98-12.3-1.7,2.06-2.81,4.5-2.9,7.23,2.73-.1,5.16-1.21,7.22-2.91Z" style="fill: #db9b09; stroke-width: 0px;"/>
        <path d="m186.61,141.56c-4.57,2.44-9.97,1.59-14.64-.75,2.63.44,5.3.18,7.7-1.1-1.44-2.31-3.62-3.87-6.12-4.8,5.21.3,10.31,2.27,13.05,6.66Z" style="fill: #db9b09; stroke-width: 0px;"/>
        <path d="m94.33,191.84c1.28-2.51,1.91-5.38,1.75-8.2-.12-2.09-.76-3.9-1.52-5.7-1.94.24-3.82.59-5.7,1.53-2.52,1.27-4.7,3.25-6.23,5.62-2.94,4.53-3.04,10.24-.91,15.08,5.25-.57,10.15-3.51,12.6-8.32Zm-7.69-5.75c1.54-1.9,3.32-2.93,5.27-3.56h0c.42,2,.43,4.06-.45,6.34-1.26,3.29-3.94,5.67-7.14,6.8-.62-3.33.1-6.84,2.32-9.58Z" style="fill: #db9b09; stroke-width: 0px;"/>
        <path d="m115.25,173.58c-.3,5.2-2.27,10.3-6.65,13.04-2.43-4.57-1.59-9.97.75-14.63-.43,2.63-.18,5.29,1.1,7.69h0c2.3-1.44,3.85-3.61,4.79-6.1Z" style="fill: #db9b09; stroke-width: 0px;"/>
        <path d="m125.08,38.38c-4.26,3.12-7.03,8.12-6.75,13.51.15,2.82,1.04,5.62,2.59,7.98,1.15,1.75,2.61,3,4.17,4.18,1.56-1.18,3.02-2.42,4.17-4.18,1.55-2.36,2.44-5.16,2.59-7.98.28-5.39-2.49-10.39-6.75-13.51Zm2.78,14.64c-.38,2.41-1.41,4.19-2.78,5.72-1.37-1.52-2.4-3.3-2.78-5.72-.55-3.48.58-6.88,2.78-9.45,2.2,2.58,3.34,5.97,2.78,9.45Z" style="fill: #db9b09; stroke-width: 0px;"/>
        <path d="m78.18,140.81c-4.66,2.35-10.05,3.19-14.62.75,2.74-4.39,7.85-6.36,13.06-6.66-2.5.94-4.68,2.49-6.12,4.8,2.4,1.28,5.06,1.53,7.69,1.1Z" style="fill: #db9b09; stroke-width: 0px;"/>
        <path d="m201.58,150.97s-.03-.02-.05-.03c-1.72-1.58-3.66-2.95-5.71-4.14,1.9-.41,3.81-.83,5.71-1.24l-8.19-2.19c-1.24.27-2.47.54-3.71.81-7.92,1.72-20.11,5.21-25.02-3.82-.3-.56-.75-.84-1.22-.93-.05-.02-.09-.04-.14-.05-1.1-.27-1.96.4-2.35,1.38-.53,1.34-1.21,2.64-1.99,3.87-.67,1.29-1.46,2.52-2.36,3.66-.65.82-.8,1.91-.02,2.72.03.03.08.06.11.09.31.36.78.6,1.42.59,10.28-.26,13.35,12.03,15.82,19.75.38,1.2.77,2.41,1.15,3.61l6,6c-.59-1.86-1.18-3.71-1.78-5.57,2.05,1.18,4.21,2.18,6.44,2.88.02,0,.03.02.05.03,6.82,3.4,9.09,9.86,9.39,16.76l.3.3-.3-.3c-6.9-.3-13.36-2.57-16.76-9.39,0-.02-.02-.03-.03-.05-.69-2.23-1.7-4.39-2.88-6.44,1.85.59,3.71,1.19,5.57,1.78l-6-5.99c-1.2-.38-2.41-.77-3.61-1.15-7.72-2.47-20.02-5.54-19.76-15.82.02-.63-.22-1.1-.59-1.42-.03-.04-.06-.08-.09-.11-.81-.78-1.9-.63-2.72.02-1.13.9-2.37,1.69-3.66,2.36-1.23.78-2.53,1.45-3.87,1.99-.97.39-1.65,1.25-1.38,2.35.01.05.04.09.05.14.09.47.38.91.93,1.22,9.03,4.91,5.55,17.1,3.82,25.02-.27,1.24-.54,2.47-.81,3.71-.85-.94-1.7-1.87-2.55-2.81-5.45-6-14.56-14.81-9.2-23.58.33-.54.36-1.07.2-1.52,0-.05-.01-.1-.02-.15-.31-1.09-1.33-1.5-2.37-1.35-1.43.21-2.89.28-4.35.22h0c-1.45.06-2.92,0-4.35-.22-1.04-.15-2.06.26-2.37,1.35-.01.05-.02.1-.02.15-.16.45-.13.98.2,1.52,5.36,8.77-3.74,17.58-9.2,23.58-.85.94-1.7,1.87-2.55,2.81-.27-1.24-.54-2.47-.81-3.71-1.72-7.92-5.21-20.11,3.82-25.02.56-.3.84-.74.93-1.22.02-.05.04-.09.05-.14.27-1.1-.4-1.96-1.38-2.35-1.34-.53-2.64-1.21-3.87-1.99-1.29-.67-2.53-1.46-3.66-2.36-.82-.65-1.91-.8-2.72-.02-.03.03-.06.08-.09.11-.36.31-.6.78-.59,1.42.26,10.28-12.03,13.35-19.75,15.82-1.2.38-2.41.77-3.61,1.15.38-1.2.77-2.41,1.15-3.61,2.47-7.72,5.54-20.01,15.82-19.75.63.02,1.1-.22,1.42-.59.04-.03.08-.06.11-.09.78-.81.63-1.9-.02-2.72-.9-1.13-1.69-2.37-2.36-3.66-.78-1.23-1.45-2.53-1.99-3.87-.39-.97-1.25-1.65-2.35-1.38-.05.01-.09.04-.14.05-.47.09-.91.38-1.22.93-4.91,9.03-17.1,5.55-25.02,3.82-1.24-.27-2.47-.54-3.71-.81l-8.19,2.19c1.9.42,3.81.83,5.71,1.24-2.05,1.19-4,2.55-5.71,4.13-.02.01-.03.02-.05.03-6.35,4.21-13.08,2.95-19.21-.24l-.41.11-4.73,1.27-.06.02c-5.92,10.82-6.78,23.36-7.41,35.5h0c10.83,5.53,22.12,11.05,34.45,11.33l.04-.04-.04.04c.28,12.33,5.81,23.62,11.33,34.45,12.14-.63,24.68-1.49,35.5-7.41l.02-.06v.06c6.4,10.54,16.82,17.55,27.02,24.17,10.2-6.62,20.63-13.63,27.04-24.17h0c10.82,5.93,23.36,6.78,35.5,7.41,5.53-10.83,11.05-22.12,11.33-34.45,12.33-.28,23.62-5.81,34.45-11.33-.63-12.14-1.49-24.68-7.41-35.5l-.06-.02-4.73-1.27-.41-.11c-6.13,3.19-12.86,4.45-19.21.24Zm-23.72,45.45c.37-1.21.69-2.4.91-3.57,2.41,2.37,5.33,3.91,8.52,4.85.31,4.26-1.23,9.02-2.59,12.91-1.17,3.34-2.67,6.68-4.69,9.63-3.56.27-7.21-.1-10.68-.76-4.05-.77-8.94-1.82-12.47-4.21.78-3.23.91-6.53.06-9.81,1.12.4,2.31.72,3.55,1,4.45,1.01,8.89,2.02,13.34,3.03,1.35-4.36,2.7-8.71,4.04-13.07Zm-32.92-33.28c.54-.29,1.07-.59,1.58-.92.54-.29,1.07-.59,1.59-.91,1.63,8.02,10.03,12.29,17.43,14.74,1.39.46,2.79.91,4.18,1.36,2.18,3.13,4.28,6.61,5.21,10.33.93,3.7-.68,7.28-1.76,10.78-.66,2.14-1.33,4.29-1.99,6.43-2.19-.5-4.38-.99-6.56-1.49-3.57-.81-7.48-1.21-10.21-3.87-2.75-2.67-4.72-6.23-6.34-9.68.3-1.43.61-2.87.91-4.3,1.59-7.63,2.09-17.04-4.05-22.46Zm-32.36,29.58c.98-1.09,1.97-2.18,2.94-3.27,5.19-5.82,10.33-13.71,7.73-21.48.61.02,1.22.02,1.83,0,.61.02,1.22.02,1.83,0-2.6,7.76,2.54,15.66,7.73,21.48.98,1.09,1.96,2.18,2.94,3.27.32,3.8.4,7.87-.65,11.55-1.04,3.67-4.23,5.97-6.91,8.46l-4.94,4.57c-1.65-1.52-3.29-3.05-4.94-4.57-2.68-2.49-5.87-4.79-6.91-8.46-1.05-3.69-.97-7.76-.65-11.55Zm-.11,17.89c.77.91,1.64,1.78,2.57,2.64,3.34,3.1,6.69,6.2,10.04,9.29,3.35-3.1,6.69-6.19,10.04-9.29.93-.87,1.8-1.73,2.57-2.64.9,3.26,2.66,6.05,4.96,8.47-1.86,3.84-5.57,7.2-8.69,9.89-2.68,2.31-5.65,4.45-8.87,5.99-3.22-1.55-6.19-3.69-8.87-5.99-3.12-2.69-6.83-6.04-8.69-9.89,2.3-2.41,4.05-5.21,4.96-8.47Zm-37.25-22.87c.93-3.72,3.03-7.2,5.21-10.33,1.39-.45,2.79-.9,4.18-1.36,7.41-2.44,15.81-6.71,17.43-14.74.52.32,1.05.63,1.59.91.52.32,1.05.63,1.58.92-6.14,5.42-5.63,14.83-4.04,22.47.3,1.44.61,2.87.91,4.3-1.62,3.45-3.59,7.01-6.34,9.68-2.74,2.65-6.65,3.06-10.21,3.87-2.19.5-4.38.99-6.56,1.49h0c-.66-2.14-1.33-4.29-1.99-6.43-1.08-3.5-2.69-7.08-1.76-10.78Zm18.07,27.53c-3.53,2.4-8.42,3.45-12.47,4.22-3.47.66-7.11,1.03-10.68.76-2.02-2.95-3.52-6.29-4.69-9.63-1.36-3.89-2.89-8.65-2.59-12.91,3.19-.94,6.11-2.48,8.52-4.85.21,1.17.53,2.36.91,3.57,1.34,4.36,2.7,8.71,4.05,13.07,4.45-1.01,8.89-2.02,13.34-3.03,1.24-.28,2.42-.6,3.55-1-.85,3.27-.72,6.57.06,9.81Zm-46.59-50.64c.81-3.57,1.21-7.48,3.87-10.21,2.67-2.75,6.23-4.72,9.68-6.34,1.43.3,2.87.61,4.3.91,7.63,1.59,17.04,2.09,22.46-4.04.29.54.59,1.06.92,1.58.29.54.59,1.07.91,1.59-8.02,1.63-12.29,10.03-14.74,17.43-.46,1.39-.91,2.79-1.36,4.18-3.13,2.18-6.61,4.28-10.33,5.21-3.7.93-7.28-.68-10.78-1.76-2.14-.66-4.29-1.33-6.43-1.99.5-2.19.99-4.38,1.49-6.56Zm4.55,30.47c-10.9-.28-20.89-4.9-30.52-9.77.59-10.77,1.59-21.74,6.8-31.32,1.2.63,2.41,1.19,3.65,1.67-2.23,3.83-3.41,8.43-4.22,12.66-.85,4.47-1.3,9.22-.7,13.79,3.66,2.81,8,4.79,12.3,6.29,4.07,1.42,8.64,2.7,13.07,2.68-.2,1.31-.32,2.65-.38,4Zm-11.7-10.39c-3.34-1.17-6.68-2.67-9.63-4.69-.27-3.56.1-7.21.76-10.68.77-4.05,1.82-8.94,4.21-12.47,3.23.78,6.53.91,9.81.06-.4,1.12-.72,2.31-1,3.55-1.01,4.45-2.02,8.89-3.03,13.34,4.36,1.35,8.71,2.7,13.07,4.04,1.21.37,2.4.69,3.57.91-2.37,2.41-3.91,5.33-4.85,8.52-4.26.31-9.02-1.23-12.91-2.59Zm24.86-6.32s.03-.02.05-.03c2.23-.69,4.39-1.7,6.44-2.88-.59,1.85-1.19,3.71-1.78,5.57,1.86-.59,3.71-1.18,5.57-1.78-1.18,2.05-2.18,4.21-2.88,6.44,0,.02-.02.03-.03.05-3.4,6.82-9.86,9.09-16.76,9.39.3-6.9,2.57-13.36,9.39-16.76Zm.43,51.04c-4.87-9.63-9.5-19.62-9.77-30.52,1.35-.06,2.69-.18,4-.38-.02,4.43,1.26,9,2.68,13.07,1.5,4.29,3.48,8.64,6.29,12.3,4.57.6,9.32.15,13.79-.7,4.23-.8,8.83-1.99,12.66-4.22.48,1.23,1.05,2.45,1.67,3.65-9.58,5.21-20.54,6.2-31.32,6.8Zm34.49-8.22l.11-.41c-3.19-6.13-4.45-12.86-.24-19.21.01-.02.02-.03.03-.05,1.58-1.72,2.95-3.67,4.14-5.71.41,1.9.83,3.81,1.24,5.71,1.31-1.44,2.62-2.88,3.93-4.32,0,2.37.21,4.74.73,7.01,0,.02,0,.04,0,.06.47,7.61-3.99,12.8-9.82,16.52l-.11.41Zm25.76,24.36c-9.03-5.9-18.03-12.25-23.72-21.54,1.14-.72,2.24-1.5,3.27-2.32,2.2,3.84,5.59,7.17,8.86,9.98,3.45,2.97,7.33,5.74,11.59,7.5h0c4.26-1.76,8.15-4.54,11.59-7.5,3.27-2.81,6.66-6.14,8.86-9.98,1.03.83,2.13,1.6,3.27,2.32-5.69,9.3-14.69,15.64-23.72,21.54Zm25.65-24.78l.11.41,1.27,4.73v.03s0-.03,0-.03l-1.27-4.73-.11-.41c-5.83-3.71-10.29-8.91-9.82-16.52,0-.02,0-.04,0-.06.51-2.28.72-4.65.73-7.01,1.31,1.44,2.62,2.88,3.93,4.32.42-1.9.83-3.81,1.24-5.71,1.19,2.05,2.55,4,4.14,5.71.01.02.02.03.03.05,4.21,6.35,2.95,13.08-.24,19.21Zm34.6,8.64c-10.77-.59-21.74-1.59-31.32-6.8.63-1.2,1.19-2.41,1.67-3.65,3.83,2.23,8.43,3.41,12.66,4.22,4.47.85,9.22,1.3,13.79.7,2.81-3.66,4.79-8,6.29-12.3,1.42-4.07,2.7-8.64,2.68-13.07,1.31.2,2.65.32,4,.38-.28,10.9-4.9,20.89-9.77,30.52Zm2.41-54.49c-3.72-.93-7.2-3.03-10.33-5.21-.45-1.39-.9-2.79-1.36-4.18-2.44-7.41-6.71-15.81-14.74-17.43.32-.52.63-1.05.91-1.59.32-.52.63-1.05.92-1.58,5.42,6.14,14.83,5.63,22.46,4.04,1.44-.3,2.87-.61,4.3-.91,3.45,1.62,7.01,3.59,9.68,6.34,2.65,2.74,3.06,6.65,3.87,10.21.5,2.19.99,4.38,1.49,6.56-2.14.66-4.29,1.33-6.43,1.99-3.5,1.08-7.08,2.69-10.78,1.76Zm5.11,3.83c1.18-.21,2.36-.53,3.57-.91,4.36-1.34,8.71-2.7,13.07-4.05-1.01-4.45-2.02-8.89-3.03-13.34-.28-1.24-.6-2.42-1-3.55,3.27.85,6.57.72,9.81-.06,2.4,3.53,3.45,8.42,4.21,12.47.66,3.47,1.03,7.11.76,10.68-2.95,2.02-6.29,3.52-9.63,4.69-3.89,1.36-8.65,2.89-12.91,2.59-.94-3.19-2.48-6.11-4.85-8.52Zm29.78-24.76c5.21,9.58,6.2,20.54,6.8,31.32-9.63,4.87-19.62,9.5-30.52,9.77-.06-1.35-.18-2.69-.38-4,4.43.02,9-1.26,13.07-2.68,4.29-1.5,8.64-3.48,12.29-6.29.6-4.57.15-9.32-.7-13.79-.8-4.23-1.99-8.83-4.22-12.66,1.23-.48,2.45-1.05,3.65-1.67Z" style="fill: #db9b09; stroke-width: 0px;"/>
        <path d="m38.38,125.08c3.12,4.26,8.12,7.03,13.51,6.75,2.82-.15,5.62-1.04,7.98-2.59,1.75-1.15,3-2.61,4.18-4.17-1.18-1.56-2.42-3.02-4.18-4.17-2.36-1.55-5.16-2.44-7.98-2.59-5.39-.28-10.39,2.49-13.51,6.75Zm14.65-2.78c2.41.38,4.19,1.41,5.72,2.78-1.52,1.37-3.3,2.4-5.72,2.78-3.48.55-6.88-.58-9.45-2.78,2.58-2.2,5.97-3.34,9.45-2.78Z" style="fill: #db9b09; stroke-width: 0px;"/>
        <path d="m81.73,49.99c-2.13,4.83-2.03,10.55.91,15.08,1.53,2.37,3.71,4.35,6.23,5.62,1.87.94,3.76,1.29,5.7,1.53.76-1.8,1.4-3.61,1.52-5.7.16-2.82-.47-5.69-1.75-8.2-2.46-4.81-7.35-7.75-12.6-8.32Zm10.18,17.63c-1.95-.63-3.73-1.66-5.27-3.56-2.22-2.74-2.94-6.25-2.32-9.58,3.2,1.13,5.87,3.5,7.14,6.8.87,2.28.87,4.34.45,6.34Z" style="fill: #db9b09; stroke-width: 0px;"/>
        <path d="m115.25,76.59c-.94-2.49-2.5-4.66-4.8-6.1,0,0,0,0,0,0-1.28,2.4-1.53,5.06-1.1,7.69-2.35-4.66-3.19-10.06-.75-14.62,4.38,2.73,6.36,7.83,6.66,13.04Z" style="fill: #db9b09; stroke-width: 0px;"/>
        <path d="m65.07,82.64c-4.53-2.94-10.24-3.04-15.08-.91.57,5.25,3.51,10.15,8.32,12.6,2.51,1.28,5.39,1.91,8.2,1.75,2.09-.12,3.9-.76,5.7-1.52-.24-1.94-.59-3.82-1.53-5.7-1.27-2.52-3.25-4.7-5.62-6.23Zm-3.78,8.83c-3.29-1.26-5.67-3.94-6.8-7.14,3.33-.62,6.84.1,9.58,2.32,1.9,1.54,2.93,3.32,3.56,5.27-2,.42-4.06.43-6.34-.45Z" style="fill: #db9b09; stroke-width: 0px;"/>
        <path d="m52.96,108.53c-2.37,0-4.74.21-7.01.73-.02,0-.04,0-.06,0-7.61.47-12.8-3.99-16.52-9.82l-.41-.11-4.73-1.27h-.06c-10.54,6.4-17.55,16.82-24.17,27.02,6.62,10.2,13.63,20.63,24.17,27.04h.06s4.73-1.28,4.73-1.28l.41-.11c3.71-5.83,8.91-10.29,16.52-9.82.02,0,.04,0,.06,0,2.28.51,4.65.72,7.01.73-1.44,1.31-2.88,2.62-4.32,3.93l8.19-2.19c.94-.85,1.87-1.7,2.81-2.55,6-5.45,14.81-14.56,23.58-9.2.54.33,1.07.36,1.52.2.05,0,.1-.01.15-.02,1.09-.31,1.5-1.33,1.35-2.37-.21-1.43-.28-2.89-.22-4.35-.06-1.45,0-2.92.22-4.35.15-1.04-.26-2.06-1.35-2.37-.05-.01-.1-.02-.15-.02-.45-.16-.98-.13-1.52.2-8.77,5.36-17.58-3.74-23.58-9.2-.94-.85-1.87-1.7-2.81-2.55l-8.19-2.19c1.44,1.31,2.88,2.62,4.32,3.93Zm-26.82,40.27c-9.3-5.69-15.64-14.69-21.54-23.72,5.9-9.03,12.25-18.03,21.54-23.72.72,1.14,1.5,2.24,2.32,3.27-3.84,2.2-7.17,5.59-9.98,8.86-2.97,3.45-5.74,7.33-7.5,11.59,1.76,4.26,4.54,8.15,7.5,11.59,2.81,3.27,6.14,6.66,9.98,8.86-.83,1.03-1.6,2.13-2.32,3.27Zm4.95-6.16c-3.84-1.86-7.2-5.57-9.89-8.69-2.31-2.68-4.45-5.65-5.99-8.87,1.55-3.22,3.69-6.19,5.99-8.87,2.69-3.12,6.04-6.83,9.89-8.69,2.41,2.3,5.21,4.05,8.47,4.96-.91.77-1.78,1.64-2.64,2.57-3.1,3.34-6.2,6.69-9.29,10.04h0c3.1,3.35,6.19,6.69,9.3,10.04.87.93,1.73,1.8,2.64,2.57-3.26.9-6.05,2.66-8.47,4.96Zm26.36-30.07c1.09.98,2.18,1.97,3.27,2.94,5.82,5.19,13.71,10.33,21.48,7.73-.02.61-.02,1.22,0,1.83-.02.61-.02,1.22,0,1.83-7.76-2.6-15.66,2.54-21.48,7.73-1.09.98-2.18,1.96-3.27,2.94-3.8.32-7.87.4-11.55-.65-3.67-1.04-5.97-4.23-8.46-6.91-1.52-1.65-3.05-3.29-4.57-4.94,1.52-1.65,3.05-3.29,4.57-4.94,2.49-2.68,4.79-5.87,8.46-6.91,3.69-1.05,7.76-.97,11.55-.65Z" style="fill: #db9b09; stroke-width: 0px;"/>
        <path d="m85.12,85.11c.09,2.73,1.21,5.16,2.9,7.23-4.36-2.86-7.81-7.12-7.98-12.3,5.18.18,9.44,3.62,12.3,7.98-2.06-1.7-4.5-2.81-7.22-2.91Z" style="fill: #db9b09; stroke-width: 0px;"/>
        <path d="m90.81,125.08c.38,2.96,1.01,5.86,1.88,8.68l3.7-.99c-.44-1.39-.81-2.8-1.12-4.23,1.2.68,2.45,1.28,3.77,1.77,1.1.41,2.32.6,3.52.81l3.11-.83,3.11-.83.62-.17c-.34-1.36-.54-2.77-.57-4.2.04-1.44.23-2.84.57-4.2.39-1.35.92-2.66,1.6-3.93.75-1.22,1.62-2.34,2.6-3.35,1.01-.98,2.13-1.85,3.35-2.6,1.26-.68,2.58-1.22,3.93-1.6,1.36-.34,2.77-.54,4.2-.57,1.44.04,2.84.23,4.2.57h0c1.35.39,2.66.92,3.93,1.6,1.22.75,2.34,1.62,3.35,2.6.98,1.01,1.85,2.13,2.6,3.35.68,1.26,1.22,2.58,1.6,3.93.34,1.36.54,2.77.57,4.2-.04,1.44-.23,2.84-.57,4.2-.39,1.35-.92,2.66-1.6,3.93-.75,1.22-1.62,2.34-2.6,3.35-1.01.98-2.13,1.85-3.35,2.6-1.26.68-2.58,1.22-3.93,1.6-1.36.34-2.77.54-4.2.57-1.44-.04-2.84-.23-4.2-.57l-.16.62.16-.62c-1.35-.39-2.66-.92-3.93-1.6-1.22-.75-2.34-1.62-3.35-2.6-.98-1.01-1.85-2.13-2.6-3.35-.69-1.26-1.22-2.58-1.6-3.93l-.62.17-3.11.83-3.11.83c-.94.78-1.9,1.55-2.65,2.46-.9,1.08-1.68,2.22-2.38,3.42-.45-1.39-.83-2.8-1.15-4.22l-3.7.99c.66,2.88,1.56,5.7,2.72,8.46h.02c1.81,2.37,3.8,4.57,5.96,6.57,2.01,2.16,4.21,4.14,6.58,5.96v.02c2.75,1.15,5.57,2.06,8.45,2.72,2.82.87,5.72,1.49,8.68,1.88,2.96-.38,5.86-1.01,8.68-1.88l-.99-3.69c-1.39.44-2.8.81-4.23,1.12.68-1.21,1.28-2.45,1.77-3.77.41-1.1.6-2.32.81-3.52.78.94,1.55,1.9,2.46,2.65,1.08.9,2.22,1.68,3.42,2.38-1.39.45-2.8.83-4.22,1.15l.99,3.69c2.88-.66,5.7-1.56,8.46-2.72h0c2.38-1.83,4.57-3.81,6.58-5.97l-2.7-2.7c-.98,1.07-2.01,2.11-3.1,3.08,0-1.38-.12-2.76-.35-4.15-.2-1.16-.64-2.31-1.06-3.45,1.15.42,2.29.86,3.45,1.06,1.38.24,2.76.34,4.15.35-.98,1.08-2.01,2.11-3.08,3.1l2.7,2.7c2.16-2.01,4.14-4.21,5.96-6.58h.02c1.15-2.75,2.06-5.57,2.71-8.45.87-2.82,1.49-5.72,1.88-8.68-.38-2.96-1.01-5.86-1.88-8.68l-3.69.99c.44,1.39.81,2.8,1.12,4.23-1.21-.68-2.45-1.28-3.77-1.77-1.1-.41-2.32-.6-3.52-.81.94-.78,1.9-1.55,2.65-2.46.9-1.08,1.68-2.22,2.38-3.42.45,1.39.83,2.8,1.15,4.22l3.69-.99c-.66-2.88-1.56-5.7-2.72-8.46h-.01c-1.81-2.37-3.8-4.57-5.96-6.57-2.01-2.16-4.21-4.14-6.58-5.96v-.02c-2.75-1.15-5.57-2.06-8.45-2.71h0s0,0,0,0c-2.82-.87-5.72-1.49-8.68-1.88-2.97.38-5.86,1.01-8.68,1.88-2.88.66-5.7,1.56-8.46,2.72v.02c-2.37,1.81-4.57,3.8-6.57,5.96l2.7,2.7c.98-1.07,2.01-2.11,3.1-3.08,0,1.39.12,2.76.35,4.15.2,1.16.64,2.31,1.06,3.45l2.28,2.28,2.28,2.28-2.28-2.28-2.28-2.28c-1.15-.42-2.29-.86-3.45-1.06-1.38-.24-2.76-.34-4.15-.35.98-1.08,2.01-2.11,3.08-3.1l-2.7-2.7c-2.16,2.01-4.14,4.21-5.96,6.58h-.02c-1.15,2.75-2.06,5.57-2.72,8.45l3.7.99c.32-1.42.7-2.83,1.15-4.22.7,1.2,1.49,2.34,2.38,3.42.75.9,1.71,1.68,2.65,2.46-1.2.21-2.42.4-3.52.81-1.31.49-2.56,1.08-3.77,1.77.3-1.43.68-2.84,1.12-4.23l-3.7-.99c-.87,2.82-1.49,5.72-1.88,8.68Zm16.72,19.94c-.24,1.38-.34,2.76-.35,4.15-1.08-.98-2.11-2.01-3.1-3.08-1.07-.98-2.11-2.01-3.08-3.1,1.38-.01,2.76-.12,4.15-.35,1.16-.2,2.31-.64,3.45-1.06-.42,1.15-.87,2.29-1.06,3.45Zm-1.72-6.46c-1.69.42-3.38.59-5.09.58h0c.85-1.48,1.84-2.86,3.05-4.11.85-.88,1.8-1.62,2.69-2.42.34.86.75,1.7,1.21,2.52.48.81,1.01,1.58,1.58,2.31-1.14.38-2.26.83-3.44,1.12Zm5.79,5.79c.29-1.18.74-2.3,1.12-3.44.73.57,1.5,1.1,2.31,1.58.82.46,1.66.86,2.52,1.21-.8.89-1.54,1.84-2.42,2.69-1.25,1.21-2.63,2.2-4.11,3.05,0-1.71.17-3.4.58-5.09Zm5.79,9.42c-1.42-.32-2.83-.7-4.22-1.15,1.19-.7,2.34-1.49,3.42-2.38.9-.75,1.68-1.71,2.46-2.65.21,1.2.4,2.42.8,3.52.49,1.31,1.08,2.56,1.77,3.77-1.43-.3-2.84-.68-4.23-1.12Zm9.73-5.27c-.48,1.67-1.18,3.22-2.04,4.7-.86-1.48-1.56-3.03-2.04-4.7-.34-1.17-.51-2.37-.75-3.54.92.13,1.85.2,2.79.22.94-.02,1.87-.09,2.79-.22-.24,1.17-.41,2.37-.75,3.54Zm7.92-2.12c-.88-.85-1.62-1.8-2.42-2.69.86-.35,1.7-.75,2.52-1.21.81-.48,1.58-1.01,2.31-1.58.38,1.14.83,2.26,1.12,3.44.42,1.69.59,3.38.58,5.09-1.48-.85-2.86-1.84-4.11-3.05Zm9.32-7.83c-1.18-.29-2.3-.74-3.44-1.12.57-.73,1.1-1.5,1.58-2.31.46-.82.86-1.66,1.21-2.52.89.8,1.84,1.54,2.69,2.42,1.21,1.25,2.2,2.63,3.05,4.11-1.71,0-3.4-.17-5.09-.58Zm9.42-5.79c-.32,1.42-.7,2.83-1.15,4.22-.7-1.2-1.49-2.34-2.38-3.42-.75-.9-1.71-1.68-2.65-2.46,1.2-.21,2.42-.4,3.52-.81,1.31-.49,2.56-1.08,3.77-1.77-.3,1.43-.68,2.84-1.12,4.23Zm-5.27-9.73c1.67.48,3.22,1.18,4.7,2.04-1.48.86-3.03,1.56-4.7,2.04-1.17.34-2.37.51-3.54.75.13-.92.2-1.85.22-2.79-.02-.94-.09-1.87-.22-2.79,1.17.24,2.37.41,3.54.75Zm-2.12-7.92c-.85.88-1.8,1.62-2.69,2.42-.35-.86-.75-1.7-1.21-2.52-.48-.81-1.01-1.58-1.58-2.31,1.14-.38,2.26-.83,3.44-1.12,1.69-.42,3.38-.59,5.09-.58-.85,1.48-1.84,2.86-3.05,4.11Zm-3.76-9.99c.24-1.38.34-2.76.35-4.15,1.08.98,2.11,2.01,3.1,3.08,1.07.98,2.11,2.01,3.08,3.1-1.38.01-2.77.12-4.15.35-1.16.2-2.31.64-3.45,1.06.42-1.15.86-2.29,1.06-3.45Zm-4.07.67c-.29,1.18-.74,2.3-1.12,3.44-.73-.57-1.5-1.1-2.31-1.58-.82-.46-1.66-.86-2.52-1.21.8-.89,1.54-1.84,2.42-2.69,1.25-1.21,2.63-2.2,4.11-3.05,0,1.71-.17,3.4-.58,5.09Zm-5.79-9.42h0c1.42.32,2.83.7,4.22,1.15-1.2.7-2.34,1.49-3.42,2.38-.9.75-1.68,1.71-2.46,2.65,0,0,0,0,0,0h0c-.21-1.2-.4-2.42-.81-3.52-.49-1.31-1.08-2.56-1.77-3.77,1.43.3,2.84.68,4.23,1.12Zm-9.73,5.27c.48-1.67,1.18-3.22,2.04-4.7.86,1.48,1.56,3.03,2.04,4.7.34,1.17.51,2.37.75,3.54-.92-.13-1.85-.2-2.79-.22-.94.02-1.87.09-2.79.22.24-1.17.41-2.37.75-3.54Zm-5.65-5.27c1.39-.44,2.8-.81,4.23-1.12-.68,1.21-1.28,2.45-1.77,3.77-.41,1.1-.6,2.32-.81,3.52-.78-.94-1.55-1.9-2.46-2.65-1.08-.9-2.22-1.68-3.42-2.38,1.39-.45,2.8-.83,4.22-1.15Zm-4.67,12.86c-.38-1.14-.83-2.26-1.12-3.44-.42-1.69-.59-3.38-.58-5.09h0c1.48.85,2.86,1.84,4.11,3.05.88.85,1.62,1.8,2.42,2.69-.86.35-1.7.75-2.52,1.21-.81.48-1.58,1.01-2.31,1.58Zm-12,1.77h0c1.71,0,3.4.17,5.09.58,1.18.29,2.3.74,3.44,1.12-.57.73-1.1,1.5-1.58,2.31-.46.82-.86,1.66-1.21,2.52-.89-.8-1.84-1.54-2.69-2.42-1.21-1.25-2.2-2.63-3.05-4.11Zm.93,12.03c1.17-.34,2.37-.51,3.54-.75-.13.92-.2,1.85-.22,2.79.02.94.09,1.87.22,2.79-1.17-.24-2.37-.41-3.54-.75-1.67-.48-3.22-1.18-4.7-2.04h0c1.48-.86,3.03-1.56,4.7-2.04Z" style="fill: #db9b09; stroke-width: 0px;"/>
        <path d="m185.09,82.64c-2.37,1.53-4.35,3.71-5.62,6.23-.94,1.87-1.29,3.76-1.53,5.7,1.8.76,3.61,1.4,5.7,1.52,2.82.16,5.69-.47,8.21-1.75,4.81-2.46,7.75-7.35,8.32-12.6-4.83-2.13-10.55-2.03-15.08.91Zm3.78,8.83c-2.28.87-4.34.87-6.34.45.63-1.95,1.66-3.73,3.56-5.27,2.74-2.22,6.25-2.94,9.58-2.32-1.13,3.2-3.5,5.87-6.8,7.14Z" style="fill: #db9b09; stroke-width: 0px;"/>
        <path d="m225.99,152.12c10.54-6.41,17.55-16.84,24.17-27.04-6.62-10.2-13.63-20.63-24.17-27.04h-.06s-4.73,1.28-4.73,1.28l-.41.11c-3.71,5.83-8.91,10.29-16.52,9.82-.02,0-.04,0-.06,0-2.28-.51-4.65-.72-7.01-.73,1.44-1.31,2.88-2.62,4.32-3.93-1.9-.42-3.81-.83-5.71-1.24,2.05-1.19,4-2.55,5.71-4.14.02-.01.03-.02.05-.03,6.35-4.21,13.08-2.95,19.21.24l.41-.11,4.73-1.27.06-.02c5.92-10.82,6.78-23.36,7.41-35.5-10.83-5.53-22.12-11.05-34.45-11.33-.28-12.33-5.81-23.62-11.33-34.45-12.14.63-24.68,1.49-35.5,7.41,0,0,0,0,0,0h0c-6.41-10.54-16.84-17.55-27.04-24.17-10.2,6.62-20.63,13.63-27.04,24.17h0c-10.82-5.93-23.36-6.78-35.5-7.41-5.53,10.83-11.05,22.12-11.33,34.45l.04.04,3.46,3.46.3.3c6.9.3,13.36,2.57,16.76,9.39,0,.02.02.03.03.05.69,2.23,1.7,4.39,2.88,6.44-1.85-.59-3.71-1.19-5.57-1.78.59,1.86,1.18,3.71,1.78,5.57-2.05-1.18-4.21-2.18-6.44-2.88-.02,0-.03-.02-.05-.03-6.82-3.4-9.09-9.86-9.39-16.76l-.3-.3-3.46-3.46-.04-.04c-12.33.28-23.62,5.81-34.45,11.33.63,12.14,1.49,24.68,7.41,35.5l.06.02,4.73,1.27.41.11c6.13-3.19,12.86-4.45,19.21-.24.02.01.03.02.05.03,1.72,1.58,3.66,2.95,5.71,4.14-1.9.41-3.81.83-5.71,1.24l8.19,2.19c1.23-.27,2.47-.54,3.71-.81,7.92-1.72,20.11-5.21,25.02,3.82.3.56.75.84,1.22.93.05.02.09.04.14.05,1.1.27,1.96-.4,2.35-1.38.53-1.34,1.21-2.64,1.99-3.87.67-1.29,1.46-2.52,2.36-3.66.65-.82.8-1.91.02-2.72-.03-.03-.08-.06-.11-.09-.31-.36-.78-.6-1.42-.59-10.28.26-13.35-12.03-15.82-19.75-.38-1.2-.77-2.41-1.15-3.61,1.2.38,2.41.77,3.61,1.15,7.72,2.47,20.02,5.54,19.75,15.82-.02.63.22,1.1.59,1.42.03.04.06.08.09.11.81.78,1.9.63,2.72-.02,1.13-.9,2.37-1.69,3.66-2.36,1.23-.78,2.53-1.45,3.87-1.99.97-.39,1.65-1.25,1.38-2.35-.01-.05-.04-.09-.05-.14-.09-.47-.38-.91-.93-1.22-9.03-4.91-5.55-17.1-3.82-25.02.27-1.24.54-2.47.81-3.71l-2.19-8.19c-.42,1.9-.83,3.81-1.24,5.71-1.19-2.05-2.55-4-4.13-5.71-.01-.02-.02-.03-.03-.05-4.21-6.35-2.95-13.08.24-19.21,5.83,3.71,10.29,8.91,9.82,16.52,0,.02,0,.04,0,.06-.51,2.28-.72,4.65-.73,7.01-1.31-1.44-2.62-2.88-3.93-4.32l2.19,8.19c.85.94,1.7,1.87,2.55,2.81,5.45,6,14.56,14.81,9.2,23.58-.33.54-.36,1.07-.2,1.52,0,.05.01.1.02.15.31,1.09,1.33,1.5,2.37,1.35,1.43-.21,2.89-.28,4.35-.22,1.45-.06,2.92,0,4.35.22,1.04.15,2.06-.26,2.37-1.35.01-.05.01-.1.02-.15.16-.45.13-.98-.2-1.52-5.36-8.77,3.74-17.58,9.2-23.58.85-.93,1.7-1.87,2.55-2.8,0,0,0,0,0,0,0,0,0,0,0,0,.27,1.23.54,2.47.81,3.7,1.72,7.92,5.21,20.11-3.82,25.02-.56.3-.84.75-.93,1.22-.02.05-.04.09-.05.14-.27,1.1.4,1.96,1.38,2.35,1.34.53,2.64,1.21,3.87,1.99,1.29.67,2.52,1.46,3.66,2.36.82.65,1.91.8,2.72.02.03-.03.06-.08.09-.11.36-.31.6-.78.59-1.42-.26-10.28,12.03-13.35,19.75-15.82,1.2-.38,2.41-.77,3.61-1.15-.38,1.2-.77,2.41-1.15,3.61-2.47,7.72-5.54,20.02-15.82,19.76-.63-.02-1.1.22-1.42.59-.04.03-.08.06-.11.09-.78.81-.63,1.9.02,2.72.9,1.13,1.69,2.37,2.36,3.66.78,1.23,1.46,2.53,1.99,3.87.39.97,1.25,1.65,2.35,1.38.05-.01.09-.04.14-.05.47-.09.91-.38,1.22-.93,4.91-9.03,17.1-5.55,25.02-3.82,1.24.27,2.47.54,3.71.81-.94.85-1.87,1.7-2.81,2.55-6,5.45-14.81,14.56-23.58,9.2-.54-.33-1.07-.36-1.52-.2-.05,0-.1.01-.15.02-1.09.31-1.5,1.33-1.35,2.37.21,1.43.28,2.89.22,4.35.06,1.45,0,2.92-.22,4.35-.15,1.04.26,2.06,1.35,2.37.05.01.1.01.15.02.45.16.98.13,1.52-.2,8.77-5.36,17.58,3.74,23.58,9.2.94.85,1.87,1.7,2.81,2.55l8.19,2.19c-1.44-1.31-2.88-2.62-4.32-3.93,2.37,0,4.74-.21,7.01-.73.02,0,.04,0,.06,0,7.61-.47,12.8,3.99,16.52,9.82l.41.11,4.73,1.27h.06ZM27.53,96.15c-5.21-9.58-6.2-20.54-6.8-31.32,9.63-4.87,19.62-9.49,30.52-9.77.06,1.35.18,2.69.38,4-4.43-.02-9,1.26-13.07,2.68-4.29,1.5-8.64,3.48-12.3,6.29h0c-.6,4.57-.15,9.32.7,13.79.8,4.23,1.99,8.83,4.22,12.66-1.23.48-2.45,1.05-3.65,1.67Zm7.37-2.86c-2.4-3.53-3.45-8.42-4.21-12.47-.66-3.47-1.03-7.11-.76-10.68,2.95-2.02,6.29-3.52,9.63-4.69,3.89-1.36,8.65-2.89,12.91-2.59.94,3.19,2.48,6.11,4.85,8.52-1.17.21-2.36.53-3.57.91-4.36,1.34-8.71,2.7-13.07,4.04,1.01,4.45,2.02,8.89,3.03,13.34.28,1.24.6,2.42,1,3.55-3.27-.85-6.57-.72-9.81.06Zm53.96,8.76c-.32.52-.63,1.05-.91,1.59h0c-.32.52-.63,1.05-.92,1.58-5.42-6.14-14.83-5.63-22.47-4.04-1.44.3-2.87.61-4.3.91-3.45-1.62-7.01-3.59-9.68-6.34-2.65-2.74-3.06-6.65-3.87-10.21-.5-2.19-.99-4.38-1.49-6.56,2.14-.66,4.29-1.33,6.43-1.99,3.5-1.08,7.08-2.69,10.78-1.76,3.72.93,7.2,3.03,10.33,5.21.45,1.39.9,2.79,1.36,4.18,2.44,7.41,6.71,15.81,14.74,17.43Zm-29.79-50.42c-1.31-.2-2.65-.32-3.99-.38.28-10.9,4.9-20.89,9.77-30.52,10.77.59,21.74,1.59,31.32,6.8-.63,1.2-1.19,2.41-1.67,3.65-3.83-2.23-8.43-3.41-12.66-4.22-4.47-.85-9.22-1.3-13.79-.7-2.81,3.66-4.79,8-6.29,12.3-1.42,4.07-2.7,8.64-2.68,13.07Zm13.25,2.11c-.37,1.21-.69,2.4-.91,3.57-2.41-2.37-5.33-3.91-8.52-4.85-.31-4.26,1.23-9.02,2.59-12.91,1.17-3.34,2.67-6.67,4.69-9.63h0c3.56-.27,7.21.1,10.68.76,4.05.77,8.94,1.82,12.47,4.21-.78,3.23-.91,6.53-.06,9.81-1.12-.4-2.31-.72-3.55-1-4.45-1.01-8.89-2.02-13.34-3.03-1.35,4.36-2.7,8.71-4.04,13.07Zm29.79,6.51c-.3,1.43-.61,2.87-.91,4.3-1.59,7.63-2.09,17.04,4.04,22.47-.54.29-1.07.59-1.58.92-.54.29-1.07.59-1.59.91-1.63-8.02-10.03-12.29-17.43-14.74-1.39-.46-2.79-.91-4.18-1.36-2.18-3.13-4.28-6.61-5.21-10.33-.93-3.7.68-7.28,1.76-10.78.66-2.14,1.33-4.29,1.99-6.43h0c2.19.5,4.38.99,6.56,1.49,3.57.81,7.48,1.21,10.21,3.87,2.75,2.67,4.72,6.23,6.34,9.68Zm-4.03-36.03v-.05s0,.05,0,.05l1.27,4.73-1.27-4.73Zm107.4,69.01c.4-1.12.72-2.31,1-3.55,1.01-4.45,2.02-8.89,3.03-13.34-4.36-1.35-8.71-2.7-13.07-4.04-1.21-.37-2.4-.69-3.57-.91,2.37-2.41,3.91-5.33,4.85-8.52,4.26-.31,9.02,1.23,12.91,2.59,3.34,1.17,6.68,2.67,9.63,4.69.27,3.56-.1,7.21-.76,10.68-.77,4.05-1.82,8.94-4.21,12.47-3.23-.78-6.53-.91-9.81-.06Zm23.97-28.4c-.59,10.77-1.59,21.74-6.8,31.32-1.2-.63-2.41-1.19-3.65-1.67,2.23-3.83,3.41-8.43,4.22-12.66.85-4.47,1.3-9.22.7-13.79-3.66-2.81-8-4.79-12.29-6.29-4.07-1.42-8.64-2.7-13.07-2.68.2-1.31.32-2.65.38-4,10.9.28,20.89,4.9,30.52,9.77Zm-33.98-10.12l-.3.3c-.3,6.9-2.57,13.36-9.39,16.76-.02,0-.03.02-.05.03-2.23.69-4.39,1.7-6.44,2.88.59-1.85,1.19-3.71,1.78-5.57-1.86.59-3.71,1.18-5.57,1.78,1.18-2.05,2.18-4.21,2.88-6.44,0-.02.02-.03.03-.05,3.4-6.82,9.86-9.09,16.76-9.39l.3-.3Zm-34.98-11.01c-1.24.28-2.42.6-3.55,1,.85-3.27.72-6.57-.06-9.81,3.53-2.4,8.42-3.45,12.47-4.21,3.47-.66,7.11-1.03,10.68-.76,2.02,2.95,3.52,6.29,4.69,9.63,1.36,3.89,2.89,8.65,2.59,12.91-3.19.94-6.11,2.48-8.52,4.85-.21-1.17-.53-2.36-.91-3.57-1.34-4.36-2.7-8.71-4.04-13.07h0c-4.45,1.01-8.89,2.02-13.34,3.03Zm24.85-22.97c4.87,9.63,9.49,19.62,9.77,30.52-1.35.06-2.69.18-4,.38.02-4.43-1.26-9-2.68-13.07-1.5-4.29-3.48-8.64-6.29-12.29-4.57-.6-9.32-.15-13.79.7-4.23.8-8.83,1.99-12.66,4.22-.48-1.23-1.05-2.45-1.67-3.65,9.58-5.21,20.54-6.2,31.32-6.8Zm-83.97,5.4c5.69-9.3,14.69-15.64,23.72-21.54,9.03,5.9,18.03,12.25,23.72,21.54-1.14.72-2.24,1.5-3.27,2.32-2.2-3.84-5.59-7.17-8.86-9.98-3.45-2.97-7.33-5.74-11.59-7.5-4.26,1.76-8.15,4.54-11.59,7.5-3.27,2.81-6.66,6.14-8.86,9.98-1.03-.83-2.13-1.6-3.27-2.32Zm36.22,31.31c-.98,1.09-1.97,2.18-2.94,3.27-5.19,5.82-10.33,13.71-7.73,21.48-.61-.02-1.22-.02-1.83,0-.61-.02-1.22-.02-1.83,0,2.6-7.76-2.54-15.66-7.73-21.48-.98-1.09-1.96-2.18-2.94-3.27-.32-3.8-.4-7.87.65-11.55,1.04-3.67,4.23-5.97,6.91-8.46,1.65-1.52,3.29-3.05,4.94-4.57,1.65,1.52,3.29,3.05,4.94,4.57,2.68,2.49,5.87,4.79,6.91,8.46,1.05,3.69.97,7.76.65,11.55Zm.11-17.89c-.77-.91-1.64-1.78-2.57-2.64-3.34-3.1-6.69-6.2-10.04-9.29-3.35,3.1-6.69,6.19-10.04,9.29-.93.87-1.8,1.73-2.57,2.64-.9-3.26-2.66-6.05-4.96-8.47,1.86-3.84,5.57-7.2,8.69-9.89,2.68-2.31,5.65-4.45,8.87-5.99,3.22,1.55,6.19,3.69,8.87,5.99,3.12,2.69,6.83,6.04,8.69,9.89-2.3,2.41-4.06,5.21-4.96,8.47Zm7.88,9.08h0s0,0,0,0c0,0,0,0,0,0h0c-1.31,1.44-2.62,2.88-3.93,4.32,0-2.37-.21-4.74-.73-7.01,0-.02,0-.04,0-.06-.47-7.61,3.99-12.8,9.82-16.51,0,0,0,0,0,0,0,0,0,0,0,0,3.19,6.13,4.45,12.86.24,19.21-.01.02-.02.03-.03.05-1.58,1.72-2.95,3.66-4.14,5.71-.41-1.9-.83-3.81-1.24-5.71Zm29.37,13.79c-.94,3.72-3.03,7.2-5.21,10.33-1.39.45-2.79.9-4.18,1.36-7.41,2.44-15.81,6.71-17.43,14.74-.52-.32-1.05-.63-1.59-.91-.52-.32-1.05-.63-1.58-.92,6.14-5.42,5.63-14.83,4.04-22.47-.3-1.44-.61-2.87-.91-4.3,1.62-3.45,3.59-7.01,6.34-9.68,2.74-2.65,6.65-3.06,10.21-3.87,2.19-.5,4.38-.99,6.56-1.49.66,2.14,1.33,4.29,1.99,6.43,1.08,3.49,2.69,7.08,1.76,10.78Zm14.97,39.66c-1.43-.3-2.87-.61-4.3-.91-7.63-1.59-17.04-2.09-22.46,4.05-.29-.54-.59-1.07-.92-1.58h0c-.29-.54-.59-1.07-.91-1.59,8.03-1.63,12.29-10.03,14.74-17.43.46-1.39.91-2.79,1.36-4.18,3.13-2.18,6.61-4.28,10.33-5.21,3.7-.93,7.28.68,10.78,1.76,2.14.66,4.29,1.33,6.43,1.99-.5,2.19-.99,4.38-1.49,6.56-.81,3.57-1.21,7.48-3.87,10.21-2.67,2.75-6.23,4.72-9.68,6.34Zm14.36,34.84c-3.69,1.05-7.76.97-11.55.65-1.09-.98-2.18-1.97-3.27-2.94-5.82-5.19-13.71-10.33-21.48-7.73.02-.61.02-1.22,0-1.83.02-.61.02-1.22,0-1.83,7.76,2.6,15.66-2.54,21.48-7.73,1.09-.98,2.18-1.96,3.27-2.94,3.8-.32,7.87-.4,11.55.65,3.67,1.04,5.97,4.23,8.46,6.91,1.52,1.65,3.05,3.29,4.57,4.94-1.52,1.65-3.05,3.29-4.57,4.94-2.49,2.68-4.79,5.87-8.46,6.91Zm14.81,5.71c-2.41-2.3-5.21-4.05-8.47-4.96.91-.77,1.78-1.64,2.64-2.57,3.1-3.34,6.2-6.69,9.29-10.04-3.1-3.35-6.19-6.69-9.29-10.04-.87-.93-1.73-1.8-2.64-2.57,3.26-.9,6.05-2.66,8.47-4.96,3.84,1.86,7.2,5.57,9.89,8.69,2.31,2.68,4.45,5.65,5.99,8.87-1.55,3.22-3.69,6.19-5.99,8.87-2.69,3.12-6.04,6.83-9.89,8.69Zm2.63,2.89c3.84-2.2,7.17-5.59,9.98-8.86,2.97-3.45,5.74-7.33,7.5-11.59-1.76-4.26-4.54-8.15-7.5-11.59-2.81-3.27-6.14-6.66-9.98-8.86.83-1.03,1.6-2.13,2.32-3.27,9.3,5.69,15.64,14.69,21.54,23.72-5.9,9.03-12.25,18.03-21.54,23.72-.72-1.14-1.5-2.24-2.32-3.27Z" style="fill: #db9b09; stroke-width: 0px;"/>
        <path d="m191.84,155.83c-2.51-1.28-5.39-1.91-8.2-1.75-2.09.12-3.9.76-5.7,1.52h0c.24,1.94.59,3.82,1.53,5.7,1.27,2.52,3.25,4.7,5.62,6.23,4.53,2.94,10.24,3.04,15.08.91-.57-5.25-3.51-10.15-8.32-12.6Zm-5.75,7.69c-1.9-1.54-2.93-3.32-3.56-5.27,2-.42,4.06-.43,6.34.45,3.29,1.26,5.67,3.94,6.8,7.14-3.33.62-6.84-.1-9.58-2.32Z" style="fill: #db9b09; stroke-width: 0px;"/>
        <path d="m198.27,118.33c-2.82.15-5.62,1.04-7.98,2.59-1.75,1.15-3,2.61-4.18,4.17,1.18,1.56,2.42,3.02,4.18,4.17,2.36,1.55,5.16,2.44,7.98,2.59,5.39.28,10.39-2.49,13.51-6.75-3.12-4.26-8.12-7.03-13.51-6.75Zm-1.14,9.54c-2.41-.38-4.19-1.41-5.72-2.78,1.52-1.37,3.3-2.4,5.72-2.78,3.48-.55,6.88.58,9.45,2.78-2.58,2.2-5.97,3.34-9.45,2.78Z" style="fill: #db9b09; stroke-width: 0px;"/>
        <path d="m155.83,58.32c-1.28,2.51-1.91,5.38-1.75,8.2.12,2.09.76,3.9,1.52,5.7,1.94-.24,3.82-.59,5.7-1.53,2.52-1.27,4.7-3.25,6.23-5.62,2.94-4.53,3.04-10.24.91-15.08-5.25.57-10.15,3.51-12.6,8.32Zm7.69,5.75c-1.54,1.9-3.32,2.93-5.27,3.56-.42-2-.42-4.06.45-6.34,1.26-3.29,3.94-5.67,7.14-6.8h0c.62,3.33-.1,6.84-2.32,9.58Z" style="fill: #db9b09; stroke-width: 0px;"/>
        <path d="m137.55,87.76c.32-1.97.13-3.96-.83-5.77-1.73,1.08-2.9,2.72-3.61,4.59.23-3.91,1.71-7.74,5-9.79h0c1.82,3.42,1.19,7.47-.57,10.97Z" style="fill: #db9b09; stroke-width: 0px;"/>
        <path d="m160.7,160.7c-3.88-.13-7.07-2.71-9.22-5.99,1.55,1.27,3.37,2.11,5.42,2.18-.07-2.04-.9-3.87-2.17-5.42,3.28,2.15,5.85,5.34,5.98,9.22Z" style="fill: #db9b09; stroke-width: 0px;"/>
        <path d="m160.4,89.76c-.13,3.88-2.71,7.07-5.98,9.22,1.27-1.54,2.11-3.37,2.17-5.42-2.05.07-3.88.91-5.43,2.19,2.15-3.28,5.35-5.86,9.23-6Z" style="fill: #db9b09; stroke-width: 0px;"/>
        <path d="m174.24,111.98c-2.06,3.3-5.89,4.78-9.8,5,1.88-.7,3.52-1.87,4.6-3.61-1.81-.96-3.81-1.16-5.78-.83,3.5-1.76,7.56-2.4,10.98-.57Z" style="fill: #db9b09; stroke-width: 0px;"/>
        <path d="m138.32,173.7c-3.3-2.06-4.78-5.88-5-9.79.7,1.87,1.87,3.51,3.61,4.59.96-1.8,1.15-3.8.83-5.77,1.76,3.5,2.4,7.55.57,10.97Z" style="fill: #db9b09; stroke-width: 0px;"/>
        <path d="m86.19,117.18c-3.91-.22-7.74-1.7-9.8-5,3.42-1.82,7.48-1.2,10.97.57-1.97-.32-3.97-.13-5.77.83,1.08,1.74,2.72,2.9,4.59,3.61Z" style="fill: #db9b09; stroke-width: 0px;"/>
        <path d="m98.53,154.88c-2.15,3.28-5.35,5.86-9.23,5.99.13-3.89,2.72-7.08,5.99-9.23-1.27,1.55-2.11,3.38-2.18,5.43,2.05-.07,3.88-.91,5.42-2.18Z" style="fill: #db9b09; stroke-width: 0px;"/>
        <path d="m174.04,138.18c-3.43,1.83-7.48,1.2-10.98-.57,1.97.33,3.97.13,5.78-.83-1.08-1.73-2.72-2.9-4.59-3.61,3.91.23,7.74,1.7,9.79,5Z" style="fill: #db9b09; stroke-width: 0px;"/>
        <path d="m117.11,164.06c-.23,3.9-1.7,7.73-4.99,9.78-1.82-3.43-1.19-7.48.57-10.98-.32,1.97-.13,3.97.83,5.78h0c1.73-1.08,2.89-2.71,3.6-4.58Z" style="fill: #db9b09; stroke-width: 0px;"/>
        <path d="m87.5,137.61c-3.5,1.76-7.55,2.39-10.97.57,2.06-3.3,5.89-4.78,9.8-5-1.88.7-3.51,1.87-4.59,3.61,1.8.96,3.8,1.15,5.77.83Z" style="fill: #db9b09; stroke-width: 0px;"/>
        <path d="m117.18,86.31c-.71-1.87-1.87-3.5-3.6-4.57,0,0,0,0,0,0-.96,1.8-1.15,3.8-.83,5.77-1.76-3.5-2.39-7.55-.57-10.97,3.29,2.05,4.77,5.88,5,9.78Z" style="fill: #db9b09; stroke-width: 0px;"/>
        <path d="m93.11,93.3c.07,2.05.91,3.88,2.18,5.43-3.28-2.15-5.86-5.35-5.99-9.23,3.89.13,7.08,2.72,9.23,5.99-1.54-1.27-3.37-2.11-5.42-2.18Z" style="fill: #db9b09; stroke-width: 0px;"/>
      </g>
    </g>
  </g>
</svg>