<svg xmlns="http://www.w3.org/2000/svg" id="Layer_1" data-name="Layer 1" viewBox="313.19 454.29 523.36 147.75">
  <g>
    <path d="m518.19,522.5l-17.09-19.75v19.75h-7.24v-44.15h7.24v20.14l17.15-20.14h9.08l-19.18,22.1,19.5,22.04h-9.46Z" style="fill: #fff; stroke-width: 0px;"/>
    <path d="m530.03,495.5c1.46-2.71,3.45-4.82,5.97-6.32,2.52-1.5,5.3-2.25,8.35-2.25,2.75,0,5.16.54,7.21,1.62,2.05,1.08,3.69,2.42,4.92,4.03v-5.08h7.31v35h-7.31v-5.21c-1.23,1.65-2.9,3.03-5.02,4.13-2.12,1.1-4.53,1.65-7.24,1.65-3.01,0-5.76-.77-8.26-2.32-2.5-1.54-4.48-3.7-5.94-6.48-1.46-2.77-2.19-5.92-2.19-9.43s.73-6.63,2.19-9.34Zm24.96,3.18c-1-1.78-2.3-3.13-3.91-4.07-1.61-.93-3.35-1.4-5.21-1.4s-3.6.46-5.21,1.37c-1.61.91-2.91,2.25-3.91,4-1,1.76-1.49,3.84-1.49,6.26s.5,4.53,1.49,6.35c.99,1.82,2.31,3.21,3.94,4.16,1.63.95,3.36,1.43,5.18,1.43s3.6-.47,5.21-1.4c1.61-.93,2.91-2.3,3.91-4.1.99-1.8,1.49-3.91,1.49-6.32s-.5-4.51-1.49-6.29Z" style="fill: #fff; stroke-width: 0px;"/>
    <path d="m577.96,493.41v19.37c0,1.31.31,2.25.92,2.83.61.57,1.66.86,3.14.86h4.45v6.03h-5.72c-3.26,0-5.76-.76-7.5-2.29-1.74-1.52-2.6-4-2.6-7.43v-19.37h-4.13v-5.91h4.13v-8.7h7.31v8.7h8.51v5.91h-8.51Z" style="fill: #fff; stroke-width: 0px;"/>
    <path d="m614.58,488.64c2.1,1.14,3.75,2.84,4.95,5.08,1.21,2.25,1.81,4.95,1.81,8.13v20.64h-7.18v-19.56c0-3.13-.78-5.54-2.35-7.21-1.57-1.67-3.71-2.51-6.42-2.51s-4.86.84-6.45,2.51c-1.59,1.67-2.38,4.08-2.38,7.21v19.56h-7.24v-47.01h7.24v16.07c1.23-1.48,2.78-2.63,4.67-3.43,1.88-.8,3.95-1.21,6.19-1.21,2.67,0,5.05.57,7.15,1.72Z" style="fill: #fff; stroke-width: 0px;"/>
    <path d="m676.51,488.64c2.18,1.14,3.9,2.84,5.15,5.08,1.25,2.25,1.87,4.95,1.87,8.13v20.64h-7.18v-19.56c0-3.13-.78-5.54-2.35-7.21-1.57-1.67-3.71-2.51-6.42-2.51s-4.86.84-6.45,2.51c-1.59,1.67-2.38,4.08-2.38,7.21v19.56h-7.18v-19.56c0-3.13-.78-5.54-2.35-7.21-1.57-1.67-3.71-2.51-6.42-2.51s-4.86.84-6.45,2.51c-1.59,1.67-2.38,4.08-2.38,7.21v19.56h-7.24v-35h7.24v4c1.19-1.44,2.69-2.56,4.51-3.37,1.82-.8,3.77-1.21,5.84-1.21,2.79,0,5.29.59,7.5,1.78,2.2,1.19,3.9,2.9,5.08,5.15,1.06-2.12,2.71-3.8,4.95-5.05,2.24-1.25,4.66-1.87,7.24-1.87,2.75,0,5.22.57,7.4,1.72Z" style="fill: #fff; stroke-width: 0px;"/>
    <path d="m688.71,495.5c1.46-2.71,3.45-4.82,5.97-6.32,2.52-1.5,5.3-2.25,8.35-2.25,2.75,0,5.16.54,7.21,1.62,2.05,1.08,3.69,2.42,4.92,4.03v-5.08h7.31v35h-7.31v-5.21c-1.23,1.65-2.9,3.03-5.02,4.13-2.12,1.1-4.53,1.65-7.24,1.65-3.01,0-5.76-.77-8.26-2.32-2.5-1.54-4.48-3.7-5.94-6.48-1.46-2.77-2.19-5.92-2.19-9.43s.73-6.63,2.19-9.34Zm24.96,3.18c-1-1.78-2.3-3.13-3.91-4.07-1.61-.93-3.35-1.4-5.21-1.4s-3.6.46-5.21,1.37c-1.61.91-2.91,2.25-3.91,4-1,1.76-1.49,3.84-1.49,6.26s.5,4.53,1.49,6.35c.99,1.82,2.31,3.21,3.94,4.16,1.63.95,3.36,1.43,5.18,1.43s3.6-.47,5.21-1.4c1.61-.93,2.91-2.3,3.91-4.1.99-1.8,1.49-3.91,1.49-6.32s-.5-4.51-1.49-6.29Z" style="fill: #fff; stroke-width: 0px;"/>
    <path d="m753.24,488.64c2.18,1.14,3.88,2.84,5.11,5.08,1.23,2.25,1.84,4.95,1.84,8.13v20.64h-7.18v-19.56c0-3.13-.78-5.54-2.35-7.21-1.57-1.67-3.71-2.51-6.42-2.51s-4.86.84-6.45,2.51c-1.59,1.67-2.38,4.08-2.38,7.21v19.56h-7.24v-35h7.24v4c1.19-1.44,2.7-2.56,4.54-3.37,1.84-.8,3.8-1.21,5.88-1.21,2.75,0,5.22.57,7.4,1.72Z" style="fill: #fff; stroke-width: 0px;"/>
    <path d="m765.37,495.5c1.46-2.71,3.45-4.82,5.97-6.32,2.52-1.5,5.32-2.25,8.42-2.25,2.29,0,4.54.5,6.77,1.49,2.22,1,3.99,2.32,5.3,3.97v-16.9h7.31v47.01h-7.31v-5.27c-1.19,1.69-2.83,3.09-4.92,4.19-2.1,1.1-4.5,1.65-7.21,1.65-3.05,0-5.83-.77-8.35-2.32-2.52-1.54-4.51-3.7-5.97-6.48-1.46-2.77-2.19-5.92-2.19-9.43s.73-6.63,2.19-9.34Zm24.96,3.18c-1-1.78-2.3-3.13-3.91-4.07-1.61-.93-3.35-1.4-5.21-1.4s-3.6.46-5.21,1.37c-1.61.91-2.91,2.25-3.91,4-1,1.76-1.49,3.84-1.49,6.26s.5,4.53,1.49,6.35c.99,1.82,2.31,3.21,3.94,4.16,1.63.95,3.36,1.43,5.18,1.43s3.6-.47,5.21-1.4c1.61-.93,2.91-2.3,3.91-4.1.99-1.8,1.49-3.91,1.49-6.32s-.5-4.51-1.49-6.29Z" style="fill: #fff; stroke-width: 0px;"/>
    <path d="m836.55,487.5v35h-7.24v-4.13c-1.14,1.44-2.64,2.57-4.48,3.4-1.84.83-3.8,1.24-5.88,1.24-2.75,0-5.22-.57-7.4-1.72-2.18-1.14-3.9-2.84-5.15-5.08-1.25-2.24-1.87-4.95-1.87-8.13v-20.58h7.18v19.5c0,3.13.78,5.54,2.35,7.21,1.57,1.67,3.71,2.51,6.42,2.51s4.86-.84,6.45-2.51c1.59-1.67,2.38-4.08,2.38-7.21v-19.5h7.24Z" style="fill: #fff; stroke-width: 0px;"/>
    <path d="m540.35,534.08v44.15h-7.24v-30.24l-13.47,30.24h-5.02l-13.53-30.24v30.24h-7.24v-44.15h7.81l15.5,34.62,15.44-34.62h7.75Z" style="fill: #fff; stroke-width: 0px;"/>
    <path d="m545.85,551.23c1.46-2.71,3.45-4.82,5.97-6.32,2.52-1.5,5.3-2.25,8.35-2.25,2.75,0,5.16.54,7.21,1.62,2.05,1.08,3.69,2.42,4.92,4.03v-5.08h7.31v35h-7.31v-5.21c-1.23,1.65-2.9,3.03-5.02,4.13-2.12,1.1-4.53,1.65-7.24,1.65-3.01,0-5.76-.77-8.26-2.32-2.5-1.54-4.48-3.71-5.94-6.48-1.46-2.77-2.19-5.92-2.19-9.43s.73-6.63,2.19-9.34Zm24.96,3.18c-1-1.78-2.3-3.13-3.91-4.07-1.61-.93-3.35-1.4-5.21-1.4s-3.6.46-5.21,1.37c-1.61.91-2.91,2.24-3.91,4-1,1.76-1.49,3.84-1.49,6.26s.5,4.53,1.49,6.35c.99,1.82,2.31,3.21,3.94,4.16,1.63.95,3.36,1.43,5.18,1.43s3.6-.47,5.21-1.4c1.61-.93,2.91-2.3,3.91-4.1.99-1.8,1.49-3.91,1.49-6.32s-.5-4.51-1.49-6.29Z" style="fill: #fff; stroke-width: 0px;"/>
    <path d="m610.39,544.37c2.18,1.14,3.88,2.84,5.11,5.08,1.23,2.25,1.84,4.96,1.84,8.13v20.64h-7.18v-19.56c0-3.13-.78-5.54-2.35-7.21-1.57-1.67-3.71-2.51-6.42-2.51s-4.86.84-6.45,2.51c-1.59,1.67-2.38,4.08-2.38,7.21v19.56h-7.24v-35h7.24v4c1.19-1.44,2.7-2.56,4.54-3.37,1.84-.8,3.8-1.21,5.88-1.21,2.75,0,5.22.57,7.4,1.71Z" style="fill: #fff; stroke-width: 0px;"/>
    <path d="m622.52,551.23c1.46-2.71,3.45-4.82,5.97-6.32,2.52-1.5,5.32-2.25,8.42-2.25,2.29,0,4.54.5,6.77,1.49,2.22,1,3.99,2.32,5.3,3.97v-16.9h7.31v47.01h-7.31v-5.27c-1.19,1.69-2.83,3.09-4.92,4.19s-4.5,1.65-7.21,1.65c-3.05,0-5.83-.77-8.35-2.32-2.52-1.54-4.51-3.71-5.97-6.48-1.46-2.77-2.19-5.92-2.19-9.43s.73-6.63,2.19-9.34Zm24.96,3.18c-1-1.78-2.3-3.13-3.91-4.07-1.61-.93-3.35-1.4-5.21-1.4s-3.6.46-5.21,1.37c-1.61.91-2.91,2.24-3.91,4-1,1.76-1.49,3.84-1.49,6.26s.5,4.53,1.49,6.35c.99,1.82,2.31,3.21,3.94,4.16,1.63.95,3.36,1.43,5.18,1.43s3.6-.47,5.21-1.4c1.61-.93,2.91-2.3,3.91-4.1.99-1.8,1.49-3.91,1.49-6.32s-.5-4.51-1.49-6.29Z" style="fill: #fff; stroke-width: 0px;"/>
    <path d="m661.77,551.23c1.46-2.71,3.45-4.82,5.97-6.32,2.52-1.5,5.3-2.25,8.35-2.25,2.75,0,5.16.54,7.21,1.62,2.05,1.08,3.69,2.42,4.92,4.03v-5.08h7.31v35h-7.31v-5.21c-1.23,1.65-2.9,3.03-5.02,4.13-2.12,1.1-4.53,1.65-7.24,1.65-3.01,0-5.76-.77-8.26-2.32-2.5-1.54-4.48-3.71-5.94-6.48-1.46-2.77-2.19-5.92-2.19-9.43s.73-6.63,2.19-9.34Zm24.96,3.18c-1-1.78-2.3-3.13-3.91-4.07-1.61-.93-3.35-1.4-5.21-1.4s-3.6.46-5.21,1.37c-1.61.91-2.91,2.24-3.91,4-1,1.76-1.49,3.84-1.49,6.26s.5,4.53,1.49,6.35c.99,1.82,2.31,3.21,3.94,4.16,1.63.95,3.36,1.43,5.18,1.43s3.6-.47,5.21-1.4c1.61-.93,2.91-2.3,3.91-4.1.99-1.8,1.49-3.91,1.49-6.32s-.5-4.51-1.49-6.29Z" style="fill: #fff; stroke-width: 0px;"/>
    <path d="m708.49,531.22v47.01h-7.24v-47.01h7.24Z" style="fill: #fff; stroke-width: 0px;"/>
    <path d="m713.99,551.23c1.46-2.71,3.45-4.82,5.97-6.32,2.52-1.5,5.3-2.25,8.35-2.25,2.75,0,5.16.54,7.21,1.62,2.05,1.08,3.69,2.42,4.92,4.03v-5.08h7.31v35h-7.31v-5.21c-1.23,1.65-2.9,3.03-5.02,4.13-2.12,1.1-4.53,1.65-7.24,1.65-3.01,0-5.76-.77-8.26-2.32-2.5-1.54-4.48-3.71-5.94-6.48-1.46-2.77-2.19-5.92-2.19-9.43s.73-6.63,2.19-9.34Zm24.96,3.18c-1-1.78-2.3-3.13-3.91-4.07-1.61-.93-3.35-1.4-5.21-1.4s-3.6.46-5.21,1.37c-1.61.91-2.91,2.24-3.91,4-1,1.76-1.49,3.84-1.49,6.26s.5,4.53,1.49,6.35c.99,1.82,2.31,3.21,3.94,4.16,1.63.95,3.36,1.43,5.18,1.43s3.6-.47,5.21-1.4c1.61-.93,2.91-2.3,3.91-4.1.99-1.8,1.49-3.91,1.49-6.32s-.5-4.51-1.49-6.29Z" style="fill: #fff; stroke-width: 0px;"/>
  </g>
  <g>
    <path d="m460.19,561.53c.06,5.84.01,11.68.01,17.93-3.65,0-7.1.07-10.55-.1-.39-.02-1.01-1.42-1.02-2.19-.1-5.15-.03-10.29-.07-15.44-.12-15.11-12.6-27.62-27.71-27.71-8.72-.06-17.45-.01-26.17,0-.76,0-1.53.08-2.45.14-.06.99-.14,1.84-.14,2.68-.01,8.46-.03,16.93,0,25.39.03,15.74,12.47,28.19,28.24,28.27,1.74,0,3.48,0,5.62,0,0-1.09,0-2.01,0-2.94,0-8.03-.02-16.05-.03-24.08,0-4.53-2.2-6.76-6.69-6.83-.44,0-.88.06-1.31,0-2.43-.36-3.33.47-3.24,3.1.21,6.08.07,12.18.07,18.32-5.26-.98-10.53-6.53-11.14-12.7-.61-6.22-.34-12.54-.36-18.82,0-.47.74-1.37,1.12-1.36,6.86.15,13.84-.28,20.56.83,7.3,1.21,12.35,7.73,12.5,15.18.28,13.25.09,26.52.08,39.78,0,.25-.14.49-.2.7-.18.12-.32.3-.46.3-7.57-.1-15.22.39-22.7-.47-11.33-1.3-20.08-7.46-26.68-16.69-.34-.47-.68-.94-.77-1.07h0v-111.2h0c.29-.36.55-.67.78-.99,7.79-10.63,18.01-16.55,30.95-17.21.82-.04,1.66-.06,2.5-.06,5.4,0,10.79,0,16.46,0,.06,1.13.16,2.06.17,2.98.01,12.04.03,24.08.01,36.12-.02,10.26-7.32,17.74-17.52,17.9-4.88.08-9.77-.05-14.66.03-.35,0-.65-.02-.9-.07-1.03-.21-1.38-.89-1.36-2.23.08-5.15-.07-10.3.1-15.44.24-7.18,4.78-13.33,11.3-15.37.07.78.19,1.5.19,2.22.02,4.34.1,8.69.04,13.03-.02,1.15-.04,2.31-.08,3.46-.08,2.42.75,3.13,2.98,2.83.95-.13,1.92.03,2.87-.07,2.91-.3,5.29-2.41,5.31-5.21.07-6.73.03-13.47,0-20.2-.01-2.6-.03-5.2-.03-7.8,0-.06-.1-.14-.15-.2-15.72-2.71-29.67,7.15-32.89,21.72-.47,2.1-.64,4.31-.65,6.47-.07,9.15-.03,18.31-.03,27.78,1.05.05,1.96.14,2.88.14,1.03,0,2.06,0,3.1,0,7.43,0,14.86.03,22.29-.01,15.77-.08,28.12-12.46,28.21-28.28.03-4.97.06-9.95-.03-14.92-.03-1.67.45-2.37,2.21-2.3,3.03.11,6.06.03,9.43.03,0,6.22.07,12.13-.01,18.02-.16,10.41-3.96,19.38-11.16,26.83-2.27,2.35-4.94,4.32-7.14,6.21,3.35,3.32,7.05,6.41,10.03,10.08,5.5,6.76,8.19,14.71,8.28,23.45Z" style="fill: #eabf43; stroke-width: 0px;"/>
    <path d="m386.71,472.56v111.2h0c-.09.13-.43.6-.77,1.07-6.6,9.23-15.35,15.39-26.68,16.69-7.49.86-15.13.37-22.7.47-.14,0-.28-.17-.46-.3-.06-.21-.2-.46-.2-.7,0-13.26-.19-26.52.08-39.78.16-7.45,5.21-13.97,12.5-15.18,6.72-1.12,13.69-.68,20.56-.83.38,0,1.12.89,1.12,1.36-.02,6.27.25,12.59-.36,18.82-.61,6.16-5.88,11.72-11.14,12.7,0-6.14-.14-12.23.07-18.32.09-2.63-.81-3.46-3.24-3.1-.43.06-.87,0-1.31,0-4.49.07-6.68,2.3-6.69,6.83-.01,8.03-.02,16.05-.03,24.08,0,.92,0,1.84,0,2.94,2.15,0,3.88,0,5.62,0,15.76-.08,28.2-12.52,28.24-28.27.02-8.46,0-16.93,0-25.39,0-.85-.08-1.7-.14-2.68-.92-.06-1.68-.14-2.45-.14-8.73-.01-17.45-.06-26.17,0-15.11.09-27.59,12.6-27.71,27.71-.04,5.15.03,10.29-.07,15.44-.01.77-.63,2.17-1.02,2.19-3.45.17-6.9.1-10.55.1,0-6.26-.05-12.1.01-17.93.09-8.75,2.77-16.7,8.28-23.45,2.98-3.67,6.68-6.75,10.03-10.08-2.2-1.9-4.87-3.86-7.14-6.21-7.21-7.46-11.01-16.43-11.16-26.83-.08-5.9-.01-11.8-.01-18.02,3.37,0,6.41.08,9.43-.03,1.76-.07,2.23.63,2.21,2.3-.08,4.97-.05,9.95-.02,14.92.08,15.81,12.43,28.2,28.2,28.28,8.37.04,16.73.02,25.1,0h.3c.92,0,1.83-.08,2.88-.14,0-9.47.04-18.63-.03-27.78-.01-2.16-.18-4.37-.65-6.47-3.22-14.58-17.17-24.44-32.89-21.72-.05.06-.15.14-.15.2,0,.99,0,1.99-.01,2.98-.03,8.34-.11,16.68-.02,25.02.03,2.8,2.4,4.91,5.31,5.21.95.1,1.93-.06,2.87.07,2.23.3,3.06-.41,2.98-2.83-.09-2.78-.11-5.56-.1-8.34.01-2.72.05-5.43.06-8.14,0-.72.12-1.44.2-2.22,6.52,2.04,11.06,8.2,11.3,15.37.17,5.05.02,10.11.09,15.16,0,.09,0,.19,0,.28.03,1.67-.52,2.33-2.26,2.3-4.88-.08-9.77.04-14.66-.03-10.21-.16-17.51-7.64-17.52-17.9-.02-12.04,0-24.08,0-36.12,0-.92.1-1.85.17-2.98,5.67,0,11.07,0,16.46,0,.84,0,1.68.02,2.5.06,12.94.65,23.16,6.57,30.95,17.21.24.33.5.64.79.99Z" style="fill: #eabf43; stroke-width: 0px;"/>
  </g>
</svg>