<?xml version="1.0" encoding="UTF-8"?>
<svg id="Layer_2" data-name="Layer 2" xmlns="http://www.w3.org/2000/svg" viewBox="0 0 911.2 261.99">
  <g id="Layer_1-2" data-name="Layer 1">
    <g>
      <g>
        <path d="m346.19,121.53l-30.32-35.06v35.06h-12.85V43.18h12.85v35.74l30.44-35.74h16.12l-34.05,39.23,34.61,39.12h-16.8Z" style="fill: #fff; stroke-width: 0px;"/>
        <path d="m367.22,73.62c2.59-4.81,6.13-8.55,10.6-11.22,4.47-2.67,9.41-4,14.82-4,4.88,0,9.15.96,12.79,2.87s6.56,4.3,8.74,7.16v-9.02h12.97v62.11h-12.97v-9.24c-2.18,2.93-5.15,5.37-8.91,7.33-3.76,1.95-8.04,2.93-12.85,2.93-5.34,0-10.22-1.37-14.66-4.11-4.43-2.74-7.95-6.58-10.54-11.5-2.59-4.92-3.89-10.5-3.89-16.74s1.3-11.76,3.89-16.57Zm44.3,5.64c-1.77-3.16-4.08-5.56-6.93-7.22-2.86-1.65-5.94-2.48-9.24-2.48s-6.39.81-9.24,2.42c-2.86,1.62-5.17,3.98-6.93,7.1-1.77,3.12-2.65,6.82-2.65,11.1s.88,8.04,2.65,11.27c1.76,3.23,4.09,5.69,6.99,7.38,2.89,1.69,5.96,2.54,9.19,2.54s6.39-.83,9.24-2.48c2.86-1.65,5.17-4.08,6.93-7.27,1.76-3.19,2.65-6.93,2.65-11.22s-.88-8-2.65-11.16Z" style="fill: #fff; stroke-width: 0px;"/>
        <path d="m452.27,69.9v34.38c0,2.33.55,4,1.64,5.02,1.09,1.01,2.95,1.52,5.58,1.52h7.89v10.71h-10.15c-5.79,0-10.22-1.35-13.3-4.06-3.08-2.71-4.62-7.1-4.62-13.19v-34.38h-7.33v-10.48h7.33v-15.44h12.96v15.44h15.11v10.48h-15.11Z" style="fill: #fff; stroke-width: 0px;"/>
        <path d="m517.26,61.44c3.72,2.03,6.65,5.04,8.79,9.02,2.14,3.98,3.21,8.79,3.21,14.43v36.64h-12.74v-34.72c0-5.56-1.39-9.83-4.17-12.79-2.78-2.97-6.58-4.45-11.39-4.45s-8.62,1.48-11.44,4.45c-2.82,2.97-4.23,7.23-4.23,12.79v34.72h-12.85V38.11h12.85v28.52c2.18-2.63,4.94-4.66,8.29-6.09,3.34-1.43,7.01-2.14,10.99-2.14,4.73,0,8.96,1.01,12.68,3.04Z" style="fill: #fff; stroke-width: 0px;"/>
        <path d="m627.17,61.44c3.87,2.03,6.91,5.04,9.13,9.02,2.22,3.98,3.33,8.79,3.33,14.43v36.64h-12.74v-34.72c0-5.56-1.39-9.83-4.17-12.79-2.78-2.97-6.58-4.45-11.38-4.45s-8.62,1.48-11.44,4.45c-2.82,2.97-4.23,7.23-4.23,12.79v34.72h-12.74v-34.72c0-5.56-1.39-9.83-4.17-12.79-2.78-2.97-6.58-4.45-11.39-4.45s-8.62,1.48-11.44,4.45c-2.82,2.97-4.23,7.23-4.23,12.79v34.72h-12.85v-62.11h12.85v7.1c2.1-2.55,4.77-4.55,8-5.97,3.23-1.43,6.69-2.14,10.37-2.14,4.96,0,9.39,1.05,13.3,3.16,3.91,2.1,6.91,5.15,9.02,9.13,1.88-3.76,4.81-6.74,8.79-8.96,3.98-2.22,8.27-3.33,12.85-3.33,4.88,0,9.26,1.01,13.13,3.04Z" style="fill: #fff; stroke-width: 0px;"/>
        <path d="m648.82,73.62c2.59-4.81,6.13-8.55,10.6-11.22,4.47-2.67,9.41-4,14.82-4,4.88,0,9.15.96,12.79,2.87s6.56,4.3,8.74,7.16v-9.02h12.97v62.11h-12.97v-9.24c-2.18,2.93-5.15,5.37-8.91,7.33-3.76,1.95-8.04,2.93-12.85,2.93-5.34,0-10.22-1.37-14.66-4.11-4.43-2.74-7.95-6.58-10.54-11.5-2.59-4.92-3.89-10.5-3.89-16.74s1.3-11.76,3.89-16.57Zm44.3,5.64c-1.77-3.16-4.08-5.56-6.93-7.22-2.86-1.65-5.94-2.48-9.24-2.48s-6.39.81-9.24,2.42c-2.86,1.62-5.17,3.98-6.93,7.1-1.77,3.12-2.65,6.82-2.65,11.1s.88,8.04,2.65,11.27c1.76,3.23,4.09,5.69,6.99,7.38,2.89,1.69,5.96,2.54,9.19,2.54s6.39-.83,9.24-2.48c2.86-1.65,5.17-4.08,6.93-7.27,1.76-3.19,2.65-6.93,2.65-11.22s-.88-8-2.65-11.16Z" style="fill: #fff; stroke-width: 0px;"/>
        <path d="m763.35,61.44c3.87,2.03,6.89,5.04,9.07,9.02,2.18,3.98,3.27,8.79,3.27,14.43v36.64h-12.74v-34.72c0-5.56-1.39-9.83-4.17-12.79-2.78-2.97-6.58-4.45-11.39-4.45s-8.62,1.48-11.44,4.45c-2.82,2.97-4.23,7.23-4.23,12.79v34.72h-12.85v-62.11h12.85v7.1c2.1-2.55,4.79-4.55,8.06-5.97,3.27-1.43,6.74-2.14,10.43-2.14,4.88,0,9.26,1.01,13.13,3.04Z" style="fill: #fff; stroke-width: 0px;"/>
        <path d="m784.88,73.62c2.59-4.81,6.12-8.55,10.6-11.22,4.47-2.67,9.45-4,14.94-4,4.06,0,8.06.88,12.01,2.65,3.95,1.77,7.08,4.11,9.41,7.05v-29.99h12.96v83.42h-12.96v-9.36c-2.1,3.01-5.02,5.49-8.74,7.44s-7.99,2.93-12.79,2.93c-5.41,0-10.35-1.37-14.82-4.11-4.47-2.74-8-6.58-10.6-11.5-2.59-4.92-3.89-10.5-3.89-16.74s1.3-11.76,3.89-16.57Zm44.3,5.64c-1.77-3.16-4.08-5.56-6.93-7.22-2.86-1.65-5.94-2.48-9.24-2.48s-6.39.81-9.24,2.42c-2.86,1.62-5.17,3.98-6.93,7.1-1.77,3.12-2.65,6.82-2.65,11.1s.88,8.04,2.65,11.27c1.77,3.23,4.09,5.69,6.99,7.38,2.89,1.69,5.96,2.54,9.19,2.54s6.39-.83,9.24-2.48c2.86-1.65,5.17-4.08,6.93-7.27,1.77-3.19,2.65-6.93,2.65-11.22s-.88-8-2.65-11.16Z" style="fill: #fff; stroke-width: 0px;"/>
        <path d="m911.2,59.41v62.11h-12.85v-7.33c-2.03,2.56-4.68,4.57-7.95,6.03-3.27,1.47-6.75,2.2-10.43,2.2-4.89,0-9.26-1.01-13.13-3.04-3.87-2.03-6.92-5.03-9.13-9.02-2.22-3.98-3.32-8.79-3.32-14.43v-36.53h12.74v34.61c0,5.56,1.39,9.83,4.17,12.79,2.78,2.97,6.58,4.45,11.39,4.45s8.62-1.48,11.44-4.45c2.82-2.97,4.23-7.23,4.23-12.79v-34.61h12.85Z" style="fill: #fff; stroke-width: 0px;"/>
        <path d="m385.54,142.08v78.35h-12.85v-53.66l-23.9,53.66h-8.91l-24.01-53.66v53.66h-12.85v-78.35h13.87l27.51,61.44,27.39-61.44h13.75Z" style="fill: #fff; stroke-width: 0px;"/>
        <path d="m395.29,172.51c2.59-4.81,6.12-8.55,10.6-11.22,4.47-2.67,9.41-4,14.82-4,4.88,0,9.15.96,12.79,2.87,3.64,1.92,6.56,4.3,8.74,7.16v-9.02h12.96v62.11h-12.96v-9.24c-2.18,2.93-5.15,5.37-8.91,7.33-3.76,1.95-8.04,2.93-12.85,2.93-5.34,0-10.22-1.37-14.66-4.11-4.44-2.74-7.95-6.58-10.54-11.5-2.59-4.92-3.89-10.5-3.89-16.74s1.3-11.76,3.89-16.57Zm44.3,5.64c-1.77-3.16-4.08-5.56-6.93-7.22-2.86-1.65-5.94-2.48-9.24-2.48s-6.39.81-9.24,2.42c-2.86,1.62-5.17,3.98-6.93,7.1-1.77,3.12-2.65,6.82-2.65,11.1s.88,8.04,2.65,11.27c1.77,3.23,4.09,5.69,6.99,7.38,2.89,1.69,5.96,2.54,9.19,2.54s6.39-.83,9.24-2.48c2.86-1.65,5.17-4.08,6.93-7.27,1.77-3.19,2.65-6.93,2.65-11.22s-.88-8-2.65-11.16Z" style="fill: #fff; stroke-width: 0px;"/>
        <path d="m509.82,160.34c3.87,2.03,6.89,5.04,9.08,9.02,2.18,3.98,3.27,8.79,3.27,14.43v36.64h-12.74v-34.72c0-5.56-1.39-9.83-4.17-12.79-2.78-2.97-6.58-4.45-11.39-4.45s-8.62,1.48-11.44,4.45c-2.82,2.97-4.23,7.23-4.23,12.79v34.72h-12.85v-62.11h12.85v7.1c2.1-2.55,4.79-4.55,8.06-5.97,3.27-1.43,6.74-2.14,10.43-2.14,4.88,0,9.26,1.01,13.13,3.04Z" style="fill: #fff; stroke-width: 0px;"/>
        <path d="m531.35,172.51c2.59-4.81,6.13-8.55,10.6-11.22,4.47-2.67,9.45-4,14.94-4,4.06,0,8.06.88,12.01,2.65,3.95,1.77,7.08,4.11,9.41,7.05v-29.99h12.97v83.42h-12.97v-9.36c-2.1,3.01-5.02,5.49-8.74,7.44-3.72,1.95-7.99,2.93-12.79,2.93-5.41,0-10.35-1.37-14.82-4.11-4.47-2.74-8-6.58-10.6-11.5-2.59-4.92-3.89-10.5-3.89-16.74s1.3-11.76,3.89-16.57Zm44.3,5.64c-1.77-3.16-4.08-5.56-6.93-7.22-2.86-1.65-5.94-2.48-9.24-2.48s-6.39.81-9.24,2.42c-2.86,1.62-5.17,3.98-6.93,7.1-1.77,3.12-2.65,6.82-2.65,11.1s.88,8.04,2.65,11.27c1.76,3.23,4.09,5.69,6.99,7.38,2.89,1.69,5.96,2.54,9.19,2.54s6.39-.83,9.24-2.48c2.86-1.65,5.17-4.08,6.93-7.27,1.76-3.19,2.65-6.93,2.65-11.22s-.88-8-2.65-11.16Z" style="fill: #fff; stroke-width: 0px;"/>
        <path d="m601.02,172.51c2.59-4.81,6.12-8.55,10.6-11.22,4.47-2.67,9.41-4,14.82-4,4.88,0,9.15.96,12.79,2.87,3.64,1.92,6.56,4.3,8.74,7.16v-9.02h12.96v62.11h-12.96v-9.24c-2.18,2.93-5.15,5.37-8.91,7.33-3.76,1.95-8.04,2.93-12.85,2.93-5.34,0-10.22-1.37-14.66-4.11-4.44-2.74-7.95-6.58-10.54-11.5-2.59-4.92-3.89-10.5-3.89-16.74s1.3-11.76,3.89-16.57Zm44.3,5.64c-1.77-3.16-4.08-5.56-6.93-7.22-2.86-1.65-5.94-2.48-9.24-2.48s-6.39.81-9.24,2.42c-2.86,1.62-5.17,3.98-6.93,7.1-1.77,3.12-2.65,6.82-2.65,11.1s.88,8.04,2.65,11.27c1.77,3.23,4.09,5.69,6.99,7.38,2.89,1.69,5.96,2.54,9.19,2.54s6.39-.83,9.24-2.48c2.86-1.65,5.17-4.08,6.93-7.27,1.77-3.19,2.65-6.93,2.65-11.22s-.88-8-2.65-11.16Z" style="fill: #fff; stroke-width: 0px;"/>
        <path d="m683.93,137v83.42h-12.85v-83.42h12.85Z" style="fill: #fff; stroke-width: 0px;"/>
        <path d="m693.68,172.51c2.59-4.81,6.12-8.55,10.6-11.22,4.47-2.67,9.41-4,14.82-4,4.88,0,9.15.96,12.79,2.87,3.64,1.92,6.56,4.3,8.74,7.16v-9.02h12.96v62.11h-12.96v-9.24c-2.18,2.93-5.15,5.37-8.91,7.33-3.76,1.95-8.04,2.93-12.85,2.93-5.34,0-10.22-1.37-14.66-4.11-4.44-2.74-7.95-6.58-10.54-11.5-2.59-4.92-3.89-10.5-3.89-16.74s1.3-11.76,3.89-16.57Zm44.3,5.64c-1.77-3.16-4.08-5.56-6.93-7.22-2.86-1.65-5.94-2.48-9.24-2.48s-6.39.81-9.24,2.42c-2.86,1.62-5.17,3.98-6.93,7.1-1.77,3.12-2.65,6.82-2.65,11.1s.88,8.04,2.65,11.27c1.77,3.23,4.09,5.69,6.99,7.38,2.89,1.69,5.96,2.54,9.19,2.54s6.39-.83,9.24-2.48c2.86-1.65,5.17-4.08,6.93-7.27,1.77-3.19,2.65-6.93,2.65-11.22s-.88-8-2.65-11.16Z" style="fill: #fff; stroke-width: 0px;"/>
      </g>
      <g>
        <path d="m147.47,81.87c.45-2.75.19-5.53-1.15-8.04-2.42,1.51-4.05,3.79-5.03,6.4.32-5.46,2.38-10.8,6.97-13.67h0c2.55,4.78,1.66,10.43-.8,15.31Z" style="fill: #db9b09; stroke-width: 0px;"/>
        <path d="m178.16,178.17c-5.42-.19-9.87-3.78-12.87-8.35,2.16,1.78,4.71,2.94,7.56,3.04-.1-2.85-1.26-5.4-3.03-7.56,4.57,3,8.17,7.45,8.35,12.87Z" style="fill: #db9b09; stroke-width: 0px;"/>
        <path d="m131,221.8c4.46-3.27,7.36-8.5,7.07-14.15-.15-2.95-1.09-5.88-2.71-8.36-1.2-1.83-2.73-3.14-4.36-4.37h0c-1.63,1.24-3.16,2.54-4.36,4.37-1.62,2.47-2.56,5.41-2.71,8.36-.29,5.65,2.61,10.88,7.07,14.15Zm-2.91-15.34c.4-2.53,1.48-4.39,2.91-5.99,1.43,1.59,2.51,3.46,2.91,5.99.58,3.65-.61,7.2-2.91,9.9-2.31-2.7-3.49-6.25-2.91-9.9Z" style="fill: #db9b09; stroke-width: 0px;"/>
        <path d="m178.16,83.83c-.19,5.42-3.78,9.87-8.35,12.87,1.78-2.16,2.94-4.71,3.03-7.56-2.86.1-5.41,1.27-7.57,3.05,3-4.58,7.46-8.18,12.88-8.37Z" style="fill: #db9b09; stroke-width: 0px;"/>
        <path d="m176.4,209.63c2.23-5.06,2.13-11.04-.95-15.79-1.61-2.48-3.88-4.55-6.53-5.88-1.96-.99-3.93-1.35-5.97-1.61h0c-.79,1.89-1.47,3.78-1.59,5.97-.17,2.95.49,5.96,1.83,8.59,2.57,5.04,7.7,8.12,13.2,8.72Zm-10.66-18.47c2.04.66,3.91,1.74,5.52,3.73,2.33,2.87,3.08,6.54,2.43,10.03-3.35-1.18-6.15-3.67-7.47-7.12-.91-2.39-.91-4.54-.47-6.64Z" style="fill: #db9b09; stroke-width: 0px;"/>
        <path d="m68.15,175.45c2.48-1.61,4.55-3.88,5.88-6.53.99-1.96,1.35-3.93,1.61-5.97h0c-1.89-.8-3.78-1.47-5.97-1.59-2.95-.17-5.96.49-8.59,1.83-5.04,2.57-8.12,7.7-8.72,13.2,5.06,2.23,11.04,2.13,15.79-.95Zm-3.96-9.24c2.39-.92,4.54-.91,6.64-.47-.66,2.04-1.74,3.91-3.73,5.52-2.87,2.33-6.54,3.08-10.03,2.43,1.18-3.35,3.67-6.15,7.12-7.47Z" style="fill: #db9b09; stroke-width: 0px;"/>
        <path d="m195.43,113.73c-2.87,4.6-8.22,6.66-13.68,6.97,2.62-.98,4.91-2.61,6.42-5.03-2.52-1.34-5.31-1.61-8.07-1.15,4.89-2.46,10.54-3.34,15.33-.79Z" style="fill: #db9b09; stroke-width: 0px;"/>
        <path d="m148.26,195.43c-4.6-2.87-6.66-8.21-6.98-13.67.98,2.62,2.62,4.9,5.03,6.41,1.34-2.51,1.61-5.3,1.15-8.05,2.46,4.88,3.34,10.53.8,15.31Z" style="fill: #db9b09; stroke-width: 0px;"/>
        <path d="m80.23,120.71c-5.46-.31-10.8-2.37-13.67-6.97,4.78-2.55,10.43-1.67,15.31.79-2.75-.45-5.54-.19-8.05,1.15,1.51,2.42,3.79,4.05,6.41,5.03Z" style="fill: #db9b09; stroke-width: 0px;"/>
        <path d="m96.71,169.8c-3,4.57-7.46,8.18-12.88,8.36.19-5.42,3.79-9.88,8.36-12.88-1.78,2.16-2.94,4.72-3.04,7.57,2.86-.1,5.41-1.27,7.56-3.05Z" style="fill: #db9b09; stroke-width: 0px;"/>
        <path d="m195.43,148.26c-4.78,2.55-10.44,1.67-15.33-.79,2.75.46,5.55.19,8.07-1.15-1.51-2.42-3.79-4.05-6.4-5.03,5.46.32,10.8,2.37,13.67,6.97Z" style="fill: #db9b09; stroke-width: 0px;"/>
        <path d="m98.79,200.92c1.34-2.63,2-5.64,1.83-8.59-.13-2.19-.8-4.08-1.59-5.97-2.03.25-4.01.62-5.97,1.61-2.64,1.33-4.92,3.4-6.53,5.88-3.08,4.75-3.18,10.73-.95,15.79,5.5-.6,10.63-3.68,13.2-8.72Zm-8.05-6.02c1.61-1.99,3.48-3.06,5.52-3.73h0c.44,2.1.45,4.25-.47,6.64-1.32,3.45-4.13,5.93-7.47,7.12-.65-3.49.1-7.16,2.43-10.03Z" style="fill: #db9b09; stroke-width: 0px;"/>
        <path d="m120.7,181.78c-.32,5.44-2.37,10.78-6.97,13.65-2.55-4.78-1.66-10.44.79-15.32-.45,2.75-.19,5.54,1.15,8.06h0c2.41-1.51,4.04-3.78,5.02-6.39Z" style="fill: #db9b09; stroke-width: 0px;"/>
        <path d="m131,40.19c-4.46,3.27-7.36,8.5-7.07,14.15.15,2.95,1.09,5.88,2.71,8.36,1.2,1.83,2.73,3.14,4.36,4.37,1.63-1.24,3.16-2.54,4.36-4.37,1.62-2.47,2.56-5.41,2.71-8.36.29-5.65-2.61-10.88-7.07-14.15Zm2.91,15.34c-.4,2.53-1.48,4.39-2.91,5.99-1.43-1.59-2.51-3.46-2.91-5.99-.58-3.65.61-7.2,2.91-9.9,2.31,2.7,3.49,6.25,2.91,9.9Z" style="fill: #db9b09; stroke-width: 0px;"/>
        <path d="m81.87,147.47c-4.88,2.46-10.53,3.34-15.31.79,2.87-4.6,8.22-6.67,13.67-6.97-2.62.98-4.9,2.61-6.41,5.03,2.51,1.34,5.3,1.61,8.05,1.15Z" style="fill: #db9b09; stroke-width: 0px;"/>
        <path d="m211.11,158.11s-.04-.02-.05-.03c-1.8-1.66-3.84-3.09-5.98-4.33,1.99-.43,3.99-.87,5.98-1.3l-8.58-2.3c-1.29.28-2.59.56-3.88.84-8.3,1.81-21.06,5.45-26.2-4-.32-.58-.78-.88-1.27-.98-.05-.02-.1-.04-.14-.05-1.15-.29-2.06.42-2.46,1.44-.56,1.41-1.26,2.77-2.08,4.05-.71,1.35-1.53,2.64-2.47,3.83-.68.86-.84,2-.02,2.85.04.04.08.06.12.1.33.38.82.63,1.48.62,10.76-.27,13.98,12.6,16.57,20.69.4,1.26.81,2.52,1.21,3.78l6.28,6.28c-.62-1.94-1.24-3.89-1.86-5.83,2.15,1.23,4.41,2.29,6.74,3.01.02,0,.03.02.05.03,7.14,3.56,9.52,10.32,9.84,17.55l.32.32-.32-.32c-7.23-.32-13.99-2.69-17.55-9.84,0-.02-.02-.03-.03-.05-.73-2.33-1.78-4.59-3.01-6.74,1.94.62,3.89,1.24,5.83,1.86l-6.28-6.28c-1.26-.4-2.52-.81-3.78-1.21-8.09-2.58-20.96-5.81-20.69-16.57.02-.66-.23-1.16-.62-1.48-.03-.04-.06-.08-.1-.12-.85-.82-1.99-.66-2.85.02-1.18.94-2.48,1.77-3.83,2.47-1.29.82-2.65,1.52-4.05,2.08-1.02.4-1.73,1.31-1.44,2.46.01.05.04.1.05.14.09.49.39.96.98,1.27,9.46,5.14,5.81,17.9,4,26.2-.28,1.29-.56,2.59-.84,3.88-.89-.98-1.78-1.96-2.67-2.94-5.71-6.28-15.25-15.51-9.63-24.69.35-.57.38-1.12.21-1.59,0-.05-.01-.1-.03-.15-.33-1.14-1.4-1.57-2.48-1.41-1.49.22-3.03.29-4.55.23h0c-1.52.06-3.06,0-4.55-.23-1.09-.16-2.15.27-2.48,1.41-.01.05-.02.1-.03.15-.17.47-.14,1.03.21,1.59,5.62,9.18-3.92,18.41-9.63,24.69-.89.98-1.78,1.96-2.67,2.94-.28-1.29-.56-2.59-.84-3.88-1.81-8.3-5.45-21.06,4-26.2.58-.32.88-.78.98-1.27.02-.05.04-.1.05-.14.29-1.15-.42-2.06-1.44-2.46-1.41-.56-2.77-1.26-4.05-2.08-1.35-.71-2.64-1.53-3.83-2.47-.86-.68-2-.84-2.85-.02-.04.03-.07.08-.1.12-.38.33-.63.82-.62,1.48.27,10.76-12.6,13.98-20.69,16.57-1.26.4-2.52.81-3.78,1.21.4-1.26.81-2.52,1.21-3.78,2.58-8.09,5.81-20.96,16.57-20.69.66.02,1.16-.23,1.48-.62.04-.03.08-.06.12-.1.82-.85.66-1.99-.02-2.85-.94-1.18-1.77-2.48-2.47-3.83-.82-1.29-1.52-2.65-2.08-4.05-.4-1.02-1.31-1.73-2.46-1.44-.05.01-.1.04-.14.05-.49.09-.96.39-1.27.98-5.14,9.46-17.9,5.81-26.2,4-1.29-.28-2.59-.56-3.88-.84l-8.58,2.3c1.99.44,3.99.87,5.98,1.3-2.14,1.24-4.18,2.67-5.98,4.33-.02.01-.03.02-.05.03-6.65,4.41-13.7,3.09-20.12-.26l-.43.12-4.95,1.33-.06.02c-6.2,11.33-7.1,24.46-7.76,37.18h0c11.34,5.79,23.16,11.57,36.08,11.87l.05-.04-.04.04c.29,12.92,6.08,24.74,11.87,36.08,12.72-.66,25.85-1.56,37.18-7.76l.02-.06-.02.06c6.71,11.04,17.63,18.38,28.32,25.31,10.68-6.93,21.6-14.27,28.32-25.32h0c11.33,6.21,24.46,7.1,37.18,7.76,5.79-11.34,11.57-23.16,11.87-36.08,12.92-.29,24.74-6.08,36.08-11.87-.66-12.72-1.56-25.85-7.76-37.18l-.06-.02-4.95-1.33-.43-.12c-6.42,3.34-13.47,4.66-20.12.26Zm-24.84,47.6c.39-1.27.73-2.51.95-3.74,2.52,2.48,5.58,4.1,8.93,5.08.32,4.46-1.28,9.44-2.71,13.52-1.22,3.5-2.79,6.99-4.91,10.08-3.73.28-7.55-.1-11.18-.79-4.24-.8-9.36-1.9-13.06-4.41.82-3.39.95-6.84.06-10.27,1.18.42,2.42.75,3.71,1.05,4.66,1.06,9.31,2.12,13.97,3.17,1.41-4.56,2.83-9.12,4.24-13.69Zm-34.47-34.85c.56-.3,1.12-.62,1.66-.96.57-.3,1.12-.62,1.66-.96,1.7,8.4,10.5,12.88,18.26,15.43,1.46.48,2.92.95,4.38,1.42,2.28,3.27,4.48,6.93,5.46,10.82.97,3.87-.71,7.63-1.84,11.29-.69,2.24-1.39,4.49-2.08,6.73-2.29-.52-4.58-1.04-6.87-1.56-3.74-.85-7.83-1.27-10.7-4.05-2.88-2.79-4.95-6.52-6.64-10.14.32-1.5.64-3,.96-4.51,1.66-8,2.19-17.85-4.24-23.53Zm-33.89,30.98c1.03-1.14,2.06-2.28,3.08-3.42,5.44-6.09,10.82-14.36,8.1-22.49.64.02,1.28.02,1.92,0,.64.02,1.28.02,1.92,0-2.73,8.13,2.66,16.4,8.1,22.49,1.02,1.15,2.05,2.28,3.08,3.42.34,3.98.42,8.24-.68,12.1-1.09,3.84-4.43,6.25-7.24,8.86-1.72,1.6-3.45,3.19-5.17,4.79-1.72-1.6-3.45-3.19-5.17-4.79-2.81-2.6-6.15-5.02-7.24-8.86-1.1-3.86-1.02-8.12-.68-12.1Zm-.11,18.74c.81.95,1.72,1.86,2.69,2.77,3.5,3.25,7.01,6.49,10.51,9.73,3.5-3.24,7.01-6.49,10.51-9.73.98-.91,1.88-1.81,2.69-2.77.94,3.41,2.79,6.34,5.19,8.87-1.95,4.03-5.83,7.54-9.1,10.35-2.81,2.42-5.92,4.66-9.29,6.28-3.38-1.62-6.49-3.86-9.29-6.28-3.27-2.82-7.15-6.33-9.1-10.35,2.4-2.53,4.25-5.45,5.19-8.87Zm-39.01-23.96c.98-3.89,3.18-7.54,5.46-10.82,1.46-.47,2.92-.94,4.38-1.42,7.76-2.56,16.55-7.03,18.26-15.43.54.34,1.1.65,1.66.96.54.34,1.1.66,1.66.96-6.43,5.68-5.9,15.53-4.24,23.53.31,1.5.64,3,.96,4.51-1.69,3.61-3.76,7.34-6.64,10.14-2.87,2.78-6.96,3.2-10.7,4.05-2.29.52-4.58,1.04-6.87,1.56h0c-.69-2.24-1.39-4.49-2.08-6.73-1.13-3.66-2.82-7.42-1.84-11.29Zm18.93,28.83c-3.7,2.51-8.82,3.61-13.06,4.41-3.64.69-7.45,1.08-11.18.79-2.11-3.09-3.69-6.59-4.91-10.08-1.42-4.08-3.03-9.06-2.71-13.52,3.34-.98,6.4-2.6,8.93-5.08.22,1.23.56,2.47.95,3.74,1.41,4.56,2.82,9.12,4.24,13.69,4.66-1.06,9.31-2.11,13.97-3.17,1.3-.3,2.54-.62,3.71-1.05-.89,3.43-.76,6.88.06,10.27Zm-48.79-53.03c.85-3.74,1.27-7.83,4.05-10.7,2.79-2.88,6.52-4.95,10.14-6.64,1.5.32,3,.64,4.51.96,8,1.66,17.85,2.19,23.53-4.24.3.56.62,1.12.96,1.66.3.56.62,1.12.96,1.66-8.4,1.7-12.88,10.5-15.43,18.26-.48,1.46-.95,2.92-1.42,4.38-3.27,2.28-6.93,4.48-10.82,5.46-3.87.97-7.63-.71-11.29-1.84-2.24-.69-4.49-1.39-6.73-2.08.52-2.29,1.04-4.58,1.56-6.87Zm4.76,31.91c-11.41-.29-21.88-5.13-31.96-10.23.62-11.28,1.66-22.77,7.12-32.8,1.25.66,2.53,1.25,3.82,1.75-2.33,4.01-3.57,8.83-4.42,13.26-.89,4.68-1.37,9.66-.73,14.44,3.83,2.94,8.38,5.02,12.88,6.59,4.26,1.49,9.05,2.82,13.69,2.81-.21,1.37-.33,2.77-.39,4.18Zm-12.25-10.89c-3.5-1.22-6.99-2.79-10.08-4.91-.28-3.73.1-7.55.79-11.18.8-4.24,1.9-9.36,4.41-13.06,3.39.82,6.84.95,10.27.06-.42,1.18-.75,2.42-1.05,3.71-1.06,4.66-2.12,9.31-3.17,13.97,4.56,1.41,9.12,2.83,13.69,4.24,1.27.39,2.51.73,3.74.95-2.48,2.52-4.1,5.58-5.08,8.93-4.46.32-9.44-1.28-13.52-2.71Zm26.03-6.62s.03-.02.05-.03c2.33-.73,4.59-1.78,6.74-3.01-.62,1.94-1.24,3.89-1.86,5.83,1.94-.62,3.89-1.24,5.83-1.86-1.23,2.15-2.29,4.41-3.01,6.74,0,.02-.02.03-.03.05-3.56,7.14-10.32,9.52-17.55,9.84.32-7.23,2.69-13.99,9.84-17.55Zm.45,53.46c-5.1-10.08-9.94-20.55-10.24-31.96,1.41-.06,2.81-.19,4.18-.39-.02,4.64,1.32,9.43,2.81,13.69,1.57,4.5,3.65,9.05,6.59,12.88,4.79.63,9.76.15,14.44-.73,4.43-.84,9.25-2.08,13.26-4.42.51,1.29,1.1,2.57,1.75,3.82-10.03,5.45-21.52,6.49-32.8,7.12Zm36.12-8.61l.12-.43c-3.34-6.42-4.66-13.47-.26-20.12.01-.02.02-.03.03-.05,1.66-1.8,3.09-3.84,4.33-5.98.43,1.99.87,3.99,1.3,5.98,1.37-1.51,2.75-3.02,4.12-4.53,0,2.48.22,4.96.76,7.35,0,.02,0,.04,0,.06.49,7.97-4.18,13.41-10.28,17.3l-.12.43Zm26.97,25.52c-9.46-6.18-18.89-12.82-24.84-22.56,1.19-.76,2.34-1.57,3.43-2.43,2.3,4.03,5.86,7.51,9.28,10.45,3.61,3.11,7.68,6.01,12.14,7.86h0c4.46-1.85,8.53-4.75,12.14-7.86,3.42-2.95,6.97-6.43,9.27-10.45,1.08.87,2.23,1.67,3.43,2.43-5.96,9.74-15.39,16.38-24.84,22.56Zm26.86-25.95l.12.43,1.33,4.95v.03s0-.03,0-.03l-1.33-4.95-.12-.43c-6.1-3.89-10.77-9.33-10.28-17.3,0-.02,0-.04,0-.06.54-2.38.76-4.87.76-7.35,1.37,1.51,2.74,3.02,4.12,4.53.44-1.99.87-3.99,1.3-5.98,1.24,2.14,2.67,4.18,4.33,5.98.01.02.02.03.03.05,4.41,6.65,3.09,13.7-.26,20.12Zm36.24,9.04c-11.28-.62-22.77-1.66-32.8-7.12.66-1.25,1.25-2.53,1.75-3.82,4.01,2.33,8.82,3.57,13.26,4.42,4.68.89,9.66,1.37,14.45.73,2.94-3.83,5.02-8.38,6.59-12.88,1.49-4.26,2.82-9.05,2.81-13.69,1.37.21,2.77.33,4.18.39-.29,11.41-5.13,21.88-10.24,31.96Zm2.52-57.07c-3.89-.98-7.54-3.18-10.82-5.46-.47-1.46-.94-2.92-1.42-4.38-2.56-7.76-7.03-16.55-15.43-18.26.34-.54.65-1.1.96-1.66.34-.54.66-1.1.96-1.66,5.68,6.43,15.53,5.9,23.53,4.24,1.5-.31,3-.64,4.51-.96,3.61,1.69,7.34,3.76,10.14,6.64,2.78,2.87,3.2,6.96,4.05,10.7.52,2.29,1.04,4.58,1.56,6.87-2.24.69-4.49,1.39-6.73,2.08-3.66,1.13-7.42,2.82-11.29,1.84Zm5.36,4.01c1.23-.22,2.47-.56,3.74-.95,4.56-1.41,9.12-2.82,13.69-4.24-1.06-4.66-2.11-9.31-3.17-13.97-.3-1.3-.62-2.54-1.05-3.71,3.43.89,6.88.76,10.27-.06,2.51,3.7,3.61,8.82,4.41,13.06.69,3.64,1.08,7.45.79,11.18-3.09,2.11-6.59,3.69-10.08,4.91-4.08,1.42-9.06,3.03-13.52,2.71-.98-3.34-2.6-6.4-5.08-8.93Zm31.19-25.93c5.45,10.03,6.49,21.52,7.12,32.8-10.08,5.1-20.55,9.94-31.96,10.24-.06-1.41-.19-2.81-.39-4.18,4.64.02,9.43-1.32,13.69-2.81,4.5-1.57,9.05-3.65,12.88-6.59.63-4.79.15-9.76-.73-14.44-.84-4.43-2.08-9.25-4.42-13.26,1.29-.51,2.57-1.1,3.82-1.75Z" style="fill: #db9b09; stroke-width: 0px;"/>
        <path d="m40.19,131c3.27,4.47,8.5,7.36,14.15,7.07,2.95-.15,5.88-1.09,8.36-2.71,1.83-1.2,3.14-2.73,4.37-4.36-1.24-1.63-2.54-3.16-4.37-4.36-2.47-1.62-5.41-2.56-8.36-2.71-5.65-.29-10.88,2.61-14.15,7.07Zm15.34-2.91c2.53.4,4.39,1.48,5.99,2.91-1.59,1.43-3.46,2.51-5.99,2.91-3.65.58-7.2-.61-9.9-2.91,2.7-2.31,6.25-3.49,9.9-2.91Z" style="fill: #db9b09; stroke-width: 0px;"/>
        <path d="m85.59,52.36c-2.23,5.06-2.13,11.04.95,15.79,1.61,2.48,3.88,4.55,6.53,5.88,1.96.99,3.93,1.35,5.97,1.61.79-1.89,1.47-3.78,1.59-5.97.17-2.95-.49-5.96-1.83-8.59-2.57-5.04-7.7-8.12-13.2-8.72Zm10.66,18.47c-2.04-.66-3.91-1.74-5.52-3.73-2.33-2.87-3.08-6.54-2.43-10.03,3.35,1.18,6.15,3.67,7.47,7.12.91,2.39.91,4.54.47,6.64Z" style="fill: #db9b09; stroke-width: 0px;"/>
        <path d="m120.7,80.21c-.99-2.61-2.62-4.88-5.02-6.38,0,0,0,0,0,0-1.34,2.51-1.61,5.3-1.15,8.05-2.46-4.88-3.34-10.54-.79-15.31,4.59,2.86,6.66,8.2,6.97,13.65Z" style="fill: #db9b09; stroke-width: 0px;"/>
        <path d="m68.15,86.54c-4.75-3.08-10.73-3.18-15.79-.95.6,5.5,3.68,10.63,8.72,13.2,2.63,1.34,5.64,2,8.59,1.83,2.19-.13,4.08-.8,5.97-1.59-.26-2.03-.62-4.01-1.61-5.97-1.33-2.64-3.4-4.92-5.88-6.53Zm-3.96,9.24c-3.45-1.32-5.93-4.13-7.12-7.47,3.49-.65,7.16.1,10.03,2.43,1.99,1.61,3.06,3.48,3.73,5.52-2.1.44-4.25.45-6.64-.47Z" style="fill: #db9b09; stroke-width: 0px;"/>
        <path d="m55.46,113.66c-2.48,0-4.96.22-7.35.76-.02,0-.04,0-.06,0-7.97.49-13.41-4.18-17.3-10.28l-.43-.12-4.95-1.33-.06-.02c-11.04,6.71-18.38,17.63-25.31,28.32,6.93,10.68,14.27,21.6,25.31,28.32l.06-.02,4.95-1.33.43-.12c3.89-6.1,9.33-10.77,17.3-10.28.02,0,.04,0,.06,0,2.38.54,4.87.75,7.35.76-1.51,1.37-3.02,2.74-4.53,4.12l8.58-2.3c.98-.89,1.96-1.78,2.94-2.67,6.28-5.71,15.51-15.25,24.69-9.63.57.35,1.12.38,1.59.21.05,0,.1-.01.15-.03,1.14-.33,1.57-1.4,1.41-2.48-.22-1.49-.29-3.03-.23-4.55-.06-1.52,0-3.06.23-4.55.16-1.09-.27-2.15-1.41-2.48-.05-.01-.1-.02-.15-.03-.47-.17-1.03-.14-1.59.21-9.18,5.62-18.41-3.92-24.69-9.63-.98-.89-1.96-1.78-2.94-2.67l-8.58-2.3c1.51,1.37,3.02,2.75,4.53,4.12Zm-28.09,42.18c-9.74-5.96-16.38-15.39-22.56-24.84,6.18-9.46,12.82-18.89,22.56-24.84.76,1.19,1.57,2.34,2.43,3.43-4.03,2.3-7.51,5.86-10.45,9.28-3.11,3.61-6.01,7.68-7.86,12.14,1.85,4.46,4.75,8.53,7.86,12.14,2.95,3.42,6.43,6.97,10.45,9.28-.87,1.08-1.67,2.23-2.43,3.43Zm5.18-6.45c-4.02-1.95-7.54-5.83-10.35-9.1-2.42-2.81-4.66-5.92-6.28-9.29,1.62-3.37,3.86-6.48,6.28-9.29,2.82-3.27,6.33-7.15,10.35-9.1,2.53,2.4,5.45,4.25,8.87,5.19-.95.81-1.86,1.72-2.77,2.69-3.25,3.5-6.49,7.01-9.73,10.51h0c3.24,3.5,6.49,7.01,9.73,10.51.91.98,1.81,1.88,2.77,2.69-3.41.94-6.34,2.79-8.87,5.19Zm27.6-31.49c1.14,1.03,2.28,2.06,3.42,3.08,6.09,5.44,14.36,10.82,22.49,8.09-.02.64-.02,1.28,0,1.92-.02.64-.02,1.28,0,1.92-8.13-2.73-16.4,2.66-22.49,8.1-1.15,1.02-2.28,2.05-3.42,3.08-3.98.34-8.24.42-12.1-.68-3.84-1.09-6.25-4.43-8.86-7.24-1.6-1.72-3.19-3.45-4.79-5.17,1.6-1.72,3.19-3.45,4.79-5.17,2.6-2.81,5.02-6.15,8.86-7.24,3.86-1.1,8.12-1.02,12.1-.68Z" style="fill: #db9b09; stroke-width: 0px;"/>
        <path d="m89.14,89.14c.1,2.86,1.26,5.41,3.04,7.57-4.57-3-8.17-7.46-8.36-12.88,5.42.19,9.88,3.79,12.88,8.36-2.16-1.78-4.71-2.94-7.56-3.05Z" style="fill: #db9b09; stroke-width: 0px;"/>
        <path d="m95.1,131c.4,3.11,1.06,6.14,1.97,9.09l3.87-1.04c-.46-1.45-.85-2.93-1.17-4.43,1.26.72,2.57,1.34,3.95,1.85,1.16.43,2.43.62,3.69.84l3.26-.87,3.26-.87.65-.17c-.36-1.43-.56-2.9-.6-4.4.04-1.5.25-2.98.6-4.4.4-1.41.96-2.79,1.68-4.11.79-1.28,1.7-2.45,2.72-3.51,1.06-1.02,2.23-1.94,3.51-2.72,1.32-.72,2.7-1.28,4.11-1.68,1.43-.36,2.9-.56,4.4-.6,1.5.04,2.98.24,4.4.6h0c1.41.4,2.79.96,4.11,1.68,1.28.79,2.45,1.7,3.51,2.72,1.02,1.06,1.94,2.23,2.72,3.51.72,1.32,1.28,2.7,1.68,4.11.36,1.43.56,2.9.6,4.4-.04,1.5-.24,2.98-.6,4.4-.4,1.41-.96,2.79-1.68,4.11-.79,1.28-1.7,2.45-2.72,3.51-1.06,1.02-2.23,1.94-3.51,2.72-1.32.72-2.7,1.28-4.11,1.68-1.43.36-2.9.56-4.4.6-1.5-.04-2.98-.24-4.4-.6l-.17.65.17-.65c-1.41-.4-2.79-.96-4.11-1.68-1.28-.79-2.45-1.7-3.51-2.72-1.02-1.06-1.94-2.23-2.72-3.51-.72-1.32-1.28-2.7-1.68-4.11l-.64.17-3.26.87-3.26.87c-.98.82-1.98,1.63-2.77,2.57-.94,1.13-1.76,2.33-2.49,3.58-.47-1.46-.87-2.93-1.2-4.42l-3.87,1.04c.69,3.01,1.64,5.97,2.84,8.86h.02c1.9,2.48,3.98,4.78,6.24,6.88,2.1,2.26,4.4,4.34,6.89,6.24v.02c2.88,1.21,5.84,2.15,8.85,2.84,2.95.91,5.99,1.56,9.09,1.97,3.1-.4,6.14-1.06,9.09-1.97l-1.04-3.87c-1.45.46-2.93.85-4.43,1.17.72-1.26,1.34-2.57,1.85-3.95.43-1.16.62-2.43.84-3.69.82.98,1.63,1.98,2.57,2.77,1.13.94,2.33,1.76,3.58,2.49-1.46.47-2.93.87-4.42,1.2l1.04,3.87c3.01-.69,5.97-1.64,8.86-2.84v-.02c2.48-1.9,4.78-3.98,6.88-6.24l-2.83-2.83c-1.03,1.12-2.11,2.21-3.24,3.23-.01-1.45-.12-2.9-.37-4.34-.21-1.21-.67-2.42-1.11-3.62,1.2.44,2.4.91,3.62,1.11,1.45.25,2.89.36,4.34.37-1.02,1.14-2.11,2.21-3.23,3.24l2.83,2.83c2.26-2.1,4.34-4.4,6.24-6.89h.02c1.21-2.88,2.15-5.84,2.84-8.85.91-2.95,1.57-5.99,1.97-9.09-.4-3.11-1.06-6.14-1.97-9.09l-3.87,1.04c.46,1.45.85,2.93,1.17,4.43-1.26-.72-2.57-1.34-3.95-1.85-1.16-.43-2.43-.62-3.69-.84.98-.82,1.98-1.63,2.77-2.57.94-1.13,1.76-2.33,2.49-3.58.47,1.46.87,2.93,1.2,4.42l3.87-1.04c-.69-3.01-1.64-5.97-2.84-8.86h-.02c-1.9-2.48-3.98-4.78-6.24-6.88-2.1-2.26-4.4-4.34-6.89-6.24v-.02c-2.88-1.21-5.84-2.15-8.85-2.84h0s0,0,0,0c-2.95-.91-5.99-1.56-9.09-1.97-3.11.4-6.14,1.06-9.09,1.97-3.01.69-5.97,1.64-8.86,2.84v.02c-2.48,1.9-4.78,3.98-6.88,6.24l2.83,2.83c1.03-1.12,2.11-2.21,3.24-3.23.01,1.45.12,2.9.37,4.34.21,1.21.67,2.42,1.11,3.62l2.39,2.39,2.39,2.39-2.39-2.39-2.39-2.39c-1.2-.44-2.4-.91-3.62-1.11-1.45-.25-2.89-.36-4.34-.37,1.02-1.14,2.11-2.21,3.23-3.24l-2.83-2.83c-2.26,2.1-4.34,4.4-6.24,6.89h-.02c-1.21,2.88-2.15,5.84-2.84,8.85l3.87,1.04c.33-1.49.73-2.96,1.2-4.42.73,1.25,1.56,2.45,2.49,3.58.79.95,1.79,1.75,2.77,2.57-1.26.22-2.53.42-3.69.84-1.38.51-2.69,1.13-3.95,1.85.32-1.5.71-2.97,1.17-4.43l-3.87-1.04c-.91,2.95-1.56,5.99-1.97,9.09Zm17.51,20.89c-.25,1.45-.36,2.89-.37,4.34-1.14-1.02-2.21-2.11-3.24-3.23-1.12-1.03-2.21-2.11-3.23-3.24,1.45-.01,2.9-.12,4.34-.37,1.21-.21,2.42-.67,3.62-1.11-.44,1.2-.91,2.4-1.11,3.62Zm-1.8-6.77c-1.77.44-3.54.62-5.33.61h0c.89-1.55,1.93-3,3.19-4.31.89-.92,1.88-1.7,2.82-2.53.36.9.78,1.78,1.26,2.64.51.84,1.06,1.65,1.66,2.41-1.19.39-2.36.87-3.6,1.17Zm6.07,6.07c.31-1.24.78-2.41,1.17-3.6.76.6,1.57,1.15,2.41,1.66.86.48,1.74.9,2.64,1.26-.83.94-1.61,1.93-2.53,2.82-1.31,1.26-2.76,2.3-4.31,3.19,0-1.79.17-3.56.61-5.33Zm6.07,9.87c-1.49-.33-2.96-.73-4.42-1.2,1.25-.73,2.45-1.56,3.58-2.49.95-.79,1.75-1.79,2.57-2.77.22,1.26.42,2.53.84,3.69.51,1.38,1.13,2.69,1.85,3.95-1.5-.32-2.97-.71-4.43-1.17Zm10.19-5.51c-.5,1.75-1.23,3.37-2.13,4.92-.9-1.55-1.63-3.17-2.13-4.92-.35-1.23-.53-2.48-.79-3.71.96.14,1.94.21,2.92.23.98-.02,1.96-.09,2.92-.23-.25,1.23-.43,2.48-.79,3.71Zm8.29-2.22c-.92-.89-1.7-1.88-2.53-2.82.9-.36,1.78-.79,2.64-1.26.84-.51,1.65-1.06,2.41-1.66.39,1.19.87,2.36,1.17,3.6.44,1.77.62,3.54.61,5.33-1.55-.89-3-1.93-4.31-3.19Zm9.76-8.2c-1.24-.31-2.41-.78-3.6-1.17.6-.76,1.15-1.57,1.66-2.41.48-.86.9-1.74,1.26-2.64.94.83,1.93,1.61,2.82,2.53,1.26,1.31,2.3,2.76,3.19,4.31-1.79,0-3.56-.17-5.33-.61Zm9.87-6.07c-.33,1.49-.73,2.96-1.2,4.42-.74-1.25-1.56-2.45-2.49-3.58-.79-.95-1.79-1.75-2.77-2.57,1.26-.22,2.53-.42,3.69-.84,1.38-.51,2.69-1.13,3.95-1.85-.32,1.5-.71,2.97-1.17,4.43Zm-5.51-10.19c1.75.5,3.37,1.23,4.92,2.13-1.55.9-3.17,1.63-4.92,2.13-1.23.35-2.48.53-3.71.79.14-.96.21-1.94.23-2.92-.02-.98-.09-1.96-.23-2.92,1.23.25,2.48.43,3.71.79Zm-2.22-8.29c-.89.92-1.88,1.7-2.82,2.53-.36-.9-.79-1.78-1.26-2.64-.51-.84-1.06-1.65-1.66-2.41,1.19-.39,2.36-.87,3.6-1.17,1.77-.44,3.54-.62,5.33-.61-.89,1.55-1.93,3-3.19,4.31Zm-3.94-10.46c.25-1.45.36-2.89.37-4.34,1.14,1.02,2.21,2.11,3.24,3.23,1.12,1.03,2.21,2.11,3.23,3.24-1.45.01-2.9.12-4.34.37-1.21.21-2.42.67-3.62,1.11.44-1.2.91-2.4,1.11-3.62Zm-4.26.7c-.31,1.24-.78,2.41-1.17,3.6-.76-.6-1.57-1.15-2.41-1.66-.86-.48-1.74-.9-2.64-1.26.83-.94,1.61-1.93,2.53-2.82,1.31-1.26,2.76-2.3,4.31-3.19,0,1.79-.17,3.56-.61,5.33Zm-6.07-9.87h0c1.49.33,2.96.73,4.42,1.2-1.25.73-2.45,1.56-3.58,2.49-.95.79-1.75,1.79-2.57,2.77,0,0,0,0,0,0h0c-.22-1.26-.42-2.53-.84-3.69-.51-1.38-1.13-2.69-1.85-3.95,1.5.32,2.97.71,4.43,1.17Zm-10.19,5.51c.5-1.75,1.23-3.37,2.13-4.92.9,1.55,1.63,3.17,2.13,4.92.35,1.23.53,2.48.78,3.71-.96-.14-1.93-.21-2.92-.23-.98.02-1.96.09-2.92.23.25-1.23.43-2.48.78-3.71Zm-5.92-5.51c1.45-.46,2.93-.85,4.43-1.17-.72,1.26-1.34,2.57-1.85,3.95-.43,1.16-.62,2.43-.84,3.69-.82-.98-1.63-1.98-2.57-2.77-1.13-.94-2.33-1.76-3.58-2.49,1.46-.47,2.93-.87,4.42-1.2Zm-4.89,13.47c-.39-1.19-.87-2.36-1.17-3.6-.44-1.77-.62-3.54-.61-5.33h0c1.55.89,3,1.93,4.31,3.19.92.89,1.7,1.88,2.53,2.82-.9.36-1.78.79-2.64,1.26-.84.51-1.65,1.06-2.41,1.66Zm-12.57,1.85h0c1.79,0,3.56.17,5.33.61,1.24.31,2.41.78,3.6,1.17-.6.76-1.15,1.57-1.66,2.41-.48.86-.9,1.74-1.26,2.64-.94-.83-1.93-1.61-2.82-2.53-1.26-1.31-2.3-2.76-3.19-4.31Zm.97,12.6c1.23-.35,2.48-.53,3.71-.79-.14.96-.21,1.94-.23,2.92.02.98.09,1.96.23,2.92-1.23-.25-2.48-.43-3.71-.79-1.75-.5-3.37-1.23-4.92-2.13h0c1.55-.9,3.17-1.63,4.92-2.13Z" style="fill: #db9b09; stroke-width: 0px;"/>
        <path d="m193.84,86.54c-2.48,1.61-4.55,3.88-5.88,6.53-.99,1.96-1.35,3.93-1.61,5.97,1.89.79,3.78,1.47,5.97,1.59,2.95.17,5.96-.49,8.59-1.83,5.04-2.57,8.12-7.7,8.72-13.2-5.06-2.23-11.04-2.13-15.79.95Zm3.96,9.24c-2.39.92-4.54.91-6.64.47.66-2.04,1.74-3.91,3.73-5.52,2.87-2.33,6.54-3.08,10.03-2.43-1.18,3.35-3.67,6.15-7.12,7.47Z" style="fill: #db9b09; stroke-width: 0px;"/>
        <path d="m236.68,159.31c11.04-6.71,18.38-17.63,25.31-28.32-6.93-10.68-14.27-21.6-25.32-28.32l-.06.02-4.95,1.33-.43.12c-3.89,6.1-9.33,10.77-17.3,10.28-.02,0-.04,0-.06,0-2.38-.54-4.87-.76-7.35-.76,1.51-1.37,3.02-2.74,4.53-4.12-1.99-.44-3.99-.87-5.98-1.3,2.14-1.24,4.18-2.67,5.98-4.33.02-.01.03-.02.05-.03,6.65-4.41,13.7-3.09,20.12.26l.43-.12,4.95-1.33.06-.02c6.2-11.33,7.1-24.46,7.76-37.18-11.34-5.79-23.16-11.57-36.08-11.87-.29-12.92-6.08-24.74-11.87-36.08-12.72.66-25.85,1.56-37.18,7.76,0,0,0,0,0,0h0c-6.71-11.04-17.63-18.38-28.32-25.31-10.68,6.93-21.6,14.27-28.32,25.32h0c-11.33-6.21-24.46-7.1-37.18-7.77-5.79,11.34-11.57,23.16-11.87,36.08l.04.04,3.62,3.62.32.32c7.23.32,13.99,2.69,17.55,9.84,0,.02.02.03.03.05.73,2.33,1.78,4.59,3.01,6.74-1.94-.62-3.89-1.24-5.83-1.86.62,1.94,1.24,3.89,1.86,5.83-2.15-1.23-4.41-2.29-6.74-3.01-.02,0-.03-.02-.05-.03-7.14-3.56-9.52-10.32-9.84-17.55l-.32-.32-3.62-3.62-.04-.04c-12.92.29-24.74,6.08-36.08,11.87.66,12.72,1.56,25.85,7.76,37.18l.06.02,4.95,1.33.43.12c6.42-3.34,13.47-4.66,20.12-.26.02.01.03.02.05.03,1.8,1.66,3.84,3.09,5.98,4.33-1.99.43-3.99.87-5.98,1.3l8.58,2.3c1.29-.28,2.59-.56,3.88-.84,8.3-1.81,21.06-5.45,26.2,4,.32.58.78.88,1.27.98.05.02.1.04.14.05,1.15.29,2.06-.42,2.46-1.44.56-1.41,1.26-2.77,2.08-4.05.71-1.35,1.53-2.64,2.47-3.83.68-.86.84-2,.02-2.85-.04-.04-.08-.06-.12-.1-.33-.38-.82-.63-1.48-.62-10.76.27-13.98-12.6-16.57-20.69-.4-1.26-.81-2.52-1.21-3.78,1.26.4,2.52.81,3.78,1.21,8.09,2.58,20.96,5.81,20.69,16.57-.02.66.23,1.16.62,1.48.03.04.06.08.1.12.85.82,1.99.66,2.85-.02,1.18-.94,2.48-1.77,3.83-2.47,1.29-.82,2.65-1.52,4.05-2.08,1.02-.4,1.73-1.31,1.44-2.46-.01-.05-.04-.1-.05-.14-.09-.49-.39-.96-.98-1.27-9.46-5.14-5.81-17.9-4-26.2.28-1.29.56-2.59.84-3.88l-2.3-8.58c-.44,1.99-.87,3.99-1.3,5.98-1.24-2.14-2.67-4.18-4.33-5.98-.01-.02-.02-.03-.03-.05-4.41-6.65-3.09-13.7.26-20.12,6.1,3.89,10.77,9.33,10.28,17.3,0,.02,0,.04,0,.06-.54,2.38-.76,4.87-.76,7.34-1.37-1.51-2.74-3.02-4.12-4.53l2.3,8.58c.89.98,1.78,1.96,2.67,2.94,5.71,6.28,15.25,15.51,9.63,24.69-.35.57-.38,1.12-.21,1.59,0,.05.01.1.03.15.33,1.14,1.4,1.57,2.48,1.41,1.49-.22,3.03-.29,4.55-.23,1.52-.06,3.06,0,4.55.23,1.09.16,2.15-.27,2.48-1.41.01-.05.02-.1.02-.15.17-.47.14-1.03-.21-1.59-5.62-9.18,3.92-18.41,9.63-24.69.89-.98,1.78-1.96,2.67-2.94,0,0,0,0,0,0,0,0,0,0,0,0,.28,1.29.56,2.59.84,3.88,1.81,8.3,5.45,21.06-4,26.2-.58.32-.88.78-.98,1.27-.02.05-.04.1-.05.14-.29,1.15.42,2.06,1.44,2.46,1.41.56,2.77,1.26,4.05,2.08,1.35.71,2.64,1.53,3.83,2.47.86.68,2,.84,2.85.02.04-.03.06-.08.1-.12.38-.33.63-.82.62-1.48-.27-10.76,12.6-13.98,20.69-16.57,1.26-.4,2.52-.81,3.78-1.21-.4,1.26-.81,2.52-1.21,3.78-2.58,8.09-5.81,20.96-16.57,20.69-.66-.02-1.16.23-1.48.62-.04.03-.08.06-.12.1-.82.85-.66,1.99.02,2.85.94,1.18,1.77,2.48,2.47,3.83.82,1.29,1.52,2.65,2.08,4.05.4,1.02,1.31,1.73,2.46,1.44.05-.01.1-.04.14-.05.49-.09.96-.39,1.27-.98,5.14-9.46,17.9-5.81,26.2-4,1.29.28,2.59.56,3.88.84-.98.89-1.96,1.78-2.94,2.67-6.28,5.71-15.51,15.25-24.69,9.63-.57-.35-1.12-.38-1.59-.21-.05,0-.1.01-.15.03-1.14.33-1.57,1.4-1.41,2.48.22,1.49.29,3.03.23,4.55.06,1.52,0,3.06-.23,4.55-.16,1.09.27,2.15,1.41,2.48.05.01.1.02.15.03.47.17,1.03.14,1.59-.21,9.18-5.62,18.41,3.92,24.69,9.63.98.89,1.96,1.78,2.94,2.67l8.58,2.3c-1.51-1.37-3.02-2.75-4.53-4.12,2.48,0,4.96-.22,7.35-.76.02,0,.04,0,.06,0,7.97-.49,13.41,4.18,17.3,10.28l.43.12,4.95,1.33.06.02ZM28.83,100.7c-5.45-10.03-6.49-21.52-7.12-32.8,10.08-5.1,20.55-9.94,31.96-10.24.06,1.41.19,2.81.39,4.18-4.64-.02-9.43,1.32-13.69,2.81-4.5,1.57-9.05,3.65-12.88,6.59h0c-.63,4.79-.15,9.77.73,14.45.84,4.43,2.08,9.25,4.42,13.26-1.29.51-2.57,1.1-3.82,1.75Zm7.72-2.99c-2.51-3.7-3.61-8.82-4.41-13.06-.69-3.64-1.08-7.45-.79-11.18,3.09-2.11,6.59-3.69,10.08-4.91,4.08-1.42,9.06-3.03,13.52-2.71.98,3.34,2.6,6.4,5.08,8.93-1.23.22-2.47.56-3.74.95-4.56,1.41-9.12,2.82-13.69,4.24,1.06,4.66,2.11,9.31,3.17,13.97.3,1.3.62,2.54,1.05,3.71-3.43-.89-6.88-.76-10.27.06Zm56.51,9.17c-.34.54-.65,1.1-.96,1.66h0c-.34.54-.66,1.1-.96,1.66-5.68-6.43-15.53-5.9-23.53-4.24-1.5.31-3,.64-4.51.96-3.61-1.69-7.34-3.76-10.14-6.64-2.78-2.87-3.2-6.96-4.05-10.7-.52-2.29-1.04-4.58-1.56-6.87,2.24-.69,4.49-1.39,6.73-2.08,3.66-1.13,7.42-2.82,11.29-1.84,3.89.98,7.54,3.18,10.82,5.46.47,1.46.94,2.92,1.42,4.38,2.56,7.76,7.03,16.55,15.43,18.26Zm-31.2-52.81c-1.37-.21-2.77-.33-4.18-.39.29-11.41,5.13-21.88,10.24-31.96,11.28.62,22.77,1.66,32.8,7.12-.66,1.25-1.25,2.53-1.75,3.82-4.01-2.33-8.83-3.57-13.26-4.42-4.68-.89-9.66-1.37-14.44-.73-2.94,3.83-5.02,8.38-6.59,12.88-1.49,4.26-2.82,9.05-2.81,13.69Zm13.87,2.21c-.39,1.27-.73,2.51-.95,3.74-2.52-2.48-5.58-4.1-8.93-5.08-.32-4.46,1.28-9.44,2.71-13.52,1.22-3.5,2.79-6.99,4.91-10.08h0c3.73-.28,7.55.1,11.18.79,4.24.8,9.36,1.9,13.06,4.41-.82,3.39-.95,6.84-.06,10.27-1.18-.42-2.42-.75-3.71-1.05-4.66-1.06-9.31-2.12-13.97-3.17-1.41,4.56-2.83,9.12-4.24,13.69Zm31.19,6.82c-.32,1.5-.64,3-.96,4.51-1.66,8-2.19,17.85,4.24,23.53-.56.3-1.12.62-1.66.96-.57.3-1.12.62-1.66.96-1.7-8.4-10.5-12.88-18.26-15.43-1.46-.48-2.92-.95-4.38-1.42-2.28-3.27-4.48-6.93-5.46-10.82-.97-3.87.71-7.63,1.84-11.29.69-2.24,1.39-4.49,2.08-6.73h0c2.29.52,4.58,1.04,6.87,1.56,3.74.85,7.83,1.27,10.7,4.05,2.88,2.79,4.94,6.52,6.64,10.14Zm-4.22-37.73v-.05s0,.05,0,.05l1.33,4.95-1.33-4.95Zm112.48,72.27c.42-1.18.75-2.42,1.05-3.71,1.06-4.66,2.12-9.31,3.17-13.97-4.56-1.41-9.12-2.83-13.69-4.24-1.27-.39-2.51-.73-3.74-.95,2.48-2.52,4.1-5.58,5.08-8.93,4.46-.32,9.44,1.28,13.52,2.71,3.5,1.22,6.99,2.79,10.08,4.91.28,3.73-.1,7.55-.79,11.18-.8,4.24-1.9,9.36-4.41,13.06-3.39-.82-6.84-.95-10.27-.06Zm25.1-29.74c-.62,11.28-1.66,22.77-7.12,32.8-1.25-.66-2.53-1.25-3.82-1.75,2.33-4.01,3.57-8.82,4.42-13.26.89-4.68,1.37-9.66.73-14.44-3.83-2.94-8.38-5.02-12.88-6.59-4.26-1.49-9.05-2.82-13.69-2.81.21-1.37.33-2.77.39-4.18,11.41.29,21.88,5.13,31.96,10.23Zm-35.59-10.6l-.32.32c-.32,7.23-2.69,13.99-9.84,17.55-.02,0-.03.02-.05.03-2.33.73-4.59,1.78-6.74,3.01.62-1.94,1.24-3.89,1.86-5.83-1.94.62-3.89,1.24-5.83,1.86,1.23-2.15,2.29-4.41,3.01-6.74,0-.02.02-.03.03-.05,3.56-7.14,10.32-9.52,17.55-9.84l.32-.32Zm-36.63-11.53c-1.3.3-2.54.62-3.71,1.05.89-3.43.76-6.88-.06-10.27,3.7-2.51,8.82-3.61,13.06-4.41,3.64-.69,7.45-1.08,11.18-.79,2.11,3.09,3.69,6.59,4.91,10.08,1.42,4.08,3.03,9.06,2.71,13.52-3.34.98-6.4,2.6-8.93,5.08-.22-1.23-.56-2.47-.95-3.74-1.41-4.56-2.82-9.12-4.24-13.69h0c-4.66,1.06-9.31,2.11-13.97,3.17Zm26.03-24.06c5.1,10.08,9.94,20.55,10.24,31.96-1.41.06-2.81.19-4.18.39.02-4.64-1.32-9.43-2.81-13.69-1.57-4.5-3.65-9.05-6.59-12.88-4.79-.63-9.77-.15-14.44.73-4.43.84-9.25,2.08-13.26,4.42-.51-1.29-1.1-2.57-1.75-3.82,10.03-5.45,21.52-6.5,32.8-7.12Zm-87.94,5.66c5.96-9.74,15.39-16.38,24.84-22.56,9.46,6.18,18.89,12.82,24.84,22.56-1.19.76-2.34,1.57-3.43,2.43-2.3-4.03-5.85-7.51-9.28-10.45-3.61-3.11-7.68-6.01-12.14-7.86-4.46,1.85-8.53,4.75-12.14,7.86-3.42,2.95-6.97,6.43-9.28,10.45-1.08-.87-2.23-1.67-3.43-2.43Zm37.94,32.79c-1.03,1.14-2.06,2.28-3.08,3.42-5.44,6.09-10.82,14.36-8.1,22.49-.64-.02-1.28-.02-1.92,0-.64-.02-1.28-.02-1.92,0,2.73-8.13-2.66-16.4-8.1-22.49-1.02-1.15-2.05-2.28-3.08-3.42-.34-3.98-.42-8.24.68-12.1,1.09-3.84,4.43-6.25,7.24-8.86,1.72-1.6,3.45-3.19,5.17-4.79,1.72,1.6,3.45,3.19,5.17,4.79,2.81,2.6,6.15,5.02,7.24,8.86,1.1,3.86,1.02,8.12.68,12.1Zm.11-18.74c-.81-.95-1.72-1.86-2.69-2.77-3.5-3.25-7.01-6.49-10.51-9.73-3.5,3.24-7.01,6.49-10.51,9.73-.98.91-1.88,1.81-2.69,2.77-.94-3.41-2.79-6.34-5.19-8.87,1.95-4.02,5.83-7.54,9.1-10.35,2.81-2.42,5.92-4.66,9.29-6.28,3.38,1.62,6.49,3.86,9.29,6.28,3.27,2.82,7.15,6.33,9.1,10.35-2.4,2.53-4.25,5.45-5.19,8.87Zm8.25,9.51h0s0,0,0,0c0,0,0,0,0,0h0c-1.37,1.51-2.75,3.02-4.12,4.53,0-2.48-.22-4.96-.76-7.34,0-.02,0-.04,0-.06-.49-7.97,4.18-13.41,10.28-17.3,0,0,0,0,0,0,0,0,0,0,0,0,3.34,6.42,4.66,13.47.26,20.12-.01.02-.02.03-.03.05-1.66,1.8-3.09,3.84-4.33,5.98-.43-1.99-.87-3.99-1.3-5.98Zm30.76,14.44c-.98,3.89-3.18,7.54-5.46,10.82-1.46.48-2.92.94-4.38,1.43-7.76,2.56-16.55,7.03-18.26,15.43-.54-.34-1.1-.65-1.66-.96-.54-.34-1.1-.66-1.66-.96,6.43-5.68,5.9-15.53,4.24-23.53-.31-1.5-.64-3-.96-4.51,1.69-3.61,3.76-7.34,6.64-10.14,2.87-2.78,6.96-3.2,10.7-4.05,2.29-.52,4.58-1.04,6.87-1.56.69,2.24,1.39,4.49,2.08,6.73,1.13,3.66,2.82,7.42,1.84,11.29Zm15.68,41.54c-1.5-.32-3-.64-4.51-.96-8-1.66-17.85-2.19-23.53,4.24-.3-.56-.62-1.12-.96-1.66h0c-.3-.57-.62-1.12-.96-1.66,8.4-1.7,12.88-10.5,15.43-18.26.48-1.46.95-2.92,1.42-4.38,3.27-2.28,6.93-4.48,10.82-5.46,3.87-.97,7.63.71,11.29,1.84,2.24.69,4.49,1.39,6.73,2.08-.52,2.29-1.04,4.58-1.56,6.87-.85,3.74-1.27,7.83-4.05,10.7-2.79,2.88-6.52,4.95-10.14,6.64Zm15.04,36.49c-3.86,1.1-8.12,1.02-12.1.68-1.14-1.03-2.28-2.06-3.42-3.08-6.09-5.44-14.36-10.82-22.49-8.09.02-.64.02-1.28,0-1.92.02-.64.02-1.28,0-1.92,8.13,2.73,16.4-2.66,22.49-8.1,1.15-1.02,2.28-2.05,3.42-3.08,3.98-.34,8.24-.42,12.1.68,3.84,1.09,6.25,4.43,8.86,7.24,1.6,1.72,3.19,3.45,4.79,5.17-1.6,1.72-3.19,3.45-4.79,5.17-2.6,2.81-5.02,6.15-8.86,7.24Zm15.51,5.98c-2.53-2.4-5.45-4.25-8.87-5.19.95-.81,1.86-1.72,2.77-2.69,3.25-3.5,6.49-7.01,9.73-10.51-3.24-3.5-6.49-7.01-9.73-10.51-.91-.98-1.81-1.88-2.77-2.69,3.41-.94,6.34-2.79,8.87-5.19,4.03,1.95,7.54,5.83,10.35,9.1,2.42,2.81,4.66,5.92,6.28,9.29-1.62,3.37-3.86,6.48-6.28,9.29-2.82,3.27-6.33,7.15-10.35,9.11Zm2.75,3.02c4.03-2.3,7.51-5.86,10.45-9.28,3.11-3.61,6.01-7.68,7.86-12.14-1.85-4.46-4.75-8.53-7.86-12.14-2.95-3.42-6.43-6.97-10.45-9.28.87-1.08,1.67-2.23,2.43-3.43,9.74,5.96,16.38,15.39,22.56,24.84-6.18,9.46-12.82,18.89-22.56,24.84-.76-1.19-1.57-2.34-2.43-3.43Z" style="fill: #db9b09; stroke-width: 0px;"/>
        <path d="m200.92,163.2c-2.63-1.34-5.64-2-8.59-1.83-2.19.13-4.08.8-5.97,1.59h0c.26,2.03.62,4.01,1.61,5.97,1.33,2.64,3.4,4.92,5.88,6.53,4.75,3.08,10.73,3.18,15.79.95-.6-5.5-3.68-10.63-8.72-13.2Zm-6.02,8.05c-1.99-1.61-3.06-3.48-3.73-5.52,2.1-.44,4.25-.45,6.64.47,3.45,1.32,5.93,4.13,7.12,7.47-3.49.65-7.16-.1-10.03-2.43Z" style="fill: #db9b09; stroke-width: 0px;"/>
        <path d="m207.65,123.92c-2.95.15-5.88,1.09-8.36,2.71-1.83,1.2-3.14,2.73-4.37,4.36,1.24,1.63,2.54,3.16,4.37,4.36,2.47,1.62,5.41,2.56,8.36,2.71,5.65.29,10.88-2.61,14.15-7.07-3.27-4.46-8.5-7.36-14.15-7.07Zm-1.19,9.99c-2.53-.4-4.39-1.48-5.99-2.91,1.59-1.43,3.46-2.51,5.99-2.91,3.65-.58,7.2.61,9.9,2.91-2.7,2.31-6.25,3.49-9.9,2.91Z" style="fill: #db9b09; stroke-width: 0px;"/>
        <path d="m163.2,61.07c-1.34,2.63-2,5.64-1.83,8.59.13,2.19.8,4.08,1.59,5.97,2.03-.26,4.01-.62,5.97-1.61,2.64-1.33,4.92-3.4,6.53-5.88,3.08-4.75,3.18-10.73.95-15.79-5.5.6-10.63,3.68-13.2,8.72Zm8.05,6.02c-1.61,1.99-3.48,3.06-5.52,3.73-.44-2.1-.45-4.25.47-6.64,1.32-3.45,4.13-5.93,7.47-7.12h0c.65,3.49-.1,7.16-2.43,10.03Z" style="fill: #db9b09; stroke-width: 0px;"/>
        <path d="m144.05,91.91c.34-2.07.14-4.15-.87-6.04-1.81,1.13-3.04,2.84-3.78,4.81.24-4.1,1.79-8.1,5.23-10.26h0c1.91,3.59,1.25,7.83-.6,11.49Z" style="fill: #db9b09; stroke-width: 0px;"/>
        <path d="m168.3,168.3c-4.06-.14-7.41-2.84-9.66-6.27,1.62,1.33,3.53,2.2,5.67,2.28-.07-2.14-.94-4.05-2.28-5.67,3.43,2.25,6.13,5.59,6.26,9.66Z" style="fill: #db9b09; stroke-width: 0px;"/>
        <path d="m167.99,94c-.14,4.06-2.84,7.41-6.26,9.66,1.33-1.62,2.2-3.53,2.28-5.67-2.14.08-4.06.95-5.68,2.29,2.25-3.44,5.6-6.14,9.67-6.28Z" style="fill: #db9b09; stroke-width: 0px;"/>
        <path d="m182.47,117.28c-2.15,3.45-6.17,5-10.27,5.23,1.97-.74,3.68-1.96,4.82-3.78-1.89-1-3.99-1.21-6.05-.87,3.67-1.84,7.91-2.51,11.5-.59Z" style="fill: #db9b09; stroke-width: 0px;"/>
        <path d="m144.86,181.92c-3.45-2.15-5-6.16-5.24-10.26.74,1.96,1.96,3.68,3.78,4.81,1-1.89,1.21-3.98.87-6.04,1.84,3.66,2.51,7.9.6,11.49Z" style="fill: #db9b09; stroke-width: 0px;"/>
        <path d="m90.27,122.72c-4.1-.23-8.11-1.78-10.26-5.23,3.59-1.91,7.83-1.25,11.49.59-2.07-.34-4.16-.14-6.04.87,1.13,1.82,2.84,3.04,4.81,3.78Z" style="fill: #db9b09; stroke-width: 0px;"/>
        <path d="m103.19,162.2c-2.25,3.43-5.6,6.14-9.67,6.27.14-4.07,2.84-7.42,6.27-9.67-1.33,1.62-2.21,3.54-2.28,5.68,2.14-.08,4.06-.95,5.68-2.29Z" style="fill: #db9b09; stroke-width: 0px;"/>
        <path d="m182.27,144.71c-3.59,1.92-7.84,1.25-11.5-.59,2.07.35,4.16.14,6.05-.87-1.13-1.81-2.84-3.04-4.81-3.78,4.1.24,8.1,1.78,10.26,5.23Z" style="fill: #db9b09; stroke-width: 0px;"/>
        <path d="m122.64,171.81c-.24,4.09-1.78,8.09-5.23,10.25-1.91-3.59-1.25-7.84.59-11.5-.34,2.07-.14,4.16.87,6.05h0c1.81-1.13,3.03-2.84,3.77-4.8Z" style="fill: #db9b09; stroke-width: 0px;"/>
        <path d="m91.64,144.12c-3.66,1.84-7.9,2.5-11.49.59,2.15-3.45,6.17-5,10.26-5.23-1.97.74-3.68,1.96-4.81,3.78,1.89,1,3.98,1.21,6.04.87Z" style="fill: #db9b09; stroke-width: 0px;"/>
        <path d="m122.72,90.39c-.74-1.96-1.96-3.66-3.77-4.79,0,0,0,0,0,0-1,1.89-1.21,3.98-.87,6.04-1.84-3.66-2.5-7.91-.59-11.49,3.45,2.15,5,6.16,5.23,10.25Z" style="fill: #db9b09; stroke-width: 0px;"/>
        <path d="m97.51,97.71c.07,2.14.95,4.06,2.28,5.68-3.43-2.25-6.14-5.6-6.27-9.67,4.07.14,7.42,2.84,9.67,6.27-1.62-1.33-3.53-2.21-5.68-2.29Z" style="fill: #db9b09; stroke-width: 0px;"/>
      </g>
    </g>
  </g>
</svg>